<?xml version="1.0" encoding="UTF-8"?>
<svg width="326px" height="274px" viewBox="0 0 326 274" version="1.1" xmlns="http://www.w3.org/2000/svg" xmlns:xlink="http://www.w3.org/1999/xlink">
    <title>编组 13</title>
    <g id="页面-1" stroke="none" stroke-width="1" fill="none" fill-rule="evenodd">
        <g id="04-Home-Fast-and-easy" transform="translate(-43.000000, -1605.000000)" fill="#FFFFFF">
            <g id="编组-13" transform="translate(43.000000, 1605.000000)">
                <g id="编组-7备份" fill-rule="nonzero">
                    <rect id="矩形" x="151.521448" y="49.5065582" width="171.305859" height="6.01371887"></rect>
                    <path d="M215.430787,204.179407 L39.4398448,204.179407 C25.8651168,204.179407 14.6929955,193.114165 14.6929955,179.402886 L14.6929955,94.0080778 C14.6929955,80.4170732 25.7449865,69.2315561 39.4398448,69.2315561 L215.430787,69.2315561 C229.005515,69.2315561 240.177637,80.2967988 240.177637,94.0080778 L240.177637,179.402886 C240.177637,193.114165 229.125646,204.179407 215.430787,204.179407 Z M39.4398448,75.3655493 C29.1086359,75.3655493 20.6995123,83.7847557 20.6995123,94.1283522 L20.6995123,179.52316 C20.6995123,189.866757 29.1086359,198.285963 39.4398448,198.285963 L215.430787,198.285963 C225.761996,198.285963 234.17112,189.866757 234.17112,179.52316 L234.17112,94.1283522 C234.17112,83.7847557 225.761996,75.3655493 215.430787,75.3655493 L39.4398448,75.3655493 Z" id="形状"></path>
                    <rect id="矩形" x="47.4885773" y="167.495722" width="96.5847903" height="6.01371887"></rect>
                    <path d="M305.88893,139.110969 L249.307542,139.110969 L249.307542,133.09725 L305.88893,133.09725 C313.577272,133.09725 319.824049,126.842983 319.824049,119.145423 L319.824049,52.5134176 C319.824049,44.8158575 313.577272,38.5615898 305.88893,38.5615898 L168.459826,38.5615898 C160.771484,38.5615898 154.524707,44.8158575 154.524707,52.5134176 L154.524707,61.1731728 L148.51819,61.1731728 L148.51819,52.5134176 C148.51819,41.5684493 157.407835,32.547871 168.459826,32.547871 L305.88893,32.547871 C316.820791,32.547871 325.830566,41.4481749 325.830566,52.5134176 L325.830566,119.145423 C325.830566,130.210665 316.820791,139.110969 305.88893,139.110969 Z" id="路径"></path>
                    <path d="M172.904648,247.237635 C170.141651,247.237635 167.378653,247.11736 164.735785,246.997086 L165.216307,240.983367 C169.661129,241.34419 174.226082,241.34419 178.670904,241.103641 L179.031295,247.11736 C176.98908,247.237635 174.946864,247.237635 172.904648,247.237635 Z M193.086545,245.553793 L192.005372,239.660349 C196.450194,238.818428 200.774886,237.856233 205.099578,236.533215 L206.901533,242.306385 C202.336581,243.509129 197.651498,244.711873 193.086545,245.553793 Z M150.680536,245.072696 C145.995453,244.110501 141.4305,242.907757 136.985678,241.464464 L138.907763,235.811569 C143.112325,237.254861 147.557147,238.337331 151.881839,239.179251 L150.680536,245.072696 Z M220.11587,237.134587 L217.593133,231.72224 C221.677565,229.918124 225.641866,227.753185 229.486037,225.467972 L232.609425,230.63977 C228.645124,232.924984 224.440563,235.210197 220.11587,237.134587 Z M123.771341,236.172392 C119.446649,234.127727 115.362217,231.842514 111.397916,229.316752 L114.641435,224.265228 C118.365476,226.670716 122.329777,228.835655 126.414208,230.760045 L123.771341,236.172392 Z M244.262068,222.340838 L240.538028,217.650138 C244.021807,214.883827 247.385457,211.876968 250.508845,208.629559 L254.833538,212.839163 C251.469888,216.206845 247.865978,219.454253 244.262068,222.340838 Z M99.9855342,221.01782 C96.3816241,218.010961 92.8978444,214.763553 89.6543253,211.275596 L93.9790174,207.186267 C97.1024062,210.433675 100.345925,213.560809 103.829705,216.447394 L99.9855342,221.01782 Z M264.083573,202.134743 L259.27836,198.526512 C262.041358,194.91828 264.564095,191.189775 266.726441,187.340995 L271.892045,190.347854 C269.609569,194.437183 266.966702,198.406237 264.083573,202.134743 Z M278.379083,177.59877 L272.853088,175.193283 C274.655043,171.103954 276.096607,166.774076 277.418041,162.564473 L283.184297,164.248314 C281.742733,168.818741 280.181039,173.268892 278.379083,177.59877 Z M286.187555,150.296486 L280.301169,149.334291 C281.021951,144.884139 281.382342,140.433987 281.502472,135.983836 L287.508989,136.224384 C287.268728,140.915085 286.908337,145.72606 286.187555,150.296486 Z" id="形状"></path>
                    <path d="M81.4854624,73.9222568 L76.4399883,70.6748486 C78.9627254,66.7057941 81.8458535,62.8570141 84.8491119,59.2487827 L89.4140646,63.0975628 C86.5309366,66.5855198 83.8880692,70.1937511 81.4854624,73.9222568 Z M98.6641005,53.3553383 L94.5796691,49.0254607 C98.0634488,45.7780525 101.667359,42.771193 105.51153,40.0048824 L108.995309,44.8158575 C105.391399,47.3416194 101.90762,50.2282044 98.6641005,53.3553383 Z M226.843169,38.2007667 C225.761996,37.5993948 224.680823,36.9980229 223.59965,36.396651 L226.362648,31.1045784 C227.563951,31.7059503 228.645124,32.3073222 229.846428,33.0289685 L226.843169,38.2007667 Z M120.287561,37.4791204 L117.404433,32.1870478 C121.488864,29.9018347 125.813557,27.8571703 130.258379,26.0530546 L132.540855,31.585676 C128.336294,33.3897916 124.251862,35.3141817 120.287561,37.4791204 Z M211.346356,30.8640297 C207.141794,29.3004628 202.817102,27.9774446 198.49241,26.8949752 L199.933974,21.1218051 C204.498927,22.2042745 209.063879,23.647567 213.508702,25.3314083 L211.346356,30.8640297 Z M145.154541,27.3760727 L143.592846,21.6029026 C148.157799,20.4001589 152.842882,19.4379638 157.527965,18.836592 L158.368878,24.7300364 C153.924055,25.4516827 149.479233,26.2936034 145.154541,27.3760727 Z M185.278073,24.4894877 C181.193641,24.0083902 177.10921,23.7678414 173.024779,23.7678414 L171.943606,23.7678414 L171.823475,17.7541226 L173.024779,17.7541226 C177.349471,17.7541226 181.674163,17.9946713 185.998855,18.4757688 L185.278073,24.4894877 Z" id="形状"></path>
                    <rect id="矩形" x="47.4885773" y="144.523316" width="24.3864582" height="6.01371887"></rect>
                    <path d="M284.44967,267.906224 C285.996067,267.906224 287.24967,269.159827 287.24967,270.706224 C287.24967,272.195348 286.087207,273.412963 284.620238,273.501114 L284.44967,273.506224 L153.043099,273.506224 C151.496702,273.506224 150.243099,272.252622 150.243099,270.706224 C150.243099,269.217101 151.405562,267.999486 152.872531,267.911334 L153.043099,267.906224 L284.44967,267.906224 Z M58.8384897,35.8097894 C60.3848374,35.7974038 61.6484404,37.0409258 61.6609177,38.5872735 C61.6727529,40.076349 60.5200796,41.3032361 59.0538637,41.4031338 L58.8833419,41.4096098 L2.82251838,41.8586341 C1.27617068,41.8710197 0.0125676629,40.6274978 9.03245806e-05,39.0811501 C-0.0117448399,37.5920745 1.14092844,36.3651874 2.60714431,36.2652898 L2.7776661,36.2588137 L58.8384897,35.8097894 Z M312.697634,8.13123139e-06 C314.244027,-0.00367880193 315.500622,1.24692485 315.504325,2.79331773 C315.507875,4.28243681 314.348325,5.5028266 312.881571,5.59448271 L312.711015,5.60000031 L218.753075,5.82452065 C217.206682,5.82820758 215.950088,4.57760393 215.946384,3.03121105 C215.942834,1.54209197 217.102384,0.321702179 218.569139,0.230046071 L218.739694,0.22452847 L312.697634,8.13123139e-06 Z" id="形状结合"></path>
                </g>
                <g id="bank-transfer-logo-svgrepo-com" transform="translate(268.000000, 65.000000)" fill-rule="nonzero">
                    <path d="M12.7430927,33.4148856 L16.7423842,33.4148856 L17.4375604,35.6304524 L19.8963741,35.6304524 L16.0769627,24.865673 L13.466671,24.865673 L9.60668513,35.631796 L11.9897598,35.631796 L12.7430927,33.4148856 Z M14.7352998,27.296213 L14.7664069,27.296213 L16.1080698,31.5526809 L13.3463,31.5526809 L14.7352998,27.296213 Z M8.9493785,32.4421322 C8.9493785,31.3766717 8.60314291,30.3273341 7.27500483,29.8342395 C7.72673408,29.6098613 8.60314291,29.1758843 8.60314291,27.6294213 C8.60314291,26.5196225 7.92419656,24.8683602 5.26656791,24.8683602 L0,24.8683602 L0,35.6358268 L4.58897405,35.6358268 C6.80839827,35.6358268 7.39672828,35.2609674 8.01481291,34.657699 C8.58691312,34.1054868 8.9493785,33.2926197 8.9493785,32.4421322 Z M2.1747923,26.7305649 L4.77155922,26.7305649 C5.79674116,26.7305649 6.43105558,26.9992813 6.43105558,27.8833583 C6.43105558,28.7405637 5.72370709,29.0845207 4.82971598,29.0845207 L2.1747923,29.0845207 L2.1747923,26.7305649 Z M4.95008695,33.7749656 L2.1747923,33.7749656 L2.1747923,30.8956693 L5.05693308,30.8956693 C5.87383268,30.8956693 6.68667482,31.25978 6.68667482,32.2002875 C6.68532234,33.2926197 6.05100792,33.7749656 4.95008695,33.7749656 Z M37.3217621,29.2766529 L42,35.6304524 L39.0867521,35.6304524 L35.7366523,30.9077615 L34.6803632,31.9880015 L34.6803632,35.6304524 L32.4163071,35.6304524 L32.4163071,24.865673 L34.6803632,24.865673 L34.6803632,29.2430634 L38.817608,24.865673 L41.7443808,24.865673 L37.3217621,29.2766529 Z M9.60803761,41.6093926 C9.60803761,40.5802087 9.35918078,40.4109174 8.90339409,40.2120672 C9.45250209,40.0279965 9.76222065,39.5080302 9.76222065,38.8967004 C9.76222065,38.4210724 9.49307658,37.3394888 8.01616539,37.3394888 L5.20841115,37.3394888 L5.20841115,42.8535496 L6.34720165,42.8535496 L6.34720165,40.6971004 L7.5441489,40.6971004 C8.40297546,40.6971004 8.45031236,40.9900012 8.45031236,41.73972 C8.45031236,42.3067117 8.49494429,42.5942382 8.57203581,42.852206 L9.85554196,42.852206 L9.85554196,42.7084427 C9.60803761,42.6157355 9.60803761,42.4141982 9.60803761,41.6093926 Z M7.70238939,39.7700287 L6.34584917,39.7700287 L6.34584917,38.2920885 L7.79030077,38.2920885 C8.46924712,38.2920885 8.60179043,38.7193476 8.60179043,39.0135921 C8.60043795,39.5563992 8.30830167,39.7700287 7.70238939,39.7700287 Z M11.4649965,15.4431321 C11.4568816,15.195913 11.4487667,14.8976378 11.4379468,14.5536808 C11.4163071,14.2043495 11.5069234,13.8254593 11.5434405,13.3968566 C11.5880724,12.9669104 11.6462291,12.5006874 11.8098796,12.0250594 C11.9478328,11.5454006 12.0682038,11.0187164 12.3332904,10.528309 C12.4496039,10.2757155 12.5686224,10.0164042 12.6930508,9.75574928 C12.8228892,9.49912511 13.0027694,9.26668541 13.1583049,9.01543557 C13.4653185,8.49950006 13.8629484,8.04536933 14.2700457,7.5912386 C14.6636182,7.11695413 15.1491595,6.75553056 15.5914214,6.33767654 C16.0769627,5.9964067 16.5395118,5.60139358 17.035873,5.32327209 C17.5241193,5.01693538 18.0056031,4.74284464 18.4803246,4.51712286 C18.9482836,4.26587302 19.4121852,4.09658168 19.8355123,3.90848019 C20.490114,3.65588676 21.0716816,3.45972378 21.5504605,3.31999125 C21.350293,2.83092738 21.1785277,2.32170979 21.0513943,1.77890264 C20.9174986,1.2199725 20.80389,0.648950131 20.7930701,0 C21.4219746,0.174665667 21.9480904,0.428602675 22.4606814,0.694631921 C22.9705674,0.963348331 23.4358215,1.26296713 23.8713209,1.58811399 C24.7504347,2.23168979 25.4983577,2.97469066 26.1773041,3.77143482 C26.6926,4.37470316 26.7372319,5.21712911 26.3544793,5.86070491 L26.2746828,5.99237595 C25.6511883,7.02827772 24.9086752,7.99162605 24.0106267,8.85420572 C23.5670123,9.28683915 23.0760611,9.69125734 22.5310105,10.0634296 C22.2564565,10.2461567 21.9683777,10.4235096 21.6748889,10.5941445 C21.3705803,10.7594051 21.0500419,10.9112298 20.6970439,11.0455881 C20.6726992,10.6720722 20.6781091,10.3173666 20.7051588,9.97475316 C20.7389708,9.63751406 20.7822503,9.30699288 20.8349971,8.98050244 C20.9513106,8.33692663 21.117666,7.7255968 21.3313583,7.14382577 C21.352998,7.08067742 21.3786952,7.02155981 21.4030399,6.95975503 C21.1947575,6.98528309 20.9783603,7.01349831 20.7430283,7.04708786 C20.3765054,7.12501562 19.9558833,7.17875891 19.5379661,7.29968129 C19.1078766,7.3964192 18.6683197,7.53212098 18.2220004,7.69335083 C17.7540413,7.8303962 17.3347717,8.06686664 16.8586978,8.25631171 C16.4407806,8.51293588 15.9579442,8.72387827 15.5616668,9.03693288 C15.1464546,9.3352081 14.7271849,9.63617048 14.3836543,10.0083427 C14.209184,10.1883827 14.0063116,10.3536433 13.8480711,10.5457755 C13.6979455,10.7432821 13.5464674,10.9421322 13.3990468,11.1342645 C13.071746,11.5091239 12.8702261,11.9431009 12.6484189,12.3448319 C12.404972,12.739845 12.2575514,13.1509811 12.130418,13.5365892 C12.0113995,13.9221972 11.8396342,14.2715286 11.7895923,14.6007062 C11.7260256,14.9312273 11.6705738,15.2174103 11.6259419,15.4552243 C11.536678,15.9348831 11.4839312,16.2103175 11.4839312,16.2103175 C11.4839312,16.2103175 11.4798738,15.9308524 11.4649965,15.4431321 Z M0.00135248277,37.3394888 L4.51593998,37.3394888 L4.51593998,38.3189601 L2.83480389,38.3189601 L2.83480389,42.8562367 L1.67843112,42.8562367 L1.67843112,38.3189601 L0.00135248277,38.3189601 L0.00135248277,37.3394888 L0.00135248277,37.3394888 Z M12.1845173,37.3394888 L10.205835,42.8535496 L11.4284794,42.8535496 L11.813937,41.7155356 L13.8615959,41.7155356 L14.2186514,42.8535496 L15.4791653,42.8535496 L13.5248277,37.3394888 L12.1845173,37.3394888 Z M12.1250081,40.7642795 L12.8377665,38.5849894 L12.8485863,38.5849894 L13.5410575,40.7642795 L12.1250081,40.7642795 Z M22.375475,18.7335646 C21.9142784,18.9982502 21.4557867,19.1836645 21.039222,19.3825147 C20.3913828,19.6539183 19.8192825,19.8662042 19.3432086,20.0207162 C19.5596058,20.5030621 19.744896,21.008249 19.8896116,21.5470254 C20.0343273,22.1019248 20.1668706,22.6689164 20.2006827,23.3151794 C19.5636633,23.1606674 19.0307851,22.9215098 18.5127842,22.6716035 C17.9920783,22.4190101 17.5173569,22.1341707 17.0737425,21.8211161 C16.1783989,21.2044119 15.4074837,20.4829084 14.7041927,19.7076615 C14.169962,19.1191726 14.0996329,18.2794338 14.4634508,17.6237658 L14.5405423,17.4920947 C15.1329297,16.4373828 15.8456882,15.4525372 16.7166871,14.5644294 C17.1467766,14.1170166 17.6255555,13.6991626 18.1557287,13.3108674 C18.4275778,13.1200787 18.7048367,12.9346644 18.9956205,12.755968 C19.2945192,12.5813023 19.6110002,12.4187289 19.9599407,12.2763092 C19.9937528,12.6471379 19.9991627,13.0031871 19.9815805,13.3458005 C19.9572358,13.6843832 19.9261287,14.016248 19.8842017,14.344082 C19.786823,14.990345 19.6380498,15.6057055 19.4432923,16.1955381 C19.4216526,16.2586864 19.3959554,16.317804 19.3770207,16.3809524 C19.5825981,16.35005 19.8003478,16.3151169 20.0343273,16.2734658 C20.3994976,16.186133 20.8160623,16.1202975 21.2285696,15.9859393 C21.6559541,15.8771091 22.0928061,15.7293151 22.532363,15.5533058 C22.9962646,15.4041682 23.4087718,15.154262 23.8767309,14.9513811 C24.2878856,14.6813211 24.7666645,14.4582865 25.1494171,14.1331396 C25.5565145,13.8241157 25.9663167,13.508374 26.2963225,13.1281402 C26.4707928,12.9427259 26.6655503,12.7707474 26.8210859,12.575928 C26.964449,12.3717035 27.1091647,12.1701662 27.2498229,11.9726597 C27.5663039,11.5870516 27.754299,11.1490439 27.9625813,10.7405949 C28.1952083,10.3375203 28.3291041,9.92369704 28.4413602,9.53405824 C28.5495588,9.14441945 28.7105043,8.79105737 28.7510788,8.46053618 C28.8038256,8.12867142 28.8484575,7.83980127 28.8876795,7.60198725 C28.970181,7.11964129 29.009403,6.84420697 29.009403,6.84420697 C29.009403,6.84420697 29.0310427,7.12098488 29.0567399,7.60736158 C29.0702647,7.85458068 29.0864945,8.15419948 29.1094867,8.4968129 C29.1392413,8.84480065 29.0648548,9.22772153 29.0364526,9.65632421 C29.006698,10.0862705 28.9580086,10.5551806 28.8119405,11.0334958 C28.6875121,11.5158418 28.5820184,12.0465567 28.3331616,12.543682 C28.224963,12.8003062 28.1113544,13.0623047 27.9977459,13.3269904 C27.8733174,13.5876453 27.7042571,13.8254593 27.555484,14.0820835 C27.2633477,14.6074241 26.8819476,15.0709599 26.4883751,15.5371829 C26.1083274,16.0208724 25.633606,16.3997625 25.2048689,16.8283652 C24.7274425,17.1844144 24.2757133,17.5928634 23.7888195,17.8857643 C23.316803,18.2068804 22.8407291,18.4957505 22.375475,18.7335646 Z M26.9779739,37.3394888 L30.9272235,37.3394888 L30.9272235,38.3189601 L28.1384041,38.3189601 L28.1384041,39.5631171 L30.580988,39.5631171 L30.580988,40.5385577 L28.1384041,40.5385577 L28.1384041,42.8575803 L26.9779739,42.8575803 L26.9779739,37.3394888 Z M19.6150576,37.3394888 L20.6983963,37.3394888 L20.6983963,42.8535496 L19.5366136,42.8535496 L17.2725575,38.9208849 L17.2549752,38.9208849 L17.2549752,42.8535496 L16.1743415,42.8535496 L16.1743415,37.3394888 L17.3942809,37.3394888 L19.6001803,41.1781027 L19.6137052,41.1781027 L19.6150576,37.3394888 L19.6150576,37.3394888 Z M41.2656019,41.6093926 C41.2656019,40.5802087 41.0140401,40.4109174 40.5609583,40.2120672 C41.1073614,40.0279965 41.4224899,39.5080302 41.4224899,38.8967004 C41.4224899,38.4210724 41.1506408,37.3394888 39.6737296,37.3394888 L36.8686804,37.3394888 L36.8686804,42.8535496 L38.0074709,42.8535496 L38.0074709,40.6971004 L39.2044181,40.6971004 C40.0605397,40.6971004 40.1105816,40.9900012 40.1105816,41.73972 C40.1105816,42.3067117 40.1552135,42.5942382 40.2336575,42.852206 L41.5131062,42.852206 L41.5131062,42.7084427 C41.2656019,42.6157355 41.2656019,42.4141982 41.2656019,41.6093926 Z M39.3640111,39.7700287 L38.0061184,39.7700287 L38.0061184,38.2920885 L39.447865,38.2920885 C40.1295163,38.2920885 40.2620596,38.7193476 40.2620596,39.0135921 C40.2620596,39.5563992 39.9685709,39.7700287 39.3640111,39.7700287 Z M26.0920976,41.1955693 C26.0920976,42.8495188 24.3893218,43 23.905133,43 C21.8791138,43 21.5342307,41.8431759 21.5342307,41.1566054 L22.6432666,41.1566054 C22.6513815,41.4642857 22.806917,42.0474003 23.8212791,42.0474003 C24.3663296,42.0474003 24.9790043,41.9130421 24.9790043,41.3366454 C24.9790043,40.904012 24.5597347,40.7911511 23.9741096,40.650075 L23.3803697,40.5103425 C22.4823211,40.306118 21.6180846,40.1032371 21.6180846,38.8886389 C21.6180846,38.2746219 21.9494429,37.1930384 23.75095,37.1930384 C25.4523733,37.1930384 25.9068075,38.2974628 25.9149224,38.9732846 L24.8058865,38.9732846 C24.7747794,38.7274091 24.6814581,38.145638 23.667096,38.145638 C23.2288916,38.145638 22.7000708,38.3055243 22.7000708,38.8039933 C22.7000708,39.2339395 23.0571263,39.3266467 23.2897533,39.3817335 L24.6395311,39.7122547 C25.395569,39.8949819 26.0920976,40.2053493 26.0920976,41.1955693 Z M32.8423392,41.878109 L35.9192375,41.878109 L35.9192375,42.8562367 L31.7062536,42.8562367 L31.7062536,37.342176 L35.7893991,37.342176 L35.7893991,38.3203037 L32.8423392,38.3203037 L32.8423392,39.4784714 L35.5473047,39.4784714 L35.5473047,40.453912 L32.8423392,40.453912 L32.8423392,41.878109 Z M23.356025,35.6358268 L21.2434469,35.6358268 L21.2434469,24.8697038 L23.627874,24.8697038 L27.9314742,32.3655481 L27.9598763,32.3655481 L27.9598763,24.8697038 L30.0724544,24.8697038 L30.0724544,35.6371704 L27.8111032,35.6371704 L23.3871321,27.9612861 L23.35873,27.9612861 L23.356025,35.6358268 L23.356025,35.6358268 Z" id="形状"></path>
                </g>
                <g id="poli-payments-pty-ltd-logo-vector" transform="translate(138.315789, 93.000000)">
                    <path d="M0.684210526,30 L0.684210526,3.00715764 L7.57423238,3.00715764 C10.1088282,3.00715764 12.4831909,2.94799525 13.6922222,3.16985423 C14.9012535,3.39171321 16.4890175,3.98333715 17.3047495,4.5157987 C18.4118143,5.19616623 19.2421129,6.21671753 19.8247786,7.562662 C20.4074443,8.90860647 20.6842105,10.5207817 20.6842105,12.3843971 C20.6842105,15.4608416 20.0287116,17.8717092 18.426381,19.4690938 C16.8240503,21.0664785 13.2843562,21.746846 10.196228,21.746846 L8.43366428,21.746846 L8.43366428,29.9852094 L0.684210526,29.9852094 L0.684210526,30 Z M8.38996435,16.8067861 C8.49193085,16.8215767 8.50649749,16.8215767 8.75413041,16.8363673 C11.1576264,16.9251109 11.783992,16.3186963 12.1627247,15.8601878 C12.7308238,15.1502391 12.7453904,13.5528544 12.7453904,12.0737946 C12.7453904,10.8461749 12.7890904,9.84041417 11.9150918,8.87902527 C11.3469928,8.24302953 9.93402844,8.03596115 8.38996435,8.03596115 L8.40453099,8.47967911 L8.40453099,16.8067861 L8.38996435,16.8067861 Z" id="形状" fill-rule="nonzero"></path>
                    <polygon id="路径" fill-rule="nonzero" points="71.6842105 30 54.6842105 30 54.6842105 3 63.0634921 3 63.0634921 21.9059081 71.6842105 21.9059081"></polygon>
                    <rect id="矩形" fill-rule="nonzero" x="72.6842105" y="12" width="8" height="18"></rect>
                    <rect id="矩形" fill-rule="nonzero" x="72.6842105" y="3" width="9" height="7"></rect>
                    <path d="M42.4092761,27.8820894 C43.5092098,27.4873246 44.5946706,26.6393114 45.5354033,25.7766773 C48.1839278,23.349605 50.9627075,19.2118854 50.7456153,14.1822898 C50.5140504,8.88951775 47.706325,5.49746492 43.9723397,3.37743191 C45.0578005,3.61136658 45.940642,4.34241245 46.7800651,5.02959557 C49.1825517,6.98879849 51.0061259,10.0299493 51.07849,14.3138781 C51.1797997,20.0014149 48.1839278,23.8905789 45.2170015,26.5662068 C46.1432614,26.0983375 46.8669019,25.2357033 47.5615969,24.3876901 C49.5298992,22.0044806 51.3390006,18.6124278 51.3390006,14.3723617 C51.3390006,8.40702747 47.9957812,4.9711119 44.102595,2.71949063 C45.3906752,3.09963448 46.5340273,3.8745431 47.4892328,4.69331447 C49.848301,6.71100106 51.9468587,10.263884 51.6574024,14.9718194 C51.382419,19.6212711 49.3417526,23.2911213 46.5774457,25.9667492 C43.8131388,28.6423771 40.0212623,30.5577173 35.6215277,30.9671029 C35.1873433,31.0109657 34.5071212,31.0109657 33.9861,30.9671029 C27.1838788,30.3968872 22.2486502,25.995991 21.727629,19.2411272 C21.6697377,18.5393232 21.6697377,17.8521401 21.727629,17.1357151 C22.031558,12.8810282 23.9130234,9.48897536 26.4168198,6.85721023 C29.1377083,4.00613135 32.5677645,1.8568565 37.358265,1.5205754 C37.4740475,0.994222379 37.6187756,0.380143851 37.6911397,0 C39.2686761,1.69602641 41.1790872,3.538262 43.1618623,5.52670676 C40.7738484,6.75486381 38.4581987,8.05612546 36.1280761,9.34276618 C36.1859673,8.86027591 36.287277,8.30468105 36.3162226,7.95377904 C32.3072539,8.67020399 28.9350889,11.6090084 28.240394,15.7174861 C27.3864981,20.7324608 30.7007719,24.5777621 35.4767996,24.6070039 C40.2962457,24.6362457 44.3920512,20.87867 45.1156918,16.5801203 C45.709077,13.1003419 44.1894319,10.6732697 42.2500752,9.07958967 C44.0591766,10.2931258 46.0274789,12.4716425 45.7669683,15.7321071 C45.3617296,20.8201863 40.6291203,25.0456314 35.6649461,25.0748732 C32.9585304,25.0894942 30.541571,23.875958 28.8193064,21.8436505 C30.4402613,24.22686 33.2769323,25.4842589 36.5043692,25.2649452 C39.0371111,25.0894942 41.1790872,23.8320953 42.7566236,22.296899 C44.3775784,20.7324608 45.6222402,18.5539441 45.9551148,16.3023228 C46.0708973,15.4543096 46.0853701,14.50395 45.9551148,13.5974531 C45.5643489,10.965688 43.9723397,9.73753095 42.5250586,8.05612546 C44.5801978,9.72291003 46.7511194,11.9306686 46.6063913,15.5127933 C46.3892992,20.7470817 41.4395978,25.3672916 36.2438586,25.7181936 C32.8427479,25.9521283 30.7441903,24.7824549 28.9495617,23.0864285 C30.6573534,25.2649452 33.8558447,26.3907558 37.2280097,25.8497819 C42.0185102,25.0894942 46.2879895,21.054121 46.8090107,16.0391463 C47.2721407,11.5212829 45.0143821,9.41587077 42.8434604,7.19349133 C45.1446374,8.96262233 47.1129397,10.9072043 47.2576678,14.5185709 C47.3879231,17.6474472 45.868278,20.7178399 43.9289213,22.6770428 C40.8317397,25.8059191 34.7965774,27.8674685 30.1073866,24.9871477 C34.1018825,28.0721613 40.2962457,26.3030303 43.5960466,23.2765004 C45.9840605,21.0833628 47.7352706,18.1591793 47.4458144,13.802146 C47.2142494,10.2931258 45.2459471,8.49475298 43.0171342,6.62327556 C45.3183111,7.80756986 47.5181784,10.1907794 47.8365803,13.5974531 C48.2562918,18.0714538 46.2156254,21.3904021 43.7263019,23.5981606 C40.73043,26.2737885 36.5043692,27.8674685 31.7283415,26.6246905 C39.6015507,29.1102464 46.9682116,23.1887749 48.0247268,16.3608065 C48.777313,11.4481783 46.2879895,8.55323665 43.9144485,6.47706638 C43.6684107,6.27237354 43.5381554,6.11154345 43.2052807,5.8191251 C46.5919185,7.60287702 49.3996439,11.5212829 48.2852374,17.0772315 C46.9971572,23.5396769 40.5857019,28.7885863 32.3217267,27.41422 C33.5229701,27.8967103 34.9268327,27.7943639 36.1425489,27.7358802 C39.9054798,27.5311874 43.3065904,25.6304681 45.1301646,23.5835397 C47.3445047,21.0979837 49.0957149,17.9691074 48.7483674,13.451244 C48.4444384,9.37200802 46.1866798,7.41280509 43.4223729,5.24890933 C44.5801978,5.67291593 45.5932946,6.4916873 46.4182448,7.41280509 C47.8076347,8.9333805 48.9365139,11.0095508 49.1246605,13.5974531 C49.4575351,18.2469048 47.3445047,21.7120623 45.0143821,24.1391345 C42.5395314,26.7270369 39.1818392,28.3792006 34.9123599,28.4230633 C41.5987987,28.6277562 46.0564245,24.4754156 48.2128734,19.8698267 C49.4430623,17.2234406 49.8048826,13.4951067 48.8062586,10.5855442 C47.8799987,7.89529537 45.7524955,6.05305978 43.6539379,4.56172621 C47.3155591,6.53555005 50.3837951,10.2346421 49.7180457,15.9806627 C49.4720079,18.1591793 48.777313,19.9429313 47.8076347,21.580474 C45.8103867,24.9579059 42.5540042,27.3411154 38.892383,28.6277562 C41.5987987,28.0282985 44.1749591,26.3907558 46.0564245,24.2853437 C48.3720743,21.6974413 50.1522301,18.4223559 50.0364476,13.8898715 C49.9061923,8.99186417 46.9103204,6.17002712 43.8420844,3.94764768 C43.8855028,3.94764768 43.9433941,3.97688952 43.9578669,3.97688952 C47.3010863,5.62905318 49.8338282,8.50937389 50.3548494,12.9687537 C51.2666365,20.0598986 46.6642826,25.2064615 42.4092761,27.8820894" id="路径"></path>
                </g>
            </g>
        </g>
    </g>
</svg>