<?xml version="1.0" encoding="UTF-8"?>
<svg width="14px" height="14px" viewBox="0 0 14 14" version="1.1" xmlns="http://www.w3.org/2000/svg" xmlns:xlink="http://www.w3.org/1999/xlink">
    <title>whatsapp</title>
    <defs>
        <polygon id="path-1" points="0 0 14 0 14 14 0 14"></polygon>
    </defs>
    <g id="é¡µé¢-1" stroke="none" stroke-width="1" fill="none" fill-rule="evenodd">
        <g id="01-CoinByte" transform="translate(-1307.000000, -6911.000000)">
            <g id="whatsapp" transform="translate(1307.000000, 6911.000000)">
                <mask id="mask-2" fill="white">
                    <use xlink:href="#path-1"></use>
                </mask>
                <g id="Clip-2"></g>
                <path d="M6.99823485,0 L7.00177245,0 C10.8616702,0 14,3.14005754 14,7.00004272 C14,10.8599425 10.861072,14 7.00177245,14 C5.57844382,14 4.25779104,13.5759663 3.15175267,12.8438365 L0.460835259,13.7036617 L1.33294769,11.1026014 C0.464646297,9.91111317 -0.0021289321,8.4742999 4.97170901e-15,7.00004272 C4.97170901e-15,3.14005754 3.13893528,0 6.99823485,0 Z M4.99564556,3.84769757 C4.86207125,3.52859562 4.76059168,3.516308 4.55819652,3.50815614 C4.48129217,3.50314881 4.4042511,3.50041443 4.32721003,3.50002136 C4.06351356,3.50002136 3.78821307,3.57699411 3.62131354,3.74674774 C3.42011467,3.9526977 2.91669879,4.43335014 2.91669879,5.42088796 C2.91669879,6.40736622 3.63828377,7.36166426 3.73508071,7.49523864 C3.83661155,7.62828324 5.14212271,9.68274131 7.16800548,10.51982 C8.75295287,11.1749087 9.22312898,11.1142909 9.58420346,11.0372498 C10.1109299,10.9240978 10.7712819,10.5355597 10.9375149,10.0671949 C11.103748,9.59763379 11.103748,9.19742334 11.0553495,9.11223036 C11.0063358,9.02765262 10.8727615,8.97925413 10.6703492,8.8777916 C10.4673388,8.77684177 9.48267262,8.29152379 9.29601722,8.2267703 C9.11344629,8.15854756 8.93960828,8.18243919 8.80194949,8.37669968 C8.60709096,8.64733477 8.41696631,8.92265249 8.26235439,9.08833873 C8.14105059,9.21784572 7.94212467,9.23420073 7.77642143,9.16537984 C7.5535868,9.07198373 6.929414,8.85381452 6.15883241,8.17015157 C5.56328512,7.64050249 5.15787956,6.98134641 5.04057479,6.78359959 C4.92275732,6.58120432 5.02835554,6.46389949 5.12168324,6.35483198 C5.22263302,6.22946073 5.32002811,6.14073015 5.42149058,6.02351077 C5.52303851,5.90629139 5.57904196,5.84560528 5.64432521,5.70794642 C5.71316315,5.57437204 5.66476468,5.43664482 5.61576806,5.33578044 C5.56736959,5.23483061 5.16194694,4.24783966 4.99564556,3.84822735 L4.99564556,3.84769757 Z" id="Fill-1" fill="#909090" mask="url(#mask-2)"></path>
            </g>
        </g>
    </g>
</svg>