<?xml version="1.0" encoding="UTF-8"?>
<svg width="344px" height="286px" viewBox="0 0 344 286" version="1.1" xmlns="http://www.w3.org/2000/svg" xmlns:xlink="http://www.w3.org/1999/xlink">
    <title>形状结合</title>
    <g id="页面-1" stroke="none" stroke-width="1" fill="none" fill-rule="evenodd">
        <g id="03-Home-Totally-reliable" transform="translate(0.000000, -1555.000000)" fill="#FFFFFF" fill-rule="nonzero">
            <path d="M305,1673.7 C306.546397,1673.7 307.8,1674.9536 307.8,1676.5 C307.8,1677.98912 306.637537,1679.20674 305.170568,1679.29489 L305,1679.3 L296.8,1679.3 L296.8,1694.5 C296.8,1695.98912 295.637537,1697.20674 294.170568,1697.29489 L294,1697.3 L286.799,1697.299 L286.8,1791.5 C286.8,1791.74178 286.769354,1791.97641 286.711735,1792.2002 L294,1792.2 L294.170568,1792.20511 C295.581115,1792.28987 296.710129,1793.41888 296.79489,1794.82943 L296.8,1795 L296.8,1810.199 L305,1810.2 C306.489123,1810.2 307.706739,1811.36246 307.79489,1812.82943 L307.8,1813 L307.8,1823.199 L319,1823.2 C320.489123,1823.2 321.706739,1824.36246 321.79489,1825.82943 L321.8,1826 L321.8,1834.699 L341,1834.7 C342.546397,1834.7 343.8,1835.9536 343.8,1837.5 C343.8,1838.98912 342.637537,1840.20674 341.170568,1840.29489 L341,1840.3 L3,1840.3 C1.4536027,1840.3 0.2,1839.0464 0.2,1837.5 C0.2,1836.01088 1.36246286,1834.79326 2.82943181,1834.70511 L3,1834.7 L22.2,1834.699 L22.2,1826 C22.2,1824.51088 23.3624629,1823.29326 24.8294318,1823.20511 L25,1823.2 L37.2,1823.199 L37.2,1813 C37.2,1811.51088 38.3624629,1810.29326 39.8294318,1810.20511 L40,1810.2 L47.2,1810.199 L47.2,1795 L47.20511,1794.82943 C47.2898707,1793.41888 48.4188847,1792.28987 49.8294318,1792.20511 L50,1792.2 L57.2,1792.199 L57.2,1697.299 L50,1697.3 C48.5108767,1697.3 47.2932611,1696.13754 47.20511,1694.67057 L47.2,1694.5 L47.2,1679.3 L40,1679.3 C38.4536027,1679.3 37.2,1678.0464 37.2,1676.5 C37.2,1675.01088 38.3624629,1673.79326 39.8294318,1673.70511 L40,1673.7 L305,1673.7 Z M316.2,1828.8 L27.8,1828.8 L27.8,1834.699 L316.2,1834.699 L316.2,1828.8 Z M302.2,1815.8 L42.8,1815.8 L42.8,1823.199 L302.2,1823.199 L302.2,1815.8 Z M255.2,1679.3 L88.8,1679.3 L88.8,1694.5 C88.8,1695.98912 87.6375371,1697.20674 86.1705682,1697.29489 L86,1697.3 L78.8,1697.299 L78.8,1792.199 L86,1792.2 L86.1705682,1792.20511 C87.5811153,1792.28987 88.7101293,1793.41888 88.79489,1794.82943 L88.8,1795 L88.8,1810.199 L255.2,1810.199 L255.2,1795 L255.20511,1794.82943 C255.289871,1793.41888 256.418885,1792.28987 257.829432,1792.20511 L258,1792.2 L265.288265,1792.2002 C265.244295,1792.02942 265.216032,1791.85233 265.20511,1791.67057 L265.2,1791.5 L265.199,1697.299 L258,1697.3 C256.510877,1697.3 255.293261,1696.13754 255.20511,1694.67057 L255.2,1694.5 L255.2,1679.3 Z M83.2,1797.801 L52.8,1797.801 L52.8,1810.199 L83.2,1810.199 L83.2,1797.801 Z M291.2,1797.801 L260.8,1797.801 L260.8,1810.199 L291.2,1810.199 L291.2,1797.801 Z M281.199,1697.299 L270.799,1697.299 L270.8,1791.5 C270.8,1791.74178 270.769354,1791.97641 270.711735,1792.2002 L281.288265,1792.2002 C281.244295,1792.02942 281.216032,1791.85233 281.20511,1791.67057 L281.2,1791.5 L281.199,1697.299 Z M73.2,1697.299 L62.8,1697.299 L62.8,1792.199 L73.2,1792.199 L73.2,1697.299 Z M172.5,1697 C198.733526,1697 220,1718.26647 220,1744.5 C220,1770.73353 198.733526,1792 172.5,1792 C146.266474,1792 125,1770.73353 125,1744.5 C125,1718.26647 146.266474,1697 172.5,1697 Z M178.2864,1734 C177.595733,1734 177.063733,1734.18667 176.6904,1734.56 C176.3544,1734.896 176.1696,1735.37564 176.136,1735.99892 L176.1304,1736.212 L176.1304,1745.76 C176.1304,1747.36533 175.771067,1748.574 175.0524,1749.386 C174.333733,1750.198 173.283733,1750.604 171.9024,1750.604 C170.521067,1750.604 169.4664,1750.198 168.7384,1749.386 C168.058933,1748.62813 167.696551,1747.52473 167.651253,1746.07578 L167.6464,1745.76 L167.6464,1736.212 C167.6464,1735.484 167.459733,1734.93333 167.0864,1734.56 C166.713067,1734.18667 166.181067,1734 165.4904,1734 C164.781067,1734 164.239733,1734.18667 163.8664,1734.56 C163.5304,1734.896 163.3456,1735.37564 163.312,1735.99892 L163.3064,1736.212 L163.3064,1745.732 C163.3064,1747.15067 163.4884,1748.39667 163.8524,1749.47 C164.2164,1750.54333 164.7624,1751.43467 165.4904,1752.144 C166.2184,1752.85333 167.119067,1753.39 168.1924,1753.754 C169.265733,1754.118 170.5024,1754.3 171.9024,1754.3 C173.769067,1754.3 175.3324,1753.98267 176.5924,1753.348 C177.8524,1752.71333 178.8044,1751.75667 179.4484,1750.478 C180.0464,1749.29067 180.366757,1747.84179 180.409471,1746.13136 L180.4144,1745.732 L180.4144,1736.212 C180.4144,1735.484 180.2324,1734.93333 179.8684,1734.56 C179.5044,1734.18667 178.977067,1734 178.2864,1734 Z M150.9304,1734 C150.389067,1734 149.913067,1734.14467 149.5024,1734.434 C149.143067,1734.68717 148.826608,1735.07253 148.553025,1735.59009 L148.4384,1735.82 L141.2704,1751.528 C141.027733,1752.032 140.9484,1752.48933 141.0324,1752.9 C141.1164,1753.31067 141.321733,1753.63733 141.6484,1753.88 C141.975067,1754.12267 142.399733,1754.244 142.9224,1754.244 C143.519733,1754.244 143.9724,1754.09933 144.2804,1753.81 C144.5499,1753.55683 144.808681,1753.16432 145.056744,1752.63247 L145.1624,1752.396 L146.3034,1749.709 L155.5384,1749.709 L156.6984,1752.396 C156.927067,1752.95133 157.18789,1753.37804 157.480869,1753.67612 L157.6084,1753.796 C157.953733,1754.09467 158.443733,1754.244 159.0784,1754.244 C159.5824,1754.244 159.993067,1754.12733 160.3104,1753.894 C160.627733,1753.66067 160.819067,1753.334 160.8844,1752.914 C160.941567,1752.5465 160.880827,1752.14684 160.702181,1751.71503 L160.6184,1751.528 L153.3944,1735.82 C153.1144,1735.18533 152.769067,1734.72333 152.3584,1734.434 C151.947733,1734.14467 151.471733,1734 150.9304,1734 Z M191.9784,1734.252 L186.5184,1734.252 C185.7904,1734.252 185.2304,1734.448 184.8384,1734.84 C184.4856,1735.1928 184.29156,1735.68168 184.25628,1736.30664 L184.2504,1736.52 L184.2504,1751.724 C184.2504,1752.452 184.4464,1753.012 184.8384,1753.404 C185.1912,1753.7568 185.68008,1753.95084 186.30504,1753.98612 L186.5184,1753.992 L191.9784,1753.992 C193.677067,1753.992 195.179733,1753.77267 196.4864,1753.334 C197.793067,1752.89533 198.8944,1752.256 199.7904,1751.416 C200.6864,1750.576 201.3724,1749.54467 201.8484,1748.322 C202.3244,1747.09933 202.5624,1745.69467 202.5624,1744.108 C202.5624,1740.95333 201.643067,1738.522 199.8044,1736.814 C198.03928,1735.17432 195.564528,1734.32169 192.380144,1734.2561 L191.9784,1734.252 Z M191.7264,1737.808 C193.817067,1737.808 195.389733,1738.326 196.4444,1739.362 C197.499067,1740.398 198.0264,1741.98 198.0264,1744.108 C198.0264,1745.172 197.895733,1746.10067 197.6344,1746.894 C197.373067,1747.68733 196.981067,1748.34533 196.4584,1748.868 C195.935733,1749.39067 195.2824,1749.78267 194.4984,1750.044 C193.7144,1750.30533 192.7904,1750.436 191.7264,1750.436 L188.5904,1750.436 L188.5904,1737.808 L191.7264,1737.808 Z M150.9304,1738.872 L154.0804,1746.32 L147.7484,1746.32 L150.8744,1738.872 L150.9304,1738.872 Z M83.2,1679.3 L52.8,1679.3 L52.8,1691.7 L83.2,1691.7 L83.2,1679.3 Z M291.2,1679.3 L260.8,1679.3 L260.8,1691.7 L291.2,1691.7 L291.2,1679.3 Z M174.283444,1555.84133 L174.427761,1555.9693 L282.644,1658.7 L305,1658.7 C306.546397,1658.7 307.8,1659.9536 307.8,1661.5 C307.8,1662.98912 306.637537,1664.20674 305.170568,1664.29489 L305,1664.3 L40,1664.3 C38.4536027,1664.3 37.2,1663.0464 37.2,1661.5 C37.2,1660.01088 38.3624629,1658.79326 39.8294318,1658.70511 L40,1658.7 L62.355,1658.7 L170.572239,1555.9693 C171.605768,1554.98816 173.201066,1554.94551 174.283444,1555.84133 Z M172.5,1561.86 L70.488,1658.7 L81.8547415,1658.70013 C81.8886248,1658.65985 81.9238137,1658.62032 81.9603062,1658.5816 L82.0965076,1658.44654 L171.096508,1575.94654 C172.127885,1574.99048 173.698527,1574.95322 174.771853,1575.83181 L174.915035,1575.9573 L262.915035,1658.4573 C262.997462,1658.53457 263.074171,1658.61566 263.145147,1658.70003 L274.511,1658.7 L172.5,1561.86 Z M172.989,1581.828 L90.06,1658.7 L254.986,1658.7 L172.989,1581.828 Z M195,1631.6 C196.601626,1631.6 197.9,1632.89837 197.9,1634.5 C197.9,1636.04442 196.692711,1637.30687 195.170397,1637.39508 L195,1637.4 L150,1637.4 C148.398374,1637.4 147.1,1636.10163 147.1,1634.5 C147.1,1632.95558 148.307289,1631.69313 149.829603,1631.60492 L150,1631.6 L195,1631.6 Z" id="形状结合"></path>
        </g>
    </g>
</svg>