<?xml version="1.0" encoding="UTF-8"?>
<svg width="273px" height="301px" viewBox="0 0 273 301" version="1.1" xmlns="http://www.w3.org/2000/svg" xmlns:xlink="http://www.w3.org/1999/xlink">
    <title>Fiat markets备份 2</title>
    <defs>
        <polygon id="path-1" points="0 0 18.8812261 0 18.8812261 31.7793103 0 31.7793103"></polygon>
        <polygon id="path-3" points="0.97826087 0 33.9782609 0 33.9782609 35 0.97826087 35"></polygon>
    </defs>
    <g id="页面-1" stroke="none" stroke-width="1" fill="none" fill-rule="evenodd">
        <g id="02-Home-Sell-&amp;-Fiat-markets" transform="translate(-1151.000000, -1936.000000)">
            <g id="Fiat-markets备份-2" transform="translate(1151.000000, 1936.000000)">
                <g id="编组-19" transform="translate(26.846154, 21.076923)">
                    <path d="M0.00081795367,62.9098334 C0.0014587076,62.8881449 0.00244669193,62.8664683 0.00378129044,62.8448133 L0,62.9677419 C0,62.9116881 0.00230598256,62.8561729 0.00682825752,62.801286 C0.00916560588,62.7743618 0.0120065995,62.7469012 0.0154065587,62.7195053 C0.0237262037,62.6512308 0.0355121194,62.5845723 0.0505077499,62.519138 C0.0585270914,62.484073 0.0674997703,62.4490118 0.0774200485,62.4141875 C0.0820267277,62.3987754 0.0865376678,62.383765 0.091219056,62.36883 C0.195831607,62.0306436 0.391452617,61.7165111 0.67499482,61.4679672 C0.686371928,61.4595413 0.696301841,61.450942 0.706316573,61.4424396 C0.730626367,61.4206057 0.757103277,61.3994237 0.784274156,61.3788015 C0.811277025,61.358851 0.837916678,61.3394707 0.865041642,61.3207431 C0.913394273,61.2874769 0.963898838,61.2559797 1.01639752,61.2263269 L0.887387741,61.3055364 C0.937099318,61.2721956 0.988389272,61.2410257 1.04112188,61.2121626 L108.956486,0.258585014 C109.566901,-0.0861950047 110.313277,-0.0861950047 110.923691,0.258585014 L110.923691,0.258585014 L218.861139,61.2244321 C218.896941,61.2446213 218.932059,61.2658814 218.966449,61.2881691 C219.523222,61.6459983 219.826712,62.2168989 219.873723,62.8061632 C219.874085,62.8104191 219.874394,62.8144477 219.874692,62.8184796 L219.880178,62.9677419 L219.880178,194.282878 C219.880178,194.948677 219.549257,195.566865 219.004387,195.937034 L218.86378,196.024293 L110.923691,256.992035 C110.364145,257.308084 109.690353,257.334421 109.111765,257.071047 L108.956486,256.992035 L1.01639752,196.024293 C0.436681763,195.696853 0.0611676233,195.104692 0.00682648782,194.44822 L0,194.282878 Z M215.88,66.525 L110.979462,130.334024 C110.354454,130.714203 109.571746,130.722807 108.938531,130.356461 L108.938531,130.356461 L19.7706321,78.7683716 C19.7021314,78.7287406 19.6360434,78.6850786 19.5727167,78.6376162 L19.5727167,78.6376162 L4,66.966 L4,193.115 L109.94,252.953 L215.88,193.115 L215.88,66.525 Z M109.94,4.297 L5.649,63.203 L21.881,75.368 L109.913,126.3 L213.926,63.031 L109.94,4.297 Z" id="形状结合" fill="#FFFFFF" fill-rule="nonzero"></path>
                    <line x1="109.940089" y1="128.62531" x2="109.940089" y2="255.25062" id="路径-56" stroke="#FFFFFF" stroke-width="4" stroke-linecap="round" stroke-linejoin="round"></line>
                </g>
                <ellipse id="椭圆形" fill="#FFFFFF" cx="28.1697613" cy="84.375" rx="28.1697613" ry="28.125"></ellipse>
                <ellipse id="椭圆形备份-2" fill="#FFFFFF" cx="244.137931" cy="84.375" rx="28.1697613" ry="28.125"></ellipse>
                <ellipse id="椭圆形备份-5" fill="#FFFFFF" cx="244.137931" cy="215.625" rx="28.1697613" ry="28.125"></ellipse>
                <ellipse id="椭圆形备份-6" fill="#FFFFFF" cx="28.1697613" cy="215.625" rx="28.1697613" ry="28.125"></ellipse>
                <ellipse id="椭圆形备份" fill="#FFFFFF" cx="136.153846" cy="23.4375" rx="23.4748011" ry="23.4375"></ellipse>
                <ellipse id="椭圆形备份-3" fill="#FFFFFF" cx="136.153846" cy="276.5625" rx="23.4748011" ry="23.4375"></ellipse>
                <ellipse id="椭圆形备份-4" fill="#FFFFFF" cx="136.153846" cy="145.3125" rx="32.8647215" ry="32.8125"></ellipse>
                <path d="M127.204457,152.906 C127.600457,152.906 127.923124,152.814333 128.172457,152.631 C128.42179,152.447667 128.572124,152.191 128.623457,151.861 C128.67479,151.531 128.605124,151.168 128.414457,150.772 L128.414457,150.772 L122.738457,138.43 C122.518457,137.931333 122.247124,137.568333 121.924457,137.341 C121.60179,137.113667 121.22779,137 120.802457,137 C120.377124,137 120.003124,137.113667 119.680457,137.341 C119.35779,137.568333 119.079124,137.931333 118.844457,138.43 L118.844457,138.43 L113.212457,150.772 C113.02179,151.168 112.959457,151.527333 113.025457,151.85 C113.091457,152.172667 113.25279,152.429333 113.509457,152.62 C113.766124,152.810667 114.09979,152.906 114.510457,152.906 C114.97979,152.906 115.335457,152.792333 115.577457,152.565 C115.819457,152.337667 116.050457,151.967333 116.270457,151.454 L116.270457,151.454 L117.166457,149.342 L124.421457,149.342 L125.334457,151.454 C125.510457,151.881429 125.710702,152.211878 125.935192,152.445347 L126.049457,152.554 C126.32079,152.788667 126.70579,152.906 127.204457,152.906 Z M123.277457,146.681 L118.301457,146.681 L120.758457,140.828 L120.802457,140.828 L123.277457,146.681 Z M137.280457,152.95 C138.747124,152.95 139.975457,152.700667 140.965457,152.202 C141.955457,151.703333 142.703457,150.951667 143.209457,149.947 C143.715457,148.942333 143.968457,147.699333 143.968457,146.218 L143.968457,146.218 L143.968457,138.738 C143.968457,138.166 143.825457,137.733333 143.539457,137.44 C143.253457,137.146667 142.839124,137 142.296457,137 C141.75379,137 141.33579,137.146667 141.042457,137.44 C140.749124,137.733333 140.602457,138.166 140.602457,138.738 L140.602457,138.738 L140.602457,146.24 C140.602457,147.501333 140.320124,148.451 139.755457,149.089 C139.19079,149.727 138.36579,150.046 137.280457,150.046 C136.195124,150.046 135.366457,149.727 134.794457,149.089 C134.222457,148.451 133.936457,147.501333 133.936457,146.24 L133.936457,146.24 L133.936457,138.738 C133.936457,138.166 133.78979,137.733333 133.496457,137.44 C133.203124,137.146667 132.785124,137 132.242457,137 C131.685124,137 131.25979,137.146667 130.966457,137.44 C130.673124,137.733333 130.526457,138.166 130.526457,138.738 L130.526457,138.738 L130.526457,146.218 C130.526457,147.332667 130.669457,148.311667 130.955457,149.155 C131.241457,149.998333 131.670457,150.698667 132.242457,151.256 C132.814457,151.813333 133.522124,152.235 134.365457,152.521 C135.20879,152.807 136.180457,152.95 137.280457,152.95 Z M153.054457,152.708 C154.389124,152.708 155.56979,152.535667 156.596457,152.191 C157.623124,151.846333 158.488457,151.344 159.192457,150.684 C159.896457,150.024 160.435457,149.213667 160.809457,148.253 C161.183457,147.292333 161.370457,146.188667 161.370457,144.942 C161.370457,142.463333 160.648124,140.553 159.203457,139.211 C157.75879,137.869 155.709124,137.198 153.054457,137.198 L153.054457,137.198 L148.764457,137.198 C148.192457,137.198 147.752457,137.352 147.444457,137.66 C147.136457,137.968 146.982457,138.408 146.982457,138.98 L146.982457,138.98 L146.982457,150.926 C146.982457,151.498 147.136457,151.938 147.444457,152.246 C147.752457,152.554 148.192457,152.708 148.764457,152.708 L148.764457,152.708 L153.054457,152.708 Z M152.856457,149.914 L150.392457,149.914 L150.392457,139.992 L152.856457,139.992 C154.499124,139.992 155.73479,140.399 156.563457,141.213 C157.392124,142.027 157.806457,143.27 157.806457,144.942 C157.806457,145.778 157.70379,146.507667 157.498457,147.131 C157.293124,147.754333 156.985124,148.271333 156.574457,148.682 C156.16379,149.092667 155.650457,149.400667 155.034457,149.606 C154.418457,149.811333 153.692457,149.914 152.856457,149.914 L152.856457,149.914 Z" id="AUD" fill="#000000" fill-rule="nonzero" transform="translate(137.185229, 144.975000) rotate(1.000000) translate(-137.185229, -144.975000) "></path>
                <g id="ETH" transform="translate(235.000000, 68.000000)">
                    <mask id="mask-2" fill="white">
                        <use xlink:href="#path-1"></use>
                    </mask>
                    <g id="Clip-2"></g>
                    <path d="M9.44061303,0 L9.44061303,13.1205466 L0,16.0708321 L9.44061303,0 Z M9.44061303,0 L9.44061303,13.1205466 L18.8812261,16.0708321 L9.44061303,0 Z M9.44061303,31.7793103 L9.44061303,22.6498907 L0,17.4230167 L9.44061303,31.7793103 Z M9.44061303,31.7793103 L9.44061303,22.6498907 L18.8812261,17.4230167 L9.44061303,31.7793103 Z" id="Fill-1" fill="#1C242C" mask="url(#mask-2)"></path>
                    <path d="M0,16.2623643 L9.44061303,11.9172414 L9.44061303,20.8551724 L0,16.2623643 Z M18.8812261,16.2623643 L9.44061303,11.9172414 L9.44061303,20.8551724 L18.8812261,16.2623643 Z" id="Fill-3" fill="#1C242C" mask="url(#mask-2)"></path>
                </g>
                <path d="M35.215341,215.217168 C36.8636212,214.386161 37.9125437,212.909011 37.6690558,210.453417 C37.3504856,207.092988 34.5508203,205.966742 30.8422548,205.652899 L30.8422548,201 L27.9575137,201 L27.9575137,205.523553 C27.2082515,205.523553 26.4402652,205.54201 25.6724646,205.560467 L25.6724646,201 L22.7878721,201 L22.7878721,205.652899 C21.7273213,205.684503 20.4920492,205.669049 17,205.652899 L17,208.680844 C19.2773959,208.64122 20.4724706,208.496896 20.7461623,209.9364 L20.7461623,222.676418 C20.5722955,223.818558 19.6451169,223.654019 17.5806336,223.617984 L17,226.99687 C22.2594728,226.99687 22.7878721,227.015327 22.7878721,227.015327 L22.7878721,231 L25.6724646,231 L25.6724646,227.070662 C26.4591379,227.089119 27.2271242,227.089119 27.9576623,227.089119 L27.9576623,231 L30.8422548,231 L30.8422548,227.015327 C35.6747879,226.756819 38.9053309,225.556744 39.3362087,221.069959 C39.6733173,217.469625 37.9499919,215.863312 35.215341,215.217168 Z M26.2787524,208.664034 C27.865954,208.664034 32.82846,208.139985 32.82846,211.653077 C32.82846,215.010799 27.8660987,214.622679 26.2787524,214.622679 L26.2787524,208.664034 Z M25.7329435,223.348792 L25.7329435,216.846816 C27.6141092,216.846816 33.374269,216.288954 33.374269,220.097881 C33.374269,223.772083 27.6141092,223.348792 25.7329435,223.348792 Z" id="Fill-1" fill="#1C242C"></path>
                <g id="ADA" transform="translate(13.563545, 65.461538)">
                    <mask id="mask-4" fill="white">
                        <use xlink:href="#path-3"></use>
                    </mask>
                    <g id="Clip-2"></g>
                    <path d="M15.9811076,12.1224374 C14.9014797,12.6912742 14.5247645,13.9623942 15.1396139,14.9614082 C15.7546485,15.960285 17.1283397,16.3085972 18.2076711,15.7397604 C19.287299,15.1706493 19.6640142,13.8997008 19.049276,12.9006868 C18.4342413,11.90181 17.060439,11.5532234 15.9811076,12.1223345 M13.8224078,8.58793974 C13.0595631,8.99023416 12.7930382,9.88879457 13.2279434,10.594919 C13.6624409,11.3010778 14.6337688,11.5474617 15.3967617,11.1451329 C16.1600511,10.7428385 16.4261312,9.8443124 15.9916708,9.13815366 C15.5568768,8.43199492 14.5858454,8.18547384 13.8227043,8.58793974 M13.8224078,25.0081711 C13.0595631,25.4104998 12.7930382,26.3090259 13.2279434,27.0151846 C13.6624409,27.7214463 14.6337688,27.9679674 15.3967617,27.5653986 C16.1600511,27.1633442 16.4261312,26.2645437 15.9916708,25.5585222 C15.5568768,24.8523634 14.5858454,24.6060138 13.8227043,25.0081711 M21.4727588,12.6524509 C20.7096176,13.0547453 20.4433522,13.9532714 20.8781462,14.6594302 C21.0867406,14.9985167 21.4326188,15.2470269 21.8393186,15.3501899 C22.2461666,15.4534558 22.6804788,15.4028346 23.0470756,15.2096441 C23.8100685,14.8074526 24.0765934,13.9087893 23.6416882,13.2026648 C23.2069313,12.4965061 22.2358629,12.2502594 21.4727588,12.6524509 M6.01442494,20.8746903 C5.25143205,21.2771219 4.98505539,22.1755108 5.41981234,22.8816695 C5.85460636,23.5879655 6.82563768,23.8343494 7.58877883,23.4318835 C8.35191997,23.0297262 8.61844489,22.1310629 8.18339143,21.4249042 C7.74859741,20.7190198 6.77756609,20.4726359 6.01442494,20.8748274 M5.9094606,12.6524509 C5.14631946,13.0547453 4.8799428,13.9532714 5.31469975,14.6594302 C5.52347945,14.9985167 5.86920945,15.2470269 6.27605745,15.3501899 C6.6827572,15.4534558 7.11721764,15.4028346 7.48366623,15.2096441 C8.24680738,14.8074526 8.51303579,13.9087893 8.07827883,13.2026648 C7.64348482,12.4965061 6.67245349,12.2502594 5.9094606,12.6524509 M21.4727588,20.7774262 C20.7096176,21.1797207 20.4433522,22.0782468 20.8781462,22.7844055 C21.3129031,23.4905643 22.2839345,23.7370853 23.0470756,23.3346194 C23.8100685,22.932325 24.0765934,22.0337989 23.6416882,21.3276402 C23.2069313,20.6214814 22.2358629,20.3750975 21.4727588,20.7774262 M25.4988009,17.0155448 C25.1062965,17.2224194 24.8628994,17.6072914 24.860284,18.0252934 C24.8577104,18.4432612 25.0962893,18.8307054 25.4861992,19.0416956 C25.8760721,19.2528573 26.3580482,19.2553952 26.7504043,19.0485548 C27.3571738,18.7286399 27.5686962,18.0142844 27.2231144,17.4528213 C26.8773844,16.8914954 26.1054221,16.695767 25.4988009,17.0155448 M2.2062802,17.0155448 C1.91499674,17.1690888 1.70143583,17.423498 1.61281657,17.7226295 C1.52408612,18.0219324 1.56752475,18.3414358 1.73357004,18.6110039 C1.98664084,19.0221468 2.48251579,19.2517598 2.98984343,19.1927018 C3.497134,19.1336094 3.91613889,18.7976096 4.05134719,18.3413329 C4.1864443,17.885022 4.01139255,17.3982903 3.60747257,17.1080073 C3.20366379,16.8178272 2.65059958,16.7813703 2.2062802,17.0155448 M19.1640622,8.74642248 C19.1556858,9.16428737 19.3889276,9.55450952 19.7759094,9.77009543 C20.1629284,9.98578423 20.6447562,9.99394672 21.0400033,9.79163344 C21.4352503,9.58935446 21.6838364,9.20726051 21.6922128,8.78942991 C21.705111,8.1434267 21.1494523,7.61008651 20.4513209,7.59815143 C19.7533377,7.58638784 19.1769604,8.10041927 19.1640622,8.74642248 M7.26432338,27.2746697 C7.25605818,27.6926718 7.48929991,28.0829282 7.87631885,28.2984798 C8.26315246,28.5140314 8.74512854,28.5223311 9.14037561,28.3200521 C9.53562268,28.1177389 9.78420878,27.7356792 9.79247398,27.3178143 C9.80537214,26.6718111 9.24982466,26.1384709 8.5516932,26.1265701 C7.85356175,26.114635 7.27722154,26.6286665 7.26432338,27.2746697 M7.96304785,9.74475054 C8.40592175,9.98122283 8.95913422,9.94757826 9.36479619,9.65942159 C9.7703099,9.37140211 9.94840087,8.88549357 9.81593529,8.42849671 C9.68343264,7.97139697 9.26646625,7.63327074 8.75962044,7.57164047 C8.25258931,7.5100102 7.75541713,7.73708534 7.49986306,8.14689062 C7.15094559,8.7065017 7.35827981,9.42188612 7.96304785,9.74475054 M19.7297281,28.3457743 C20.0201591,28.500896 20.3651849,28.5428402 20.6890473,28.4624499 C21.0129097,28.3820597 21.2890341,28.1859197 21.4565249,27.9171747 C21.6241639,27.6485668 21.669641,27.3292006 21.5827638,27.0295205 C21.4959236,26.7299432 21.2839564,26.4744708 20.9935254,26.3194862 C20.3892021,25.9994341 19.6189818,26.1919387 19.2707686,26.7500407 C18.9227406,27.3081771 19.1278881,28.021538 19.7297281,28.3457743 M18.5572927,16.2862361 C17.4779614,16.85521 17.1012461,18.1262958 17.7161326,19.1251726 C18.3311672,20.1240494 19.7048213,20.4724987 20.784301,19.9035248 C21.8637806,19.334448 22.2403476,18.0637395 21.6254982,17.0645883 C21.0106118,16.0657115 19.6367724,15.7171249 18.5572927,16.2862361 M15.9811076,20.4501376 C14.9014797,21.0191116 14.5247645,22.2901973 15.1396139,23.2890741 C15.7546485,24.2879509 17.1283397,24.6364003 18.2076711,24.0674263 C19.287299,23.4984867 19.6640142,22.2273667 19.049276,21.2284899 C18.4342413,20.2296131 17.060439,19.8810265 15.9811076,20.4501376 M12.9763181,12.1224374 C14.0556495,12.6912742 14.4323647,13.9623942 13.8175154,14.9614082 C13.2026289,15.960285 11.8287896,16.3085972 10.7493099,15.7397604 C9.66968201,15.1706493 9.29326329,13.8997008 9.90814972,12.9006868 C10.5231844,11.90181 11.8966902,11.5532234 12.9761699,12.1223345 M10.3998365,16.2862361 C11.4793161,16.85521 11.8560314,18.1262958 11.2409967,19.1251726 C10.6262585,20.1240494 9.25245618,20.4724987 8.17308772,19.9035248 C7.09349689,19.334448 6.71689285,18.0637395 7.33192753,17.0645883 C7.94666571,16.0657115 9.32050509,15.7171249 10.3998365,16.2862361 M12.9763181,20.4501376 C14.0556495,21.0191116 14.4323647,22.2901973 13.8175154,23.2890741 C13.2026289,24.2879509 11.8287896,24.6364003 10.7493099,24.0674263 C9.66968201,23.4984867 9.29326329,22.2273667 9.90814972,21.2284899 C10.5231844,20.2296131 11.8966902,19.8810265 12.9761699,20.4501376 M15.4535062,4.92452264 C15.4535062,5.25476074 15.26311,5.55996262 14.954036,5.72513311 C14.6449249,5.89020072 14.2639844,5.89020072 13.9549104,5.72513311 C13.6457993,5.55996262 13.4554032,5.25476074 13.4554032,4.92452264 C13.4554032,4.41398942 13.9026136,4 14.4543806,4 C15.0062958,4 15.4535062,4.41398942 15.4535062,4.92452264 M15.4535062,31.0755117 C15.4535062,31.4058869 15.26311,31.7110888 14.954036,31.8761221 C14.6449249,32.0412926 14.2639844,32.0412926 13.9549104,31.8761221 C13.6457993,31.7110888 13.4554032,31.4058869 13.4554032,31.0755117 C13.4554032,30.5649784 13.9026136,30.1511262 14.4543806,30.1511262 C15.0062958,30.1511262 15.4535062,30.5649784 15.4535062,31.0755117 M2.67276366,10.7219178 C2.98521047,10.8844475 3.17964653,11.1893407 3.18238924,11.5209164 C3.1849837,11.8526292 2.99547711,12.1600947 2.68581007,12.3268771 C2.37595772,12.4936938 1.9933123,12.4942082 1.68305224,12.3281117 C1.20759937,12.0735653 1.04325902,11.5115535 1.31545468,11.06999 C1.58750208,10.6284264 2.1938268,10.4728931 2.67276366,10.7219178 M27.2257089,23.6718197 C27.5381557,23.8342122 27.7325918,24.1391054 27.7351862,24.4708182 C27.737966,24.8023939 27.5484223,25.1099965 27.238607,25.2767789 C26.9287918,25.4435613 26.5462575,25.4439729 26.2359975,25.2779793 C25.7603963,25.0234329 25.5962042,24.4614554 25.8682517,24.0198918 C26.1404473,23.578191 26.746772,23.422795 27.2257089,23.6718197 M1.68045778,23.6658178 C1.99101435,23.4960517 2.37655074,23.4943368 2.68884929,23.6615308 C3.00114785,23.8285876 3.19180342,24.1385909 3.18776347,24.4724301 C3.18353822,24.8062693 2.98521047,25.11202 2.66887197,25.2724919 C2.19049107,25.5150003 1.59024479,25.3577179 1.32038414,24.9191038 C1.0505235,24.4804555 1.21078685,23.9226278 1.68045778,23.6658178 M26.2400745,10.7274395 C26.550594,10.5586336 26.9352779,10.5575705 27.2468722,10.7247644 C27.5585778,10.8918212 27.7488257,11.2011386 27.7450452,11.5343262 C27.7412647,11.8675138 27.5439376,12.1730929 27.2285999,12.3341136 C26.750256,12.576622 26.150158,12.4193396 25.8802603,11.9807255 C25.6103996,11.5419743 25.770663,10.9841123 26.2401857,10.7274395 M7.33033379,5.50838113 C7.33033379,5.92501136 6.96536775,6.26289751 6.51493286,6.26289751 C6.06453503,6.26289751 5.69953193,5.92501136 5.69953193,5.50838113 C5.69953193,5.09161372 6.06453503,4.75386475 6.51493286,4.75386475 C6.96536775,4.75386475 7.33033379,5.09161372 7.33033379,5.50838113 M23.2567078,30.5159349 C23.2567078,30.9327023 22.8917417,31.2704513 22.4413068,31.2704513 C21.9910573,31.2704513 21.6260542,30.9327023 21.6260542,30.5159349 C21.6324291,30.1034545 21.995542,29.7721189 22.4413068,29.7721189 C22.887257,29.7721189 23.2503328,30.1034545 23.2567078,30.5159349 M22.804568,6.14927421 C22.5500517,6.28045717 22.2393469,6.27603296 21.9893153,6.1376478 C21.7392837,5.99936552 21.5879898,5.74804297 21.5924745,5.47850914 C21.5969592,5.20894102 21.7565183,4.96204268 22.0110346,4.83089402 C22.4043914,4.62806629 22.9010077,4.75880341 23.1202022,5.12296045 C23.3393968,5.48694601 23.198073,5.94644649 22.804568,6.14927421 M6.94539043,31.1932848 C6.69098533,31.3244335 6.38016932,31.3200093 6.13010068,31.1816241 C5.8800691,31.0433761 5.72877517,30.7920536 5.73325987,30.5224854 C5.73774458,30.2529516 5.89730372,30.0060533 6.15182,29.8749046 C6.54536214,29.6720426 7.04194131,29.802814 7.26113591,30.1669367 C7.48018225,30.5310595 7.3388955,30.9905943 6.94539043,31.193422 M29.7508203,18.6243795 C29.3622447,18.4138008 29.2316322,17.9515909 29.4592403,17.5920296 C29.6868484,17.2324682 30.1863185,17.1117456 30.5747829,17.3222214 C30.9633585,17.5328 31.0939339,17.9950099 30.8663629,18.3545713 C30.6389031,18.7141669 30.1394329,18.8348552 29.7508203,18.6243795 M-1.61835789,18.7020946 C-1.86983495,18.5658358 -2.02361215,18.3157137 -2.0217219,18.0461798 C-2.01983166,17.776646 -1.86275578,17.5283758 -1.60953673,17.3951008 C-1.35631768,17.2617915 -1.0454646,17.2635406 -0.794135796,17.3997651 C-0.405411933,17.6105152 -0.274947783,18.072828 -0.502555835,18.4324236 C-0.730126823,18.791985 -1.22978228,18.9128448 -1.61835789,18.7022318" id="Fill-1" fill="#1C242C" mask="url(#mask-4)"></path>
                </g>
                <path d="M125.695855,10.3852416 C125.843233,10.3857048 125.990264,10.396242 126.136097,10.4168919 L143.229444,12.69749 C143.729148,12.7786228 144.192943,13.008242 144.560635,13.3562411 L144.65101,13.4442798 C144.695929,13.4755595 144.738793,13.5108398 144.779076,13.5501119 C144.825925,13.5957839 144.867235,13.6448577 144.902994,13.6965289 L148.685677,17.4798909 C149.305522,18.1217934 149.494897,19.0370899 149.230891,19.8465844 C149.221355,19.9169529 149.204292,19.9870732 149.17907,20.0556058 C149.134104,20.1776985 149.065844,20.2876463 148.979883,20.3809838 C148.944763,20.4335317 148.90862,20.485578 148.870121,20.5365006 L136.506772,36.2643905 C136.274214,36.5959429 135.965801,36.8591433 135.613368,37.0366291 C135.42583,37.2492857 135.147971,37.3828993 134.840946,37.3837015 L134.746302,37.3837015 C134.606204,37.3715364 134.475301,37.3320038 134.358626,37.2709641 C134.354577,37.269217 134.34995,37.2681496 134.34533,37.2670492 C133.50253,37.1096468 132.814135,36.5024626 132.553086,35.6860389 L123.69654,13.5472623 C123.335914,12.7840265 123.411784,11.8860454 123.895619,11.1941387 C124.336633,10.6585922 125.002363,10.3594582 125.695855,10.3852416 Z M126.21403,14.5247015 L134.03603,34.0737015 L135.111293,22.5677087 C135.038336,22.4362764 134.999073,22.2941061 134.991895,22.1517325 L126.21403,14.5247015 Z M145.80903,21.1977015 L137.118804,22.893969 L136.13103,33.5127015 L145.80903,21.1977015 Z M126.96703,12.5237015 L136.185804,20.532969 L142.30903,14.5637015 L126.96703,12.5237015 Z M144.05503,15.6467015 L139.074526,20.5004967 L147.301801,18.8965818 C147.293763,18.8858544 147.284981,18.8756149 147.275488,18.865943 L144.05503,15.6467015 Z" id="形状结合" fill="#1C242C" transform="translate(136.408896, 23.883701) rotate(-11.000000) translate(-136.408896, -23.883701) "></path>
                <path d="M124.63612,263.077787 C125.160773,263.094801 127.138504,263.326395 129.66909,265.6971 C130.466301,266.450922 131.195025,267.272523 131.846872,268.152373 C131.888523,268.138841 131.930175,268.125308 131.976586,268.107069 C133.13212,267.708741 134.149608,267.512226 135.476507,267.425735 C135.659725,267.414213 136.000168,267.407491 136.361092,267.405571 L136.795278,267.405571 C137.150706,267.407491 137.471915,267.414213 137.622158,267.425735 C138.823627,267.504459 140.010458,267.731806 141.154805,268.102362 L141.154805,268.102362 L141.354137,268.166494 C141.984028,267.283702 142.689308,266.455982 143.462301,265.692393 C146.310673,262.930579 148.437877,263.086498 148.437877,263.086498 C149.667788,264.055545 149.265553,267.283938 148.63245,270.045752 C148.205974,271.901807 147.679298,273.545969 147.481777,274.141218 L147.43467,274.282024 C147.439847,274.294851 147.446035,274.307207 147.453116,274.319092 C147.482688,274.385225 147.516664,274.449298 147.554864,274.510901 C148.572352,276.307786 149.108467,278.00406 149.307205,280.079834 C149.32089,280.221631 149.339931,280.509933 149.348856,280.715863 C149.358377,280.852954 149.367302,280.990044 149.372062,281.082418 C149.323022,281.077843 149.273985,281.073634 149.224955,281.06979 C149.229006,281.252677 149.209745,281.601011 149.186569,281.808789 C149.107981,282.341532 148.941279,282.880261 148.677534,283.478849 C148.640621,283.562711 148.363182,284.060078 148.293525,284.167225 C148.269234,284.200267 148.24923,284.236242 148.233989,284.274372 C148.233155,284.284249 148.225356,284.29209 148.215533,284.292928 C148.206007,284.292928 148.197076,284.307295 148.197076,284.316273 L148.19142,284.331313 L148.19142,284.331313 L148.17862,284.339618 C148.169094,284.339618 148.164331,284.348597 148.169094,284.358234 C148.169451,284.359072 148.169749,284.36003 148.169987,284.360928 C148.172785,284.371882 148.166237,284.382956 148.155401,284.385769 C148.136945,284.390558 148.132182,284.399477 148.136945,284.409055 C148.141708,284.418632 148.132777,284.427611 148.118488,284.432399 L148.105368,284.438585 C148.097915,284.443507 148.094079,284.449759 148.100032,284.455744 C148.108963,284.464723 148.100628,284.478491 148.081576,284.488128 C148.062524,284.497705 148.053594,284.506624 148.062524,284.506624 C148.097055,284.506624 147.669585,285.083663 147.38262,285.418872 C146.983311,285.874517 146.555959,286.304483 146.103186,286.706435 C143.368329,289.094861 139.334033,290.769231 136.419258,290.769231 C136.25714,290.769231 136.09806,290.764023 135.943325,290.753488 C133.125474,290.558408 129.405649,288.865003 126.661623,286.520334 C124.986868,285.087853 123.918193,283.627359 123.571096,282.301426 C123.460359,281.878225 123.441903,281.556783 123.478815,280.882773 C123.478815,280.854101 123.483578,280.822316 123.483578,280.794242 C123.541487,280.785741 123.604295,280.777199 123.671678,280.768939 C123.835622,278.642289 124.414379,276.635853 125.453357,274.555028 C125.471803,274.522668 125.490249,274.486189 125.504529,274.454417 C125.304007,273.855455 124.758371,272.19566 124.314485,270.306989 C123.639134,267.453977 123.195248,264.078491 124.498942,263.07826 C124.498942,263.07826 124.50419,263.077884 124.51452,263.07749 Z M136.572563,279.608858 C135.703096,279.608858 134.888164,279.805554 134.150391,280.193499 C133.558005,280.505064 133.012057,280.940417 132.52767,281.487706 C131.698688,282.424257 131.339089,283.36374 131.335576,283.373138 L131.335576,283.373138 L131.182389,283.779639 L130.888102,283.461131 C130.8223,283.389926 130.755813,283.321042 130.688711,283.25441 C130.680202,283.276969 130.675868,283.288281 130.675868,283.288281 C130.486973,283.087073 130.293268,282.902263 130.096044,282.732597 C128.670158,281.629077 127.07352,281.373426 125.90206,281.373376 C125.550736,281.373376 125.244124,281.39702 125.009075,281.423956 C124.987226,281.914858 125.007766,282.156987 125.091057,282.475197 C125.390345,283.618559 126.323993,284.886189 127.790966,286.140889 C130.215699,288.212722 133.515258,289.720565 136.001313,289.892718 C136.133186,289.901637 136.271429,289.906187 136.411816,289.906187 C137.652313,289.906187 139.187217,289.550027 140.733731,288.903253 C142.29489,288.250373 143.797228,287.329565 144.964139,286.310469 C145.360352,285.958679 145.740015,285.57666 146.090981,285.176384 C146.300728,284.931263 146.566557,284.574863 146.645145,284.455206 C146.655087,284.420009 146.672591,284.384872 146.699799,284.352787 C146.712302,284.328604 146.728198,284.306397 146.74719,284.286643 C146.751357,284.280059 146.755823,284.273654 146.760526,284.267488 L146.760526,284.267488 L146.773684,284.243605 C146.782793,284.22876 146.793152,284.214932 146.804583,284.202302 C146.815657,284.184823 146.828516,284.168662 146.842865,284.153996 C146.857689,284.125863 146.874419,284.098747 146.892935,284.072828 C146.956817,283.972444 147.187341,283.557324 147.215145,283.495549 C147.447039,282.969391 147.586234,282.514643 147.653094,282.065044 C147.672086,281.892411 147.684945,281.647469 147.686553,281.500097 C147.504074,281.486629 147.314273,281.479865 147.119827,281.479865 C146.284296,281.479865 145.452038,281.602455 144.646037,281.844285 C144.485568,281.892426 144.326867,281.945171 144.170018,282.002471 C143.452139,282.345707 142.772039,282.775683 142.147897,283.288281 C142.147897,283.288281 142.133205,283.221663 142.098904,283.105021 L141.909806,283.240991 L141.909806,283.240991 L141.601888,283.485553 L141.26271,283.767129 L141.168881,283.335068 C141.166917,283.32597 140.95336,282.379662 140.275123,281.451791 C139.381246,280.228876 138.135509,279.608858 136.572563,279.608858 Z M136.848629,281.153082 L138.134472,281.157141 L138.277872,281.22604 C138.416453,281.282465 138.536528,281.375721 138.62477,281.495455 C138.735444,281.641959 138.768171,281.756162 138.768171,282.03505 C138.768171,282.433319 138.740204,282.775809 138.698553,282.913429 C138.637206,283.101296 138.546644,283.278573 138.430198,283.438845 C138.154167,283.763449 137.797035,284.010977 137.394264,284.156658 L137.283649,284.197903 L137.28835,284.678013 L137.292515,285.158065 L137.496013,285.176305 L137.635248,285.382235 L137.769128,285.588165 L138.388546,285.588165 C138.730684,285.588165 139.03117,285.592872 139.059136,285.59699 C139.105548,285.606404 139.114473,285.601697 139.160885,285.524091 L139.216222,285.44166 L139.748172,285.44166 C140.159928,285.44166 140.280122,285.446367 140.280122,285.459959 C140.268668,285.457333 140.221224,285.628635 140.163302,285.842962 L140.137912,285.93648 C140.068294,286.197129 140.012957,286.407177 140.012957,286.416591 C139.963808,286.422887 139.914183,286.424417 139.864797,286.421357 L139.717231,286.421357 L139.517899,286.901409 C139.407224,287.162058 139.305476,287.404525 139.29185,287.441004 L139.263824,287.505078 L139.069847,287.19383 L139.069847,285.928302 L139.03236,285.937069 C138.953817,285.955367 138.394497,286.028914 138.149347,286.051801 C137.137691,286.151707 136.117584,286.130172 135.111164,285.987669 C135.010307,285.970371 134.908618,285.95825 134.806512,285.95119 L134.805271,285.962975 L134.805271,285.962975 L134.805337,286.108529 C134.806806,286.229261 134.810479,286.408877 134.815438,286.609577 L134.829123,287.256785 L134.75058,287.37446 C134.708929,287.438651 134.667277,287.492134 134.667277,287.498018 C134.653592,287.51155 134.607775,287.43918 134.501266,287.228544 C134.386724,287.007904 134.299613,286.774439 134.241836,286.533089 L134.209705,286.400705 L134.066305,286.410119 L133.922904,286.423711 L133.886013,286.254201 C133.867567,286.163003 133.844361,286.018852 133.835436,285.943541 L133.821155,285.797037 L133.702151,285.692306 C133.633128,285.633469 133.563511,285.574632 133.549825,285.564042 C133.527988,285.544096 133.516028,285.515736 133.517033,285.486377 L133.517033,285.436365 L134.095461,285.440542 L134.673227,285.445191 L134.710119,285.562865 L134.909451,285.572279 C134.988504,285.575221 135.190508,285.580864 135.41398,285.587301 L135.685955,285.595284 L135.685955,285.595284 L136.263722,285.608758 L136.410097,285.377528 L136.563018,285.14924 L136.756995,285.14924 L136.747475,284.197903 L136.4934,284.088407 C135.675245,283.731913 135.193872,283.323524 135.01358,282.831057 C134.976689,282.730446 134.976689,282.693967 134.967763,282.236273 C134.965978,282.144711 134.964717,282.070025 134.964098,282.008323 L134.964288,281.858276 C134.966645,281.739394 134.975856,281.702326 134.995134,281.641959 C135.058861,281.413965 135.239986,281.236395 135.471152,281.175381 C135.526594,281.15964 135.646373,281.155011 136.095856,281.153649 L136.848629,281.153082 L136.848629,281.153082 Z M135.47332,286.202491 L136.758955,286.207533 L138.043968,286.213296 L138.048941,286.364571 C138.052049,286.54394 138.057023,286.538177 137.844408,286.677926 C137.7524,286.739948 137.68961,286.76797 137.675311,286.756445 C137.661013,286.744919 137.593249,286.684409 137.520513,286.622458 L137.390582,286.497837 L137.255055,286.66568 C136.960379,287.035222 136.950432,287.05179 136.864018,287.057553 C136.728492,287.074122 136.699273,287.0461 136.53515,286.760767 C136.448114,286.616696 136.380351,286.492074 136.380351,286.492074 C136.380351,286.492074 136.318183,286.480548 136.245447,286.474785 L136.10992,286.458289 L135.985584,286.760767 L135.874304,286.721147 C135.787206,286.687867 135.701912,286.648679 135.618793,286.603729 L135.47332,286.520168 L135.47332,286.202491 Z M140.97785,280.956534 L141.058812,281.07306 C141.771107,282.116011 141.988041,283.115506 141.988041,283.115506 C142.018662,283.090089 142.049308,283.064944 142.079977,283.04007 C141.953711,282.632952 141.634068,281.776696 140.97785,280.956534 Z M128.970534,276.066554 C128.803928,276.066554 128.803928,276.066554 128.767036,276.112447 C128.696348,276.237535 128.647794,276.373625 128.623636,276.514893 C128.586745,276.683755 128.581984,277.159159 128.60519,277.461053 L128.60519,277.461053 L128.619471,277.637564 L128.748591,277.769947 C128.975294,277.99347 129.28054,278.1994 129.705981,278.405329 C130.46166,278.771296 131.504734,279.068424 132.484735,279.196748 C132.757851,279.22852 133.238034,279.238463 133.395714,279.219047 C133.553395,279.199631 133.692036,279.137263 133.719407,279.081956 C133.761058,278.991936 133.650384,278.694808 133.486158,278.479464 C133.241009,278.141151 132.922077,277.894682 132.071195,277.391566 C131.040021,276.778483 130.1939,276.357798 129.625058,276.184228 C129.415075,276.109093 129.193846,276.069319 128.970534,276.066554 Z M144.414932,276.038312 C144.365545,276.015366 144.202509,276.020073 144.068034,276.038312 C143.642593,276.097738 143.013654,276.348972 142.23715,276.769658 C142.079866,276.854971 141.862485,276.979641 141.633313,277.114487 L141.286751,277.320741 C140.943423,277.527333 140.627913,277.723996 140.503255,277.812251 C140.012957,278.164097 139.69819,278.539537 139.601202,278.88191 C139.555385,279.046654 139.573831,279.097254 139.70295,279.160798 C139.901688,279.257291 140.563353,279.237286 141.224422,279.119612 C142.385311,278.914271 143.527159,278.484171 144.165617,278.022359 C144.382801,277.864028 144.599984,277.6428 144.613669,277.569842 C144.639493,277.248827 144.644313,276.926576 144.62795,276.604914 C144.593438,276.312493 144.498235,276.070084 144.414932,276.038312 Z M142.300818,272.818157 C141.975936,272.773441 140.822187,272.908766 140.634755,274.053736 C140.447323,275.198707 141.927144,275.105156 141.927144,275.105156 C141.927144,275.105156 142.76315,275.15046 142.948202,275.104567 C143.133254,275.058674 143.456351,275.240481 143.687815,274.280848 C143.919278,273.321214 142.6257,272.862873 142.300818,272.818157 Z M131.385729,272.818157 C131.060847,272.773441 129.904719,272.910531 129.719667,274.053736 C129.566798,274.998123 130.550071,275.099728 130.896702,275.106505 L130.982934,275.106365 C131.003246,275.10585 131.014435,275.105156 131.014435,275.105156 C131.014435,275.105156 131.848062,275.15046 132.033113,275.104567 C132.218165,275.058674 132.541263,275.240481 132.772726,274.280848 C133.00419,273.321214 131.710611,272.862873 131.385729,272.818157 Z" id="形状结合" fill="#1C242C"></path>
                <g id="形状结合-2" transform="translate(245.069930, 214.615385) rotate(1.000000) translate(-245.069930, -214.615385) translate(229.615385, 199.615385)" fill="#1C242C" fill-rule="nonzero">
                    <path d="M20.944094,19.2393637 L29.9273104,28.2273403 L25.638549,28.2273403 L18.7997133,21.3864719 C16.7439698,19.3384178 13.4422749,19.3384178 11.3865314,21.3864719 L4.54537742,28.2273403 L0.253718243,28.2273403 L9.23693462,19.2393637 C12.4691538,16.0061057 17.7095566,16.0061057 20.944094,19.2393637 Z M4.78968207,3.68188574 L11.5963524,10.5005863 C13.6599149,12.5585705 16.9741678,12.5585705 19.0377303,10.5005863 L25.8496365,3.68188574 L30.1547101,3.68188574 L21.1955029,12.6581049 C17.9509901,15.9070394 12.6906556,15.9070394 9.44381565,12.6581049 L0.481117914,3.68188574 L4.78968207,3.68188574 Z" id="形状结合"></path>
                </g>
            </g>
        </g>
    </g>
</svg>