<?xml version="1.0" encoding="UTF-8"?>
<svg width="20px" height="20px" viewBox="0 0 20 20" version="1.1" xmlns="http://www.w3.org/2000/svg" xmlns:xlink="http://www.w3.org/1999/xlink">
    <title>地址本</title>
    <g id="页面-1" stroke="none" stroke-width="1" fill="none" fill-rule="evenodd">
        <g id="27-Wallet-Overview-Withdraw-Crypto-selected-coin" transform="translate(-510.000000, -409.000000)" fill="#878787" fill-rule="nonzero">
            <g id="地址本" transform="translate(510.000000, 409.000000)">
                <path d="M15.9648212,19.9819364 L4.03743678,19.9819364 C1.82058345,19.9819364 0.0171604046,18.178965 0.0171604046,15.9621116 L0.0171604046,4.03472724 C0.0171604046,1.81787392 1.82058345,0.0149024566 4.03743678,0.0149024566 L15.9648212,0.0149024566 C18.1812229,0.0149024566 19.984646,1.81787392 19.984646,4.03472724 L19.984646,15.9621116 C19.9848717,18.178965 18.1812229,19.9819364 15.9648212,19.9819364 Z M4.03743678,1.72665282 C2.7648573,1.72665282 1.72913656,2.76237355 1.72913656,4.03450145 L1.72913656,15.9618858 C1.72913656,17.2340137 2.7648573,18.2697345 4.03743678,18.2697345 L15.9648212,18.2697345 C17.2374007,18.2697345 18.2726698,17.2340137 18.2726698,15.9618858 L18.2726698,4.03472724 C18.2726698,2.76259935 17.2374007,1.72687861 15.9648212,1.72687861 L4.03743678,1.72687861 L4.03743678,1.72665282 Z" id="形状"></path>
                <path d="M5,20 C4.44763915,20 4,19.6081195 4,19.1240454 L4,0.875954573 C4,0.391880495 4.44763915,0 5,0 C5.55209707,0 6,0.391880495 6,0.875954573 L6,19.1242765 C6,19.6083506 5.55209707,20 5,20 Z M3.12915638,7 L0.870843623,7 C0.389823695,7 0,6.55262464 0,6 C0,5.44737536 0.389823695,5 0.870843623,5 L3.12915638,5 C3.61017631,5 4,5.44737536 4,6 C4,6.55262464 3.61017631,7 3.12915638,7 Z M3.12915638,11 L0.870843623,11 C0.389823695,11 0,10.5526246 0,10 C0,9.44737536 0.389823695,9 0.870843623,9 L3.12915638,9 C3.61017631,9 4,9.44737536 4,10 C4,10.5528884 3.61017631,11 3.12915638,11 Z M3.12915638,16 L0.870843623,16 C0.389823695,16 0,15.5526246 0,15 C0,14.4473754 0.389823695,14 0.870843623,14 L3.12915638,14 C3.61017631,14 4,14.4473754 4,15 C4,15.5528884 3.61017631,16 3.12915638,16 Z M13.1811506,5 L8.81884945,5 C8.36654907,5 8,4.55262464 8,4 C8,3.44737536 8.36654907,3 8.81884945,3 L13.1811506,3 C13.6332349,3 14,3.44737536 14,4 C14,4.55262464 13.6334509,5 13.1811506,5 Z M15.0986209,9 L7.90137906,9 C7.40349255,9 7,8.55262464 7,8 C7,7.44737536 7.40349255,7 7.90137906,7 L15.0986209,7 C15.5962697,7 16,7.44737536 16,8 C16,8.55262464 15.5962697,9 15.0986209,9 L15.0986209,9 Z M14.1477068,13 L8.85229317,13 C8.38151978,13 8,12.5526246 8,12 C8,11.4473754 8.38151978,11 8.85229317,11 L14.1477068,11 C14.6182554,11 15,11.4473754 15,12 C15,12.5526246 14.6184802,13 14.1477068,13 Z" id="形状"></path>
            </g>
        </g>
    </g>
</svg>