<?xml version="1.0" encoding="UTF-8"?>
<svg width="20px" height="20px" viewBox="0 0 20 20" version="1.1" xmlns="http://www.w3.org/2000/svg" xmlns:xlink="http://www.w3.org/1999/xlink">
    <title>quiz_FILL0_wght400_GRAD0_opsz48</title>
    <g id="页面-1" stroke="none" stroke-width="1" fill="none" fill-rule="evenodd">
        <g id="14-Wallet-Overview-Deposit-Fiat--Select-currency-Enter-amount-step3" transform="translate(-960.000000, -208.000000)" fill="#000000" fill-rule="nonzero">
            <g id="编组-13" transform="translate(960.000000, 159.000000)">
                <g id="quiz_FILL0_wght400_GRAD0_opsz48" transform="translate(0.000000, 49.000000)">
                    <path d="M11.575,13.5 C11.8583333,13.5 12.1,13.4 12.3,13.2 C12.5,13 12.6,12.7583333 12.6,12.475 C12.6,12.1916667 12.5,11.95 12.3,11.75 C12.1,11.55 11.8583333,11.45 11.575,11.45 C11.2916667,11.45 11.05,11.55 10.85,11.75 C10.65,11.95 10.55,12.1916667 10.55,12.475 C10.55,12.7583333 10.65,13 10.85,13.2 C11.05,13.4 11.2916667,13.5 11.575,13.5 Z M10.95,10.35 L12.125,10.35 C12.1583333,9.86666667 12.2291667,9.50833333 12.3375,9.275 C12.4458333,9.04166667 12.7166667,8.71666667 13.15,8.3 C13.6,7.86666667 13.9125,7.4875 14.0875,7.1625 C14.2625,6.8375 14.35,6.45833333 14.35,6.025 C14.35,5.25833333 14.0875,4.63333333 13.5625,4.15 C13.0375,3.66666667 12.35,3.425 11.5,3.425 C10.8666667,3.425 10.3,3.59583333 9.8,3.9375 C9.3,4.27916667 8.93333333,4.75833333 8.7,5.375 L9.825,5.85 C10.0083333,5.43333333 10.2375,5.11666667 10.5125,4.9 C10.7875,4.68333333 11.1166667,4.575 11.5,4.575 C12,4.575 12.4041667,4.71666667 12.7125,5 C13.0208333,5.28333333 13.175,5.64166667 13.175,6.075 C13.175,6.40833333 13.1,6.7 12.95,6.95 C12.8,7.2 12.5333333,7.46666667 12.15,7.75 C11.6166667,8.23333333 11.2833333,8.62083333 11.15,8.9125 C11.0166667,9.20416667 10.95,9.68333333 10.95,10.35 L10.95,10.35 Z M4.5,17 C4.1,17 3.75,16.85 3.45,16.55 C3.15,16.25 3,15.9 3,15.5 L3,1.5 C3,1.1 3.15,0.75 3.45,0.45 C3.75,0.15 4.1,0 4.5,0 L18.5,0 C18.9,0 19.25,0.15 19.55,0.45 C19.85,0.75 20,1.1 20,1.5 L20,15.5 C20,15.9 19.85,16.25 19.55,16.55 C19.25,16.85 18.9,17 18.5,17 L4.5,17 Z M4.5,15.5 L18.5,15.5 L18.5,1.5 L4.5,1.5 L4.5,15.5 Z M1.5,20 C1.1,20 0.75,19.85 0.45,19.55 C0.15,19.25 0,18.9 0,18.5 L0,3 L1.5,3 L1.5,18.5 L17,18.5 L17,20 L1.5,20 Z M4.5,1.5 L4.5,15.5 L4.5,1.5 Z" id="形状"></path>
                </g>
            </g>
        </g>
    </g>
</svg>