<?xml version="1.0" encoding="UTF-8"?>
<svg width="20px" height="20px" viewBox="0 0 20 20" version="1.1" xmlns="http://www.w3.org/2000/svg" xmlns:xlink="http://www.w3.org/1999/xlink">
    <title>编组 3</title>
    <g id="页面-1" stroke="none" stroke-width="1" fill="none" fill-rule="evenodd">
        <g id="12-Wallet-Overview-Deposit-Fiat--Select-currency-Enter-amount-02" transform="translate(-440.000000, -436.000000)">
            <g id="编组-9" transform="translate(103.000000, 436.000000)">
                <g id="编组-3" transform="translate(337.000000, 0.000000)">
                    <circle id="椭圆形" fill="#000000" cx="10" cy="10" r="10"></circle>
                    <path d="M6.56824556,8.62184481 L6.56824556,14.4655656 L9.8597694,14.4655656 C12.4431287,14.4655656 14.0846058,13.6872858 14.7382362,12.1517607 C14.814584,11.9733562 14.8792459,11.7373013 14.9291056,11.468526 L13.8571206,11.467747 L15.7019321,9.15160486 L17.5506388,11.4716423 L16.2394827,11.4700841 C16.1693674,11.9273917 16.0634154,12.3395139 15.9278591,12.658149 C15.0521969,14.7148644 13.0102836,15.7580243 9.8597694,15.7580243 L5.27500779,15.7580243 L5.27500779,8.62184481 L6.56824556,8.62184481 Z M12.1681209,5.21579931 C14.0012465,5.60065441 15.2999377,6.58616391 15.9231848,8.06559676 L14.7320037,8.56731069 C13.8828295,6.55188532 11.4786538,6.32362107 10.3747273,6.33219071 L10.3747273,12.3293861 L9.08148956,12.3293861 L9.08148956,5.14646307 L9.65020256,5.07712683 C9.69850421,5.07167342 10.8429417,4.93689623 12.1681209,5.21579931 Z M5.96603303,5 C6.49968838,5 6.93206606,5.43237769 6.93206606,5.96603303 C6.93206606,6.49968838 6.49968838,6.93206606 5.96603303,6.93206606 C5.43315675,6.93206606 5,6.49968838 5,5.96603303 C5,5.43237769 5.43237769,5 5.96603303,5 Z" id="形状结合" fill="#FFFFFF"></path>
                </g>
            </g>
        </g>
    </g>
</svg>