<?xml version="1.0" encoding="UTF-8"?>
<svg width="17px" height="14px" viewBox="0 0 17 14" version="1.1" xmlns="http://www.w3.org/2000/svg" xmlns:xlink="http://www.w3.org/1999/xlink">
    <title>reddit</title>
    <g id="页面-1" stroke="none" stroke-width="1" fill="none" fill-rule="evenodd">
        <g id="01-CoinByte" transform="translate(-1313.000000, -6883.000000)" fill="#909090" fill-rule="nonzero">
            <g id="reddit" transform="translate(1313.000000, 6883.000000)">
                <path d="M13.6304318,0.18725 C14.4363864,0.18725 15.0908864,0.84175 15.0908864,1.64770455 C15.0908864,2.45365909 14.4363864,3.10815909 13.6304318,3.10815909 C12.9948636,3.10815909 12.4539545,2.69977273 12.2538182,2.13181818 L10.0306818,1.49084091 L8.86772727,4.10072727 C10.1956591,4.18186364 11.4154091,4.53615909 12.4160909,5.08247727 C12.74875,4.48477273 13.3843182,4.08179545 14.11725,4.08179545 C15.1936591,4.08179545 16.0645227,4.95265909 16.0645227,6.02906818 C16.0618182,6.8215 15.5831136,7.50575 14.8988636,7.80865909 C15.0232727,8.17377273 15.0881818,8.55511364 15.0881818,8.94727273 C15.0881818,11.6355909 12.0374545,13.8154545 8.27272727,13.8154545 C4.508,13.8154545 1.45727273,11.6355909 1.45727273,8.94727273 C1.45727273,8.55511364 1.52218182,8.17377273 1.64659091,7.80865909 C0.962340909,7.50575 0.483636364,6.82420455 0.483636364,6.02636364 C0.483636364,4.94995455 1.3545,4.07909091 2.43090909,4.07909091 C3.16384091,4.07909091 3.79940909,4.48206818 4.13206818,5.07977273 C5.11111364,4.54427273 6.30111364,4.19268182 7.59659091,4.10343182 L9.17604545,0.557772727 C9.29234091,0.292727273 9.58713636,0.1575 9.86570455,0.238636364 L12.3430682,0.955340909 C12.5891818,0.498272727 13.0732955,0.18725 13.6304318,0.18725 Z M11.0800455,10.1507955 C10.8826136,9.89927273 10.5175,9.856 10.2659773,10.0534318 C9.863,10.3698636 9.06786364,10.7106364 8.27272727,10.7106364 C7.47759091,10.7106364 6.67975,10.3698636 6.27947727,10.0534318 C6.02795455,9.856 5.66554545,9.89927273 5.46811364,10.1507955 C5.27068182,10.4023182 5.31395455,10.7647273 5.56547727,10.9621591 C6.26054545,11.5138864 7.32343182,11.8681818 8.27272727,11.8681818 C9.22202273,11.8681818 10.2849091,11.5138864 10.9826818,10.9621591 C11.2342045,10.7647273 11.2774773,10.3996136 11.0800455,10.1507955 Z M11.1936364,7 C10.6559118,7 10.22,7.43591185 10.22,7.97363636 C10.22,8.51136088 10.6559118,8.94727273 11.1936364,8.94727273 C11.7313609,8.94727273 12.1672727,8.51136088 12.1672727,7.97363636 C12.1672727,7.43591185 11.7313609,7 11.1936364,7 Z M5.35181818,7 C4.81409367,7 4.37818182,7.43591185 4.37818182,7.97363636 C4.37818182,8.51136088 4.81409367,8.94727273 5.35181818,8.94727273 C5.8895427,8.94727273 6.32545455,8.51136088 6.32545455,7.97363636 C6.32545455,7.43591185 5.8895427,7 5.35181818,7 Z" id="形状结合"></path>
            </g>
        </g>
    </g>
</svg>