<?xml version="1.0" encoding="UTF-8"?>
<svg width="14px" height="14px" viewBox="0 0 14 14" version="1.1" xmlns="http://www.w3.org/2000/svg" xmlns:xlink="http://www.w3.org/1999/xlink">
    <title>形状结合</title>
    <g id="页面-1" stroke="none" stroke-width="1" fill="none" fill-rule="evenodd">
        <g id="01-CoinByte" transform="translate(-1348.000000, -6883.000000)" fill="#909090" fill-rule="nonzero">
            <path d="M1362,6883 L1362,6895.09091 C1362,6896.14527 1361.14527,6897 1360.09091,6897 L1349.90909,6897 C1348.85473,6897 1348,6896.14527 1348,6895.09091 L1348,6889.36364 L1350.54545,6889.36364 L1350.54545,6883 L1362,6883 Z M1350.54545,6890.63636 L1349.27273,6890.63636 L1349.27273,6895.09091 C1349.27278,6895.44232 1349.55768,6895.72718 1349.90909,6895.72718 C1350.26051,6895.72718 1350.5454,6895.44232 1350.54545,6895.09091 L1350.54545,6890.63636 Z M1360.03369,6892.02278 L1353.00824,6892.02278 L1353.00824,6893.02642 L1360.03369,6893.02642 L1360.03369,6892.02278 Z M1360.03369,6890.01551 L1353.00824,6890.01551 L1353.00824,6891.01915 L1360.03369,6891.01915 L1360.03369,6890.01551 Z M1360.03369,6884.99733 L1353.00824,6884.99733 L1353.00824,6889.01187 L1360.03369,6889.01187 L1360.03369,6884.99733 Z" id="形状结合"></path>
        </g>
    </g>
</svg>