<?xml version="1.0" encoding="UTF-8"?>
<svg width="16px" height="16px" viewBox="0 0 16 16" version="1.1" xmlns="http://www.w3.org/2000/svg" xmlns:xlink="http://www.w3.org/1999/xlink">
    <title>paper-full</title>
    <defs>
        <polygon id="path-1" points="0.00102564103 0.00888888889 13.9927529 0.00888888889 13.9927529 14 0.00102564103 14"></polygon>
    </defs>
    <g id="页面-1" stroke="none" stroke-width="1" fill="none" fill-rule="evenodd">
        <g id="01-CoinByte" transform="translate(-1182.000000, -6882.000000)">
            <g id="paper-full" transform="translate(1190.000000, 6890.000000) rotate(5.000000) translate(-1190.000000, -6890.000000) translate(1183.000000, 6883.000000)">
                <mask id="mask-2" fill="white">
                    <use xlink:href="#path-1"></use>
                </mask>
                <g id="Clip-2"></g>
                <path d="M13.9852479,0.593948718 L11.9867179,12.586547 C11.960735,12.7369231 11.876,12.8544444 11.7365128,12.9378291 C11.6640684,12.9775043 11.5820684,13.000735 11.4945983,13.000735 C11.4371624,13.000735 11.3742735,12.9870427 11.3072991,12.9610769 L8.07023932,11.6378291 C7.8925641,11.5653675 7.68890598,11.6173162 7.56724786,11.7649573 L5.88174359,13.8209231 C5.78738462,13.9412479 5.65892308,14 5.49899145,14 C5.43201709,14 5.37459829,13.9890598 5.32538462,13.968547 C5.22695726,13.9316239 5.14764103,13.8728718 5.08753846,13.7853846 C5.02738462,13.6992479 4.99593162,13.6049744 4.99593162,13.4996752 L4.99593162,11.0883419 C4.99593162,10.8860171 5.06564103,10.6919145 5.19276923,10.5346667 L11.7419829,2.50634188 L3.4977265,9.64203419 C3.43483761,9.69538462 3.34735043,9.71041026 3.27217094,9.67895726 L0.312632479,8.46641026 C0.119863248,8.39396581 0.0146153846,8.25181197 0.00094017094,8.03586325 C-0.010017094,7.82806838 0.0733846154,7.67360684 0.251128205,7.57379487 L13.2429915,0.0785982906 C13.3222564,0.0307863248 13.4042393,0.00888888889 13.4931282,0.00888888889 C13.598359,0.00888888889 13.6927009,0.0389401709 13.7761026,0.0963589744 C13.9497265,0.219418803 14.0167009,0.387555556 13.9852479,0.593948718 Z" id="Fill-1" fill="#909090" mask="url(#mask-2)"></path>
            </g>
        </g>
    </g>
</svg>