<?xml version="1.0" encoding="UTF-8"?>
<svg width="20px" height="20px" viewBox="0 0 20 20" version="1.1" xmlns="http://www.w3.org/2000/svg" xmlns:xlink="http://www.w3.org/1999/xlink">
    <title>list_alt_FILL0_wght400_GRAD0_opsz48</title>
    <g id="页面-1" stroke="none" stroke-width="1" fill="none" fill-rule="evenodd">
        <g id="34-Dropdown-Orders" transform="translate(-1156.000000, -82.000000)" fill="#000000" fill-rule="nonzero">
            <g id="list_alt_FILL0_wght400_GRAD0_opsz48" transform="translate(1156.000000, 82.000000)">
                <path d="M5,15.3888889 C5.22222222,15.3888889 5.41666667,15.3055556 5.58333333,15.1388889 C5.75,14.9722222 5.83333333,14.7777778 5.83333333,14.5555556 C5.83333333,14.3333333 5.75,14.1388889 5.58333333,13.9722222 C5.41666667,13.8055556 5.22222222,13.7222222 5,13.7222222 C4.77777778,13.7222222 4.58333333,13.8055556 4.41666667,13.9722222 C4.25,14.1388889 4.16666667,14.3333333 4.16666667,14.5555556 C4.16666667,14.7777778 4.25,14.9722222 4.41666667,15.1388889 C4.58333333,15.3055556 4.77777778,15.3888889 5,15.3888889 Z M5,10.8333333 C5.22222222,10.8333333 5.41666667,10.75 5.58333333,10.5833333 C5.75,10.4166667 5.83333333,10.2222222 5.83333333,10 C5.83333333,9.77777778 5.75,9.58333333 5.58333333,9.41666667 C5.41666667,9.25 5.22222222,9.16666667 5,9.16666667 C4.77777778,9.16666667 4.58333333,9.25 4.41666667,9.41666667 C4.25,9.58333333 4.16666667,9.77777778 4.16666667,10 C4.16666667,10.2222222 4.25,10.4166667 4.41666667,10.5833333 C4.58333333,10.75 4.77777778,10.8333333 5,10.8333333 Z M5,6.27777778 C5.22222222,6.27777778 5.41666667,6.19444444 5.58333333,6.02777778 C5.75,5.86111111 5.83333333,5.66666667 5.83333333,5.44444444 C5.83333333,5.22222222 5.75,5.02777778 5.58333333,4.86111111 C5.41666667,4.69444444 5.22222222,4.61111111 5,4.61111111 C4.77777778,4.61111111 4.58333333,4.69444444 4.41666667,4.86111111 C4.25,5.02777778 4.16666667,5.22222222 4.16666667,5.44444444 C4.16666667,5.66666667 4.25,5.86111111 4.41666667,6.02777778 C4.58333333,6.19444444 4.77777778,6.27777778 5,6.27777778 Z M8.66666667,15.3888889 L15.4444444,15.3888889 L15.4444444,13.7222222 L8.66666667,13.7222222 L8.66666667,15.3888889 Z M8.66666667,10.8333333 L15.4444444,10.8333333 L15.4444444,9.16666667 L8.66666667,9.16666667 L8.66666667,10.8333333 Z M8.66666667,6.27777778 L15.4444444,6.27777778 L15.4444444,4.61111111 L8.66666667,4.61111111 L8.66666667,6.27777778 Z M1.66666667,20 C1.22222222,20 0.833333333,19.8333333 0.5,19.5 C0.166666667,19.1666667 0,18.7777778 0,18.3333333 L0,1.66666667 C0,1.22222222 0.166666667,0.833333333 0.5,0.5 C0.833333333,0.166666667 1.22222222,0 1.66666667,0 L18.3333333,0 C18.7777778,0 19.1666667,0.166666667 19.5,0.5 C19.8333333,0.833333333 20,1.22222222 20,1.66666667 L20,18.3333333 C20,18.7777778 19.8333333,19.1666667 19.5,19.5 C19.1666667,19.8333333 18.7777778,20 18.3333333,20 L1.66666667,20 Z M1.66666667,18.3333333 L18.3333333,18.3333333 L18.3333333,1.66666667 L1.66666667,1.66666667 L1.66666667,18.3333333 Z M1.66666667,1.66666667 L1.66666667,18.3333333 L1.66666667,1.66666667 Z" id="形状"></path>
            </g>
        </g>
    </g>
</svg>