<?xml version="1.0" encoding="UTF-8"?>
<svg width="21px" height="18px" viewBox="0 0 21 18" version="1.1" xmlns="http://www.w3.org/2000/svg" xmlns:xlink="http://www.w3.org/1999/xlink">
    <title>编组 6备份</title>
    <g id="页面-1" stroke="none" stroke-width="1" fill="none" fill-rule="evenodd">
        <g id="33-Dropdown-Wallet" transform="translate(-1084.000000, -162.000000)" fill="#000000">
            <g id="编组-8" transform="translate(1053.000000, 50.000000)">
                <g id="yucunkuan" transform="translate(41.500000, 121.000000) rotate(-270.000000) translate(-41.500000, -121.000000) translate(33.000000, 111.000000)">
                    <path d="M15.5,0 C16.0521127,0 16.4971831,0.459119718 16.4999296,1.0225 L16.4999296,1.0225 L16.4999296,18.9464085 C16.4999296,19.5126761 16.0521127,19.9690493 15.5,19.9690493 L15.5,19.9690493 L1.76897887,20.0000352 C1.21975352,20.0000352 0.771795775,19.543662 0.771795775,18.9773944 L0.771795775,18.9773944 L0.771795775,13.7858451 L2.43661972,13.7858451 L2.43661972,18.3352113 L14.8352465,18.3042254 L14.8352465,1.66482394 L2.43661972,1.69580986 L2.43661972,6.24228873 L0.771795775,6.24228873 L0.771795775,1.05073944 C0.771795775,0.487359155 1.21975352,0.0309859155 1.76897887,0.0309859155 L1.76897887,0.0309859155 Z M4.53943222,6.71274648 C4.75069982,6.71274648 4.96471391,6.79429577 5.1281294,6.95771127 C5.45203785,7.28176056 5.45203785,7.80841549 5.1281294,8.13232394 L3.80136884,9.45922535 L10.3646787,9.45922535 C10.8239393,9.45922535 11.195735,9.83373239 11.195735,10.2901056 C11.195735,10.7492254 10.8210519,11.121162 10.3646787,11.121162 L3.80136884,11.121162 L5.1281294,12.450669 C5.45203785,12.7774648 5.45203785,13.3042606 5.1281294,13.628169 C4.96471391,13.7915845 4.75069982,13.8703873 4.53943222,13.8703873 C4.32816461,13.8703873 4.11400968,13.7886972 3.95059419,13.628169 L1.20700264,10.8816901 C0.880206866,10.5577817 0.880206866,10.0282394 1.20700264,9.70419014 L3.95059419,6.95771127 C4.11400968,6.79429577 4.32816461,6.71274648 4.53943222,6.71274648 Z" id="形状结合"></path>
                </g>
            </g>
        </g>
    </g>
</svg>