<?xml version="1.0" encoding="UTF-8"?>
<svg width="17px" height="20px" viewBox="0 0 17 20" version="1.1" xmlns="http://www.w3.org/2000/svg" xmlns:xlink="http://www.w3.org/1999/xlink">
    <title>编组 54</title>
    <defs>
        <filter id="filter-1">
            <feColorMatrix in="SourceGraphic" type="matrix" values="0 0 0 0 0.000000 0 0 0 0 0.000000 0 0 0 0 0.000000 0 0 0 1.000000 0"></feColorMatrix>
        </filter>
    </defs>
    <g id="页面-1" stroke="none" stroke-width="1" fill="none" fill-rule="evenodd">
        <g id="28-Dropdown-Buy-Crypto" transform="translate(-358.000000, -293.000000)">
            <g id="编组-12" transform="translate(328.000000, 50.000000)">
                <g id="编组-54" transform="translate(30.000000, 235.000000)" filter="url(#filter-1)">
                    <g transform="translate(0.000000, 8.000000)">
                        <path d="M13.2777778,7.30428111 L13.2777778,8.61375776 C13.2777778,8.96665986 12.9787656,9.2513722 12.6081388,9.2513722 L-0.402336323,9.2513722 L1.77404148,11.3236678 C2.03714418,11.574188 2.03714418,11.9727074 1.77404148,12.2232276 L0.805361113,13.1454432 C0.542404389,13.3959634 0.123869072,13.3959634 -0.139233626,13.1454432 L-5.8672059,7.69140317 C-6.11833877,7.45230818 -6.11833877,7.07658351 -5.8672059,6.83746072 C-5.74771197,6.72357022 -5.59213338,6.66666667 -5.42473093,6.66666667 L12.6081388,6.66666667 C12.9787656,6.66666667 13.2777778,6.95137901 13.2777778,7.30428111 Z" id="路径" fill="#FFFFFF" transform="translate(3.611111, 10.000000) scale(1, -1) rotate(-270.000000) translate(-3.611111, -10.000000) "></path>
                        <path d="M22.6469461,13.3333333 L4.61411238,13.3333333 C4.24333974,13.3333333 3.94444444,13.0487047 3.94444444,12.6956918 L3.94444444,11.3862443 C3.94444444,11.0333147 4.24333974,10.7486027 4.61411238,10.7486027 L17.6245534,10.7486027 L15.4481764,8.67630927 C15.1850738,8.42581715 15.1850738,8.02729811 15.4481764,7.77688938 L16.4167396,6.85453576 C16.6798422,6.60404364 17.0983774,6.60404364 17.3614508,6.85453576 L23.0894501,12.3085701 C23.3405537,12.5476926 23.3405537,12.9234169 23.0894501,13.1625117 C22.9698102,13.2764298 22.8143777,13.3333333 22.6469461,13.3333333 Z" id="路径" fill="#FFFFFF" transform="translate(13.611111, 10.000000) scale(1, -1) rotate(-270.000000) translate(-13.611111, -10.000000) "></path>
                    </g>
                </g>
            </g>
        </g>
    </g>
</svg>