<?xml version="1.0" encoding="UTF-8"?>
<svg width="21px" height="18px" viewBox="0 0 21 18" version="1.1" xmlns="http://www.w3.org/2000/svg" xmlns:xlink="http://www.w3.org/1999/xlink">
    <title>编组 6</title>
    <g id="页面-1" stroke="none" stroke-width="1" fill="none" fill-rule="evenodd">
        <g id="33-Dropdown-Wallet" transform="translate(-1084.000000, -122.000000)" fill="#000000">
            <g id="编组-8" transform="translate(1053.000000, 50.000000)">
                <g id="yucunkuan" transform="translate(41.500000, 81.000000) rotate(-270.000000) translate(-41.500000, -81.000000) translate(33.000000, 71.000000)">
                    <path d="M15.5,0 C16.0521127,0 16.4971831,0.459119718 16.4999296,1.0225 L16.4999296,1.0225 L16.4999296,18.9464085 C16.4999296,19.5126761 16.0521127,19.9690493 15.5,19.9690493 L15.5,19.9690493 L1.76897887,20.0000352 C1.21975352,20.0000352 0.771795775,19.543662 0.771795775,18.9773944 L0.771795775,18.9773944 L0.771795775,13.7858451 L2.43661972,13.7858451 L2.43661972,18.3352113 L14.8352465,18.3042254 L14.8352465,1.66482394 L2.43661972,1.69580986 L2.43661972,6.24228873 L0.771795775,6.24228873 L0.771795775,1.05073944 C0.771795775,0.487359155 1.21975352,0.0309859155 1.76897887,0.0309859155 L1.76897887,0.0309859155 Z M7.61820863,6.71274648 C7.82947623,6.71274648 8.04363116,6.79429577 8.20704665,6.95771127 L8.20704665,6.95771127 L10.9506382,9.70419014 C11.277434,10.0282394 11.277434,10.5577817 10.9506382,10.8816901 L10.9506382,10.8816901 L8.20704665,13.628169 C8.04363116,13.7886972 7.82947623,13.8703873 7.61820863,13.8703873 C7.40694102,13.8703873 7.19292694,13.7915845 7.02951144,13.628169 C6.70560299,13.3042606 6.70560299,12.7774648 7.02951144,12.450669 L7.02951144,12.450669 L8.35627201,11.121162 L1.79296215,11.121162 C1.33658891,11.121162 0.96190581,10.7492254 0.96190581,10.2901056 C0.96190581,9.83373239 1.33370158,9.45922535 1.79296215,9.45922535 L1.79296215,9.45922535 L8.35627201,9.45922535 L7.02951144,8.13232394 C6.70560299,7.80841549 6.70560299,7.28176056 7.02951144,6.95771127 C7.19292694,6.79429577 7.40694102,6.71274648 7.61820863,6.71274648 Z" id="形状结合"></path>
                </g>
            </g>
        </g>
    </g>
</svg>