<?xml version="1.0" encoding="UTF-8"?>
<svg width="21px" height="20px" viewBox="0 0 21 20" version="1.1" xmlns="http://www.w3.org/2000/svg" xmlns:xlink="http://www.w3.org/1999/xlink">
    <title>wodezichan</title>
    <g id="页面-1" stroke="none" stroke-width="1" fill="none" fill-rule="evenodd">
        <g id="33-Dropdown-Wallet" transform="translate(-1084.000000, -80.000000)" fill="#000000">
            <g id="编组-8" transform="translate(1053.000000, 50.000000)">
                <g id="wodezichan" transform="translate(31.000000, 30.000000)">
                    <path d="M19.4326954,15.2017863 L14.1544498,15.2017863 C12.4348325,15.2017863 11.0356938,13.8026156 11.0356938,12.0828708 C11.0356938,10.3632536 12.4348325,8.96411483 14.1544498,8.96411483 L19.4324402,8.96411483 C19.8300478,8.96411483 20.1521532,9.2860925 20.1521532,9.68366826 C20.1521532,10.0812759 19.8300478,10.4032536 19.4324402,10.4032536 L14.1544498,10.4032536 C13.2286762,10.4032536 12.4752153,11.1568421 12.4752153,12.0826475 C12.4752153,13.0085486 13.2286762,13.7620096 14.1544498,13.7620096 L19.4324402,13.7620096 C19.8300478,13.7620096 20.1521532,14.0841148 20.1521532,14.4816906 C20.1523764,14.8798086 19.830303,15.2017863 19.4326954,15.2017863 Z M18.0225837,5.23106858 C17.7286443,5.23106858 17.4525359,5.0492504 17.3461244,4.75732057 L16.2056459,1.62373206 C16.1761085,1.54236045 16.115311,1.50411483 16.0816587,1.48829346 C16.0480064,1.47247209 15.979362,1.44966507 15.898118,1.48031898 L5.74236045,5.17684211 C5.36880383,5.31218501 4.95562998,5.12028708 4.81971292,4.74660287 C4.68363636,4.37304625 4.87626794,3.96025518 5.24995215,3.82392344 L15.4057097,0.127400319 C15.8274641,-0.0257416268 16.283764,-0.00555023923 16.6897289,0.183221691 C17.0962998,0.372854864 17.4048166,0.709409888 17.5581818,1.13094099 L18.6985327,4.2646571 C18.8346093,4.63821372 18.6419777,5.05113238 18.2682935,5.18733652 C18.1896651,5.21623604 18.1064434,5.23094099 18.0225837,5.23106858 Z" id="Fill-1"></path>
                    <path d="M18.9527273,20.0000319 L1.67936204,20.0000319 C0.753588517,20.0000319 0,19.2464434 0,18.3206699 L0,5.84545455 C0,4.91968102 0.753588517,4.1660925 1.67936204,4.1660925 L18.9529825,4.1660925 C19.878756,4.1660925 20.6323445,4.91968102 20.6323445,5.84545455 L20.6323445,18.320925 C20.6320893,19.2466986 19.878756,20.0000319 18.9527273,20.0000319 Z M1.67936204,5.60535885 C1.54692185,5.60535885 1.43952153,5.71275917 1.43952153,5.84523126 L1.43952153,18.3206699 C1.43952153,18.45311 1.54692185,18.5605423 1.67936204,18.5605423 L18.9529825,18.5605423 C19.0854226,18.5605423 19.192823,18.45311 19.192823,18.3206699 L19.192823,5.84545455 C19.192823,5.71301435 19.0854226,5.60561404 18.9529825,5.60561404 L1.67936204,5.60561404 L1.67936204,5.60535885 Z" id="Fill-3"></path>
                </g>
            </g>
        </g>
    </g>
</svg>