<?xml version="1.0" encoding="UTF-8"?>
<svg width="16px" height="20px" viewBox="0 0 16 20" version="1.1" xmlns="http://www.w3.org/2000/svg" xmlns:xlink="http://www.w3.org/1999/xlink">
    <title>workspace_premium_FILL0_wght400_GRAD0_opsz48</title>
    <g id="页面-1" stroke="none" stroke-width="1" fill="none" fill-rule="evenodd">
        <g id="35-Dropdown-user-center-verified" transform="translate(-1206.000000, -299.000000)" fill="#000000" fill-rule="nonzero">
            <g id="编组-6" transform="translate(1160.000000, 50.000000)">
                <g id="workspace_premium_FILL0_wght400_GRAD0_opsz48" transform="translate(46.000000, 249.000000)">
                    <path d="M5.35714286,11.1428571 L6.21428571,8.4047619 L3.95238095,6.64285714 L6.71428571,6.64285714 L7.61904762,3.80952381 L8.5,6.64285714 L11.2857143,6.64285714 L9.02380952,8.4047619 L9.85714286,11.1428571 L7.61904762,9.45238095 L5.35714286,11.1428571 Z M2,20 L2,12.7619048 C1.28571429,12.015873 0.773809524,11.1984127 0.464285714,10.3095238 C0.154761905,9.42063492 0,8.52380952 0,7.61904762 C0,5.46031746 0.73015873,3.65079365 2.19047619,2.19047619 C3.65079365,0.73015873 5.46031746,0 7.61904762,0 C9.77777778,0 11.5873016,0.73015873 13.047619,2.19047619 C14.5079365,3.65079365 15.2380952,5.46031746 15.2380952,7.61904762 C15.2380952,8.52380952 15.0833333,9.42063492 14.7738095,10.3095238 C14.4642857,11.1984127 13.952381,12.015873 13.2380952,12.7619048 L13.2380952,20 L7.61904762,18.1190476 L2,20 Z M7.61904762,13.8095238 C9.34920635,13.8095238 10.8134921,13.2103175 12.0119048,12.0119048 C13.2103175,10.8134921 13.8095238,9.34920635 13.8095238,7.61904762 C13.8095238,5.88888889 13.2103175,4.42460317 12.0119048,3.22619048 C10.8134921,2.02777778 9.34920635,1.42857143 7.61904762,1.42857143 C5.88888889,1.42857143 4.42460317,2.02777778 3.22619048,3.22619048 C2.02777778,4.42460317 1.42857143,5.88888889 1.42857143,7.61904762 C1.42857143,9.34920635 2.02777778,10.8134921 3.22619048,12.0119048 C4.42460317,13.2103175 5.88888889,13.8095238 7.61904762,13.8095238 Z M3.42857143,18 L7.61904762,16.6904762 L11.8095238,18 L11.8095238,13.9285714 C11.1746032,14.3888889 10.4920635,14.7222222 9.76190476,14.9285714 C9.03174603,15.1349206 8.31746032,15.2380952 7.61904762,15.2380952 C6.92063492,15.2380952 6.20634921,15.1349206 5.47619048,14.9285714 C4.74603175,14.7222222 4.06349206,14.3888889 3.42857143,13.9285714 L3.42857143,18 Z" id="形状"></path>
                </g>
            </g>
        </g>
    </g>
</svg>