<?xml version="1.0" encoding="UTF-8"?>
<svg width="17px" height="16px" viewBox="0 0 17 16" version="1.1" xmlns="http://www.w3.org/2000/svg" xmlns:xlink="http://www.w3.org/1999/xlink">
    <title>telegram</title>
    <g id="页面-1" stroke="none" stroke-width="1" fill="none" fill-rule="evenodd">
        <g id="31-Dropdown-help" transform="translate(-1191.000000, -162.000000)" fill="#000000">
            <g id="编组-6" transform="translate(1161.000000, 50.000000)">
                <path d="M46.4456124,112.517556 C46.1379025,112.19876 45.7176382,112.013025 45.2746791,112 C45.0472835,112.000497 44.8221997,112.046608 44.61295,112.135746 L30.5284174,118.236203 C30.1875974,118.375056 29.9751411,118.717716 30.0023351,119.084661 L30.0023351,119.636197 C29.9835926,120.018752 30.2235163,120.366383 30.587752,120.48463 L34.2446998,121.706446 L35.3476481,125.431255 C35.4987314,125.963079 35.9282923,126.369921 36.4676733,126.491772 C36.5690667,126.5043 36.6716781,126.5043 36.7730715,126.491772 C37.1494127,126.490529 37.5108146,126.344665 37.7828044,126.084557 L39.1317913,124.811858 L41.7451255,126.873581 C42.2569396,127.273338 42.9520772,127.345773 43.5353563,127.06031 L43.8153751,126.916013 C44.3006912,126.666569 44.6423812,126.205638 44.7401454,125.668768 L46.9716946,114.129684 C47.0781092,113.538052 46.8805177,112.932551 46.4456124,112.517556 Z M43.4928999,125.465161 C43.4649601,125.613609 43.3713471,125.741401 43.2384097,125.813065 L42.9583909,125.957263 C42.9032324,125.985302 42.8421577,125.999868 42.780213,125.999696 C42.689906,125.998029 42.6029051,125.965018 42.5341495,125.90638 L39.3439493,123.361005 C39.1865521,123.221481 38.949835,123.221481 38.7924379,123.361005 L36.9088178,125.134234 C36.8742411,125.159688 36.8329778,125.174428 36.7900491,125.176665 L36.7900491,122.181646 C36.7902479,122.062802 36.839391,121.949179 36.9257954,121.867622 C39.6324444,119.322273 41.2530234,117.896849 42.2202252,117.082272 C42.2823688,117.025473 42.3190832,116.945954 42.3220909,116.861762 C42.3289764,116.779036 42.2977058,116.697877 42.2372277,116.641152 C42.1520662,116.534265 42.0050595,116.499192 41.8808719,116.556289 L35.4664913,120.603498 C35.3510535,120.658458 35.2170472,120.658458 35.1015845,120.603498 L31.2750097,119.296819 L45.079623,113.30668 C45.1298101,113.294723 45.1820604,113.294723 45.232347,113.30668 C45.3564352,113.309886 45.4735384,113.365318 45.5547227,113.459404 C45.6720994,113.584188 45.7226097,113.757692 45.6904691,113.926077 L43.4928999,125.465161 Z" id="telegram"></path>
            </g>
        </g>
    </g>
</svg>