<?xml version="1.0" encoding="UTF-8"?>
<svg width="17px" height="18px" viewBox="0 0 17 18" version="1.1" xmlns="http://www.w3.org/2000/svg" xmlns:xlink="http://www.w3.org/1999/xlink">
    <title>account_balance_FILL0_wght400_GRAD0_opsz48</title>
    <g id="页面-1" stroke="none" stroke-width="1" fill="none" fill-rule="evenodd">
        <g id="35-Dropdown-user-center-verified" transform="translate(-1206.000000, -341.000000)" fill="#000000" fill-rule="nonzero">
            <g id="编组-6" transform="translate(1160.000000, 50.000000)">
                <g id="account_balance_FILL0_wght400_GRAD0_opsz48" transform="translate(46.000000, 291.000000)">
                    <path d="M2.805,14.85375 L2.805,7.65 L4.08,7.65 L4.08,14.85375 L2.805,14.85375 Z M7.9475,14.85375 L7.9475,7.65 L9.2225,7.65 L9.2225,14.85375 L7.9475,14.85375 Z M0,17.40375 L0,16.12875 L17,16.12875 L17,17.40375 L0,17.40375 Z M12.92,14.85375 L12.92,7.65 L14.195,7.65 L14.195,14.85375 L12.92,14.85375 Z M0,6.375 L0,5.24875 L8.5,0.40375 L17,5.24875 L17,6.375 L0,6.375 Z M2.8475,5.1 L14.1525,5.1 L2.8475,5.1 Z M2.8475,5.1 L14.1525,5.1 L8.5,1.87 L2.8475,5.1 Z" id="形状"></path>
                </g>
            </g>
        </g>
    </g>
</svg>