<?xml version="1.0" encoding="UTF-8"?>
<svg width="20px" height="20px" viewBox="0 0 20 20" version="1.1" xmlns="http://www.w3.org/2000/svg" xmlns:xlink="http://www.w3.org/1999/xlink">
    <title>currency_exchange_FILL0_wght400_GRAD0_opsz48</title>
    <g id="页面-1" stroke="none" stroke-width="1" fill="none" fill-rule="evenodd">
        <g id="34-Dropdown-Orders" transform="translate(-1156.000000, -122.000000)" fill="#000000" fill-rule="nonzero">
            <g id="currency_exchange_FILL0_wght400_GRAD0_opsz48" transform="translate(1156.000000, 122.000000)">
                <path d="M10,20 C8.3030303,20 6.66666667,19.5 5.09090909,18.5 C3.51515152,17.5 2.27272727,16.3560606 1.36363636,15.0681818 L1.36363636,18.1818182 L0,18.1818182 L0,12.7272727 L5.45454545,12.7272727 L5.45454545,14.0909091 L2.34090909,14.0909091 C3.11363636,15.2575758 4.21590909,16.3068182 5.64772727,17.2386364 C7.07954545,18.1704545 8.53030303,18.6363636 10,18.6363636 C11.1818182,18.6363636 12.2992424,18.4090909 13.3522727,17.9545455 C14.405303,17.5 15.3219697,16.8825758 16.1022727,16.1022727 C16.8825758,15.3219697 17.5,14.405303 17.9545455,13.3522727 C18.4090909,12.2992424 18.6363636,11.1818182 18.6363636,10 L20,10 C20,11.3787879 19.7386364,12.6742424 19.2159091,13.8863636 C18.6931818,15.0984848 17.9772727,16.1590909 17.0681818,17.0681818 C16.1590909,17.9772727 15.0984848,18.6931818 13.8863636,19.2159091 C12.6742424,19.7386364 11.3787879,20 10,20 Z M9.34090909,16.5227273 L9.34090909,15.2954545 C8.65909091,15.1136364 8.08712121,14.8219697 7.625,14.4204545 C7.16287879,14.0189394 6.77272727,13.469697 6.45454545,12.7727273 L7.61363636,12.3863636 C7.79545455,12.9621212 8.11742424,13.4166667 8.57954545,13.75 C9.04166667,14.0833333 9.56818182,14.25 10.1590909,14.25 C10.7651515,14.25 11.2689394,14.1022727 11.6704545,13.8068182 C12.0719697,13.5113636 12.2727273,13.1212121 12.2727273,12.6363636 C12.2727273,12.1363636 12.0833333,11.7159091 11.7045455,11.375 C11.3257576,11.0340909 10.6287879,10.6515152 9.61363636,10.2272727 C8.70454545,9.84848485 8.02272727,9.43939394 7.56818182,9 C7.11363636,8.56060606 6.88636364,7.96969697 6.88636364,7.22727273 C6.88636364,6.56060606 7.11363636,5.99242424 7.56818182,5.52272727 C8.02272727,5.0530303 8.62878788,4.76515152 9.38636364,4.65909091 L9.38636364,3.5 L10.6363636,3.5 L10.6363636,4.65909091 C11.2121212,4.71969697 11.7121212,4.90151515 12.1363636,5.20454545 C12.5606061,5.50757576 12.9015152,5.92424242 13.1590909,6.45454545 L12.0681818,6.97727273 C11.8409091,6.5530303 11.5606061,6.23484848 11.2272727,6.02272727 C10.8939394,5.81060606 10.5,5.70454545 10.0454545,5.70454545 C9.45454545,5.70454545 8.98863636,5.84090909 8.64772727,6.11363636 C8.30681818,6.38636364 8.13636364,6.75757576 8.13636364,7.22727273 C8.13636364,7.71212121 8.33333333,8.09848485 8.72727273,8.38636364 C9.12121212,8.67424242 9.75757576,9 10.6363636,9.36363636 C11.6818182,9.8030303 12.4242424,10.2651515 12.8636364,10.75 C13.3030303,11.2348485 13.5227273,11.8636364 13.5227273,12.6363636 C13.5227273,13.0151515 13.4545455,13.3636364 13.3181818,13.6818182 C13.1818182,14 12.9886364,14.2727273 12.7386364,14.5 C12.4886364,14.7272727 12.1818182,14.9128788 11.8181818,15.0568182 C11.4545455,15.2007576 11.0454545,15.2954545 10.5909091,15.3409091 L10.5909091,16.5227273 L9.34090909,16.5227273 Z M0,10 C0,8.62121212 0.261363636,7.32575758 0.784090909,6.11363636 C1.30681818,4.90151515 2.02272727,3.84090909 2.93181818,2.93181818 C3.84090909,2.02272727 4.90151515,1.30681818 6.11363636,0.784090909 C7.32575758,0.261363636 8.62121212,0 10,0 C11.6969697,0 13.3333333,0.5 14.9090909,1.5 C16.4848485,2.5 17.7272727,3.64393939 18.6363636,4.93181818 L18.6363636,1.81818182 L20,1.81818182 L20,7.27272727 L14.5454545,7.27272727 L14.5454545,5.90909091 L17.6590909,5.90909091 C16.8863636,4.74242424 15.7878788,3.69318182 14.3636364,2.76136364 C12.9393939,1.82954545 11.4848485,1.36363636 10,1.36363636 C8.81818182,1.36363636 7.70075758,1.59090909 6.64772727,2.04545455 C5.59469697,2.5 4.6780303,3.11742424 3.89772727,3.89772727 C3.11742424,4.6780303 2.5,5.59469697 2.04545455,6.64772727 C1.59090909,7.70075758 1.36363636,8.81818182 1.36363636,10 L0,10 Z" id="形状"></path>
            </g>
        </g>
    </g>
</svg>