<?xml version="1.0" encoding="UTF-8"?>
<svg width="17px" height="17px" viewBox="0 0 17 17" version="1.1" xmlns="http://www.w3.org/2000/svg" xmlns:xlink="http://www.w3.org/1999/xlink">
    <title>help_FILL0_wght400_GRAD0_opsz48</title>
    <g id="页面-1" stroke="none" stroke-width="1" fill="none" fill-rule="evenodd">
        <g id="31-Dropdown-help" transform="translate(-1191.000000, -81.000000)" fill="#000000" fill-rule="nonzero">
            <g id="编组-6" transform="translate(1161.000000, 50.000000)">
                <g id="help_FILL0_wght400_GRAD0_opsz48" transform="translate(30.000000, 31.000000)">
                    <path d="M8.585,13.45125 C8.81166667,13.45125 9.00291667,13.3733333 9.15875,13.2175 C9.31458333,13.0616667 9.3925,12.8704167 9.3925,12.64375 C9.3925,12.4170833 9.31458333,12.2258333 9.15875,12.07 C9.00291667,11.9141667 8.81166667,11.83625 8.585,11.83625 C8.35833333,11.83625 8.16708333,11.9141667 8.01125,12.07 C7.85541667,12.2258333 7.7775,12.4170833 7.7775,12.64375 C7.7775,12.8704167 7.85541667,13.0616667 8.01125,13.2175 C8.16708333,13.3733333 8.35833333,13.45125 8.585,13.45125 Z M7.84125,10.34875 L9.095,10.34875 C9.095,9.98041667 9.14104167,9.64395833 9.233125,9.339375 C9.32520833,9.03479167 9.61208333,8.68416667 10.09375,8.2875 C10.5329167,7.91916667 10.8445833,7.55791667 11.02875,7.20375 C11.2129167,6.84958333 11.305,6.46 11.305,6.035 C11.305,5.28416667 11.060625,4.68208333 10.571875,4.22875 C10.083125,3.77541667 9.435,3.54875 8.6275,3.54875 C7.93333333,3.54875 7.320625,3.72229167 6.789375,4.069375 C6.258125,4.41645833 5.87208333,4.89458333 5.63125,5.50375 L6.7575,5.92875 C6.91333333,5.53208333 7.14708333,5.22395833 7.45875,5.004375 C7.77041667,4.78479167 8.13875,4.675 8.56375,4.675 C9.04541667,4.675 9.435,4.80604167 9.7325,5.068125 C10.03,5.33020833 10.17875,5.66666667 10.17875,6.0775 C10.17875,6.38916667 10.0866667,6.683125 9.9025,6.959375 C9.71833333,7.235625 9.44916667,7.5225 9.095,7.82 C8.67,8.18833333 8.35479167,8.553125 8.149375,8.914375 C7.94395833,9.275625 7.84125,9.75375 7.84125,10.34875 L7.84125,10.34875 Z M8.5,17 C7.33833333,17 6.24041667,16.776875 5.20625,16.330625 C4.17208333,15.884375 3.26895833,15.2752083 2.496875,14.503125 C1.72479167,13.7310417 1.115625,12.8279167 0.669375,11.79375 C0.223125,10.7595833 0,9.66166667 0,8.5 C0,7.32416667 0.223125,6.21916667 0.669375,5.185 C1.115625,4.15083333 1.72479167,3.25125 2.496875,2.48625 C3.26895833,1.72125 4.17208333,1.115625 5.20625,0.669375 C6.24041667,0.223125 7.33833333,0 8.5,0 C9.67583333,0 10.7808333,0.223125 11.815,0.669375 C12.8491667,1.115625 13.74875,1.72125 14.51375,2.48625 C15.27875,3.25125 15.884375,4.15083333 16.330625,5.185 C16.776875,6.21916667 17,7.32416667 17,8.5 C17,9.66166667 16.776875,10.7595833 16.330625,11.79375 C15.884375,12.8279167 15.27875,13.7310417 14.51375,14.503125 C13.74875,15.2752083 12.8491667,15.884375 11.815,16.330625 C10.7808333,16.776875 9.67583333,17 8.5,17 Z M8.5,15.725 C10.5116667,15.725 12.21875,15.0202083 13.62125,13.610625 C15.02375,12.2010417 15.725,10.4975 15.725,8.5 C15.725,6.48833333 15.02375,4.78125 13.62125,3.37875 C12.21875,1.97625 10.5116667,1.275 8.5,1.275 C6.5025,1.275 4.79895833,1.97625 3.389375,3.37875 C1.97979167,4.78125 1.275,6.48833333 1.275,8.5 C1.275,10.4975 1.97979167,12.2010417 3.389375,13.610625 C4.79895833,15.0202083 6.5025,15.725 8.5,15.725 Z" id="形状"></path>
                </g>
            </g>
        </g>
    </g>
</svg>