<?xml version="1.0" encoding="UTF-8"?>
<svg width="17px" height="17px" viewBox="0 0 17 17" version="1.1" xmlns="http://www.w3.org/2000/svg" xmlns:xlink="http://www.w3.org/1999/xlink">
    <title>sms_FILL0_wght400_GRAD0_opsz48</title>
    <g id="页面-1" stroke="none" stroke-width="1" fill="none" fill-rule="evenodd">
        <g id="31-Dropdown-help" transform="translate(-1192.000000, -121.000000)" fill="#000000" fill-rule="nonzero">
            <g id="编组-6" transform="translate(1161.000000, 50.000000)">
                <g id="sms_FILL0_wght400_GRAD0_opsz48" transform="translate(31.000000, 71.000000)">
                    <path d="M4.8025,7.58625 C5.04333333,7.58625 5.24520833,7.50479167 5.408125,7.341875 C5.57104167,7.17895833 5.6525,6.97708333 5.6525,6.73625 C5.6525,6.49541667 5.57104167,6.29354167 5.408125,6.130625 C5.24520833,5.96770833 5.04333333,5.88625 4.8025,5.88625 C4.56166667,5.88625 4.35979167,5.96770833 4.196875,6.130625 C4.03395833,6.29354167 3.9525,6.49541667 3.9525,6.73625 C3.9525,6.97708333 4.03395833,7.17895833 4.196875,7.341875 C4.35979167,7.50479167 4.56166667,7.58625 4.8025,7.58625 Z M8.56375,7.58625 C8.80458333,7.58625 9.00645833,7.50479167 9.169375,7.341875 C9.33229167,7.17895833 9.41375,6.97708333 9.41375,6.73625 C9.41375,6.49541667 9.33229167,6.29354167 9.169375,6.130625 C9.00645833,5.96770833 8.80458333,5.88625 8.56375,5.88625 C8.32291667,5.88625 8.12104167,5.96770833 7.958125,6.130625 C7.79520833,6.29354167 7.71375,6.49541667 7.71375,6.73625 C7.71375,6.97708333 7.79520833,7.17895833 7.958125,7.341875 C8.12104167,7.50479167 8.32291667,7.58625 8.56375,7.58625 Z M12.17625,7.58625 C12.4170833,7.58625 12.6189583,7.50479167 12.781875,7.341875 C12.9447917,7.17895833 13.02625,6.97708333 13.02625,6.73625 C13.02625,6.49541667 12.9447917,6.29354167 12.781875,6.130625 C12.6189583,5.96770833 12.4170833,5.88625 12.17625,5.88625 C11.9354167,5.88625 11.7335417,5.96770833 11.570625,6.130625 C11.4077083,6.29354167 11.32625,6.49541667 11.32625,6.73625 C11.32625,6.97708333 11.4077083,7.17895833 11.570625,7.341875 C11.7335417,7.50479167 11.9354167,7.58625 12.17625,7.58625 Z M0,17 L0,1.275 C0,0.949166667 0.1275,0.655208333 0.3825,0.393125 C0.6375,0.131041667 0.935,0 1.275,0 L15.725,0 C16.0508333,0 16.3447917,0.131041667 16.606875,0.393125 C16.8689583,0.655208333 17,0.949166667 17,1.275 L17,12.325 C17,12.6508333 16.8689583,12.9447917 16.606875,13.206875 C16.3447917,13.4689583 16.0508333,13.6 15.725,13.6 L3.4,13.6 L0,17 Z M1.275,13.91875 L2.86875,12.325 L15.725,12.325 L15.725,1.275 L1.275,1.275 L1.275,13.91875 Z M1.275,1.275 L1.275,13.91875 L1.275,1.275 Z" id="形状"></path>
                </g>
            </g>
        </g>
    </g>
</svg>