<?xml version="1.0" encoding="UTF-8"?>
<svg width="17px" height="17px" viewBox="0 0 17 17" version="1.1" xmlns="http://www.w3.org/2000/svg" xmlns:xlink="http://www.w3.org/1999/xlink">
    <title>settings_FILL0_wght400_GRAD0_opsz48</title>
    <g id="页面-1" stroke="none" stroke-width="1" fill="none" fill-rule="evenodd">
        <g id="35-Dropdown-user-center-verified" transform="translate(-1206.000000, -381.000000)" fill="#000000" fill-rule="nonzero">
            <g id="编组-6" transform="translate(1160.000000, 50.000000)">
                <g id="settings_FILL0_wght400_GRAD0_opsz48" transform="translate(46.000000, 331.000000)">
                    <path d="M6.545,17 L6.12,14.3225 C5.85083333,14.2233333 5.5675,14.08875 5.27,13.91875 C4.9725,13.74875 4.71041667,13.5716667 4.48375,13.3875 L1.97625,14.535 L0,11.05 L2.295,9.37125 C2.26666667,9.24375 2.24895833,9.09854167 2.241875,8.935625 C2.23479167,8.77270833 2.23125,8.6275 2.23125,8.5 C2.23125,8.3725 2.23479167,8.22729167 2.241875,8.064375 C2.24895833,7.90145833 2.26666667,7.75625 2.295,7.62875 L0,5.95 L1.97625,2.465 L4.48375,3.6125 C4.71041667,3.42833333 4.9725,3.25125 5.27,3.08125 C5.5675,2.91125 5.85083333,2.78375 6.12,2.69875 L6.545,0 L10.455,0 L10.88,2.6775 C11.1491667,2.77666667 11.4360417,2.90770833 11.740625,3.070625 C12.0452083,3.23354167 12.30375,3.41416667 12.51625,3.6125 L15.02375,2.465 L17,5.95 L14.705,7.58625 C14.7333333,7.72791667 14.7510417,7.88020833 14.758125,8.043125 C14.7652083,8.20604167 14.76875,8.35833333 14.76875,8.5 C14.76875,8.64166667 14.7652083,8.79041667 14.758125,8.94625 C14.7510417,9.10208333 14.7333333,9.25083333 14.705,9.3925 L17,11.05 L15.02375,14.535 L12.51625,13.3875 C12.2895833,13.5716667 12.0310417,13.7522917 11.740625,13.929375 C11.4502083,14.1064583 11.1633333,14.2375 10.88,14.3225 L10.455,17 L6.545,17 Z M8.5,11.2625 C9.265,11.2625 9.91666667,10.9933333 10.455,10.455 C10.9933333,9.91666667 11.2625,9.265 11.2625,8.5 C11.2625,7.735 10.9933333,7.08333333 10.455,6.545 C9.91666667,6.00666667 9.265,5.7375 8.5,5.7375 C7.735,5.7375 7.08333333,6.00666667 6.545,6.545 C6.00666667,7.08333333 5.7375,7.735 5.7375,8.5 C5.7375,9.265 6.00666667,9.91666667 6.545,10.455 C7.08333333,10.9933333 7.735,11.2625 8.5,11.2625 Z M8.5,9.9875 C8.08916667,9.9875 7.73854167,9.84229167 7.448125,9.551875 C7.15770833,9.26145833 7.0125,8.91083333 7.0125,8.5 C7.0125,8.08916667 7.15770833,7.73854167 7.448125,7.448125 C7.73854167,7.15770833 8.08916667,7.0125 8.5,7.0125 C8.91083333,7.0125 9.26145833,7.15770833 9.551875,7.448125 C9.84229167,7.73854167 9.9875,8.08916667 9.9875,8.5 C9.9875,8.91083333 9.84229167,9.26145833 9.551875,9.551875 C9.26145833,9.84229167 8.91083333,9.9875 8.5,9.9875 Z M7.565,15.725 L9.435,15.725 L9.7325,13.345 C10.2,13.2316667 10.6427083,13.0545833 11.060625,12.81375 C11.4785417,12.5729167 11.8575,12.2825 12.1975,11.9425 L14.45,12.92 L15.3,11.39 L13.3025,9.92375 C13.3591667,9.68291667 13.4052083,9.445625 13.440625,9.211875 C13.4760417,8.978125 13.49375,8.74083333 13.49375,8.5 C13.49375,8.25916667 13.4795833,8.021875 13.45125,7.788125 C13.4229167,7.554375 13.3733333,7.31708333 13.3025,7.07625 L15.3,5.61 L14.45,4.08 L12.1975,5.0575 C11.8716667,4.68916667 11.5033333,4.38104167 11.0925,4.133125 C10.6816667,3.88520833 10.2283333,3.72583333 9.7325,3.655 L9.435,1.275 L7.565,1.275 L7.2675,3.655 C6.78583333,3.75416667 6.33604167,3.92416667 5.918125,4.165 C5.50020833,4.40583333 5.12833333,4.70333333 4.8025,5.0575 L2.55,4.08 L1.7,5.61 L3.6975,7.07625 C3.64083333,7.31708333 3.59479167,7.554375 3.559375,7.788125 C3.52395833,8.021875 3.50625,8.25916667 3.50625,8.5 C3.50625,8.74083333 3.52395833,8.978125 3.559375,9.211875 C3.59479167,9.445625 3.64083333,9.68291667 3.6975,9.92375 L1.7,11.39 L2.55,12.92 L4.8025,11.9425 C5.1425,12.2825 5.52145833,12.5729167 5.939375,12.81375 C6.35729167,13.0545833 6.8,13.2316667 7.2675,13.345 L7.565,15.725 Z" id="形状"></path>
                </g>
            </g>
        </g>
    </g>
</svg>