<?xml version="1.0" encoding="UTF-8"?>
<svg width="20px" height="20px" viewBox="0 0 20 20" version="1.1" xmlns="http://www.w3.org/2000/svg" xmlns:xlink="http://www.w3.org/1999/xlink">
    <title>update_FILL0_wght400_GRAD0_opsz48</title>
    <g id="页面-1" stroke="none" stroke-width="1" fill="none" fill-rule="evenodd">
        <g id="34-Dropdown-Orders" transform="translate(-1156.000000, -162.000000)" fill="#000000" fill-rule="nonzero">
            <g id="update_FILL0_wght400_GRAD0_opsz48" transform="translate(1156.000000, 162.000000)">
                <path d="M10.0833333,20 C8.69444444,20 7.38888889,19.7361111 6.16666667,19.2083333 C4.94444444,18.6805556 3.875,17.962963 2.95833333,17.0555556 C2.04166667,16.1481481 1.31944444,15.0833333 0.791666667,13.8611111 C0.263888889,12.6388889 0,11.3333333 0,9.94444444 C0,8.55555556 0.263888889,7.25925926 0.791666667,6.05555556 C1.31944444,4.85185185 2.04166667,3.80092593 2.95833333,2.90277778 C3.875,2.00462963 4.94444444,1.2962963 6.16666667,0.777777778 C7.38888889,0.259259259 8.69444444,0 10.0833333,0 C11.5648148,0 12.9675926,0.324074074 14.2916667,0.972222222 C15.6157407,1.62037037 16.7592593,2.50925926 17.7222222,3.63888889 L17.7222222,0.694444444 L19.3888889,0.694444444 L19.3888889,6.47222222 L13.5833333,6.47222222 L13.5833333,4.80555556 L16.5,4.80555556 C15.6851852,3.86111111 14.7268519,3.10185185 13.625,2.52777778 C12.5231481,1.9537037 11.3425926,1.66666667 10.0833333,1.66666667 C7.76851852,1.66666667 5.78703704,2.45833333 4.13888889,4.04166667 C2.49074074,5.625 1.66666667,7.56481481 1.66666667,9.86111111 C1.66666667,12.212963 2.48148148,14.212963 4.11111111,15.8611111 C5.74074074,17.5092593 7.73148148,18.3333333 10.0833333,18.3333333 C12.3981481,18.3333333 14.3518519,17.5185185 15.9444444,15.8888889 C17.537037,14.2592593 18.3333333,12.287037 18.3333333,9.97222222 L20,9.97222222 C20,12.75 19.037037,15.1157407 17.1111111,17.0694444 C15.1851852,19.0231481 12.8425926,20 10.0833333,20 Z M13.4722222,14.5277778 L9.19444444,10.3055556 L9.19444444,4.36111111 L10.8611111,4.36111111 L10.8611111,9.61111111 L14.6666667,13.3333333 L13.4722222,14.5277778 Z" id="形状"></path>
            </g>
        </g>
    </g>
</svg>