<?xml version="1.0" encoding="UTF-8"?>
<svg width="16px" height="18px" viewBox="0 0 16 18" version="1.1" xmlns="http://www.w3.org/2000/svg" xmlns:xlink="http://www.w3.org/1999/xlink">
    <title>编组 28</title>
    <g id="页面-1" stroke="none" stroke-width="1" fill="none" fill-rule="evenodd">
        <g id="36-Dropdown-user-center-Verifiy-your-account" transform="translate(-1212.000000, -137.000000)">
            <g id="编组-8" transform="translate(1161.000000, 50.000000)">
                <g id="编组-28" transform="translate(51.000000, 87.000000)">
                    <path d="M7.71432184,18 L7.50481971,17.926018 C0.777920272,15.5538251 1.96648558e-13,12.453106 1.96648558e-13,10.3272489 L1.96648558e-13,2.20766139 L0.600497324,2.22636014 C0.519188349,2.36842105 7.26757341,0.446243221 7.28628627,0.427522495 L7.71489984,0 L8.14293541,0.427522495 C8.15866192,0.442969291 15.5756505,2.36842105 14.329185,2.23409452 C14.4927117,2.23409452 14.6591285,2.2319412 14.8280741,2.22636014 L15.4285714,2.20766139 L15.4285714,10.3272489 C15.4285714,12.453106 14.6506512,15.5538251 7.92375172,17.926018 L7.71432184,18 Z" id="dunpai1" fill="#F49542"></path>
                    <path d="M8.128,11.438 L8.478,7.084 L8.478,4.004 L7.148,4.004 L7.148,7.084 L7.498,11.438 L8.128,11.438 Z M8.59,14 L8.59,12.446 L7.036,12.446 L7.036,14 L8.59,14 Z" id="!" fill="#FFFFFF" fill-rule="nonzero"></path>
                </g>
            </g>
        </g>
    </g>
</svg>