<?xml version="1.0" encoding="UTF-8"?>
<svg width="17px" height="20px" viewBox="0 0 17 20" version="1.1" xmlns="http://www.w3.org/2000/svg" xmlns:xlink="http://www.w3.org/1999/xlink">
    <title>verified_user_FILL0_wght400_GRAD0_opsz48</title>
    <g id="页面-1" stroke="none" stroke-width="1" fill="none" fill-rule="evenodd">
        <g id="35-Dropdown-user-center-verified" transform="translate(-1206.000000, -260.000000)" fill="#000000" fill-rule="nonzero">
            <g id="编组-6" transform="translate(1160.000000, 50.000000)">
                <g id="verified_user_FILL0_wght400_GRAD0_opsz48" transform="translate(46.000000, 210.000000)">
                    <path d="M7.33125,13.4878049 L13.3875,7.92682927 L12.271875,6.92682927 L7.4109375,11.3902439 L4.728125,8.92682927 L3.559375,10 L7.33125,13.4878049 Z M8.5,19.9756098 C6.02083333,19.4065041 3.984375,18.0853659 2.390625,16.0121951 C0.796875,13.9390244 0,11.6666667 0,9.19512195 L0,3.3902439 L8.5,0.463414634 L17,3.3902439 L17,9.19512195 C17,11.6666667 16.203125,13.9390244 14.609375,16.0121951 C13.015625,18.0853659 10.9791667,19.4065041 8.5,19.9756098 Z M8.5,18.4634146 C10.5364583,17.8455285 12.1966146,16.6788618 13.4804687,14.9634146 C14.7643229,13.2479675 15.40625,11.3252033 15.40625,9.19512195 L15.40625,4.41463415 L8.5,2.02439024 L1.59375,4.41463415 L1.59375,9.19512195 C1.59375,11.3252033 2.23567708,13.2479675 3.51953125,14.9634146 C4.80338542,16.6788618 6.46354167,17.8455285 8.5,18.4634146 Z" id="形状"></path>
                </g>
            </g>
        </g>
    </g>
</svg>