<?xml version="1.0" encoding="UTF-8"?>
<svg width="22px" height="20px" viewBox="0 0 22 20" version="1.1" xmlns="http://www.w3.org/2000/svg" xmlns:xlink="http://www.w3.org/1999/xlink">
    <title>yinhang</title>
    <g id="页面-1" stroke="none" stroke-width="1" fill="none" fill-rule="evenodd">
        <g id="28-Dropdown-Buy-Crypto" transform="translate(-356.000000, -145.000000)" fill="#212121">
            <g id="编组-12" transform="translate(328.000000, 50.000000)">
                <g id="编组-11" transform="translate(28.000000, 87.000000)">
                    <path d="M21.5170951,12.5163351 L11.6172082,8.22900201 C11.606235,8.22359433 11.5925602,8.21831854 11.5817538,8.21291087 C11.5136132,8.1724522 11.2219064,8.0135192 10.9057184,8 L10.870264,8 C10.551341,8.01622304 10.2624692,8.1724522 10.1915938,8.21291087 C10.1806539,8.21831854 10.1697141,8.22629817 10.1561727,8.22900201 L0.278031998,12.5163351 C0.103561583,12.5837002 0,12.7561854 0,12.9259337 L0,13.4433563 C0,13.6212162 0.144485919,13.764058 0.324426253,13.764058 L1.39289495,13.764058 C1.54011583,13.764058 1.66819199,13.8583297 1.70634801,13.9984677 C1.83989409,14.502371 2.40689793,14.4727277 2.49678471,14.46732 L19.260153,14.46732 C19.3500398,14.4754316 19.9170437,14.5050749 20.0505897,13.9984677 C20.0887791,13.8583297 20.2168553,13.764058 20.3640762,13.764058 L21.4325449,13.764058 C21.6124518,13.764058 21.7569378,13.6212162 21.7569378,13.4433563 L21.7569378,12.9528732 C21.7569378,12.9367491 21.7596727,12.9178222 21.7624077,12.9017311 C21.7814523,12.7427651 21.6805924,12.5999233 21.5170951,12.5163351 Z M21.0271819,26.2352941 L1.3279807,26.2352941 C0.571952485,26.2352941 0.588235294,26.8952137 0.588235294,26.8952137 L0.588235294,27.7123852 C0.588235294,27.8719444 0.731877068,28 0.910731364,28 L21.4417127,28 C21.6205339,28 21.7641478,27.8719444 21.7641478,27.7123852 L21.7641478,26.8952137 C21.7668662,26.8952137 21.7857959,26.2352941 21.0271819,26.2352941 Z M3.34984026,15.378778 L3.34984026,23.6448991 L2.49690521,23.6448991 C1.86618025,23.6448991 1.77846398,24.2309615 1.7674575,24.3437531 C1.7674575,24.354575 1.76470588,24.3653641 1.76470588,24.3733243 L1.76470588,24.7390006 C1.76470588,24.9164607 1.91007195,25.0588235 2.0911084,25.0588235 L20.2618663,25.0588235 C20.4428692,25.0588235 20.5882353,24.9164607 20.5882353,24.7390006 L20.5882353,24.3733243 C20.5882353,24.3626668 20.5882353,24.3518778 20.5854837,24.3437531 C20.5744772,24.2309615 20.4867945,23.6448991 19.856036,23.6448991 L19.0031009,23.6448991 L19.0031009,15.378778 C19.0031009,15.2013179 18.8578691,15.0588235 18.6768326,15.0588235 L16.5816754,15.0588235 C16.400639,15.0588235 16.2552729,15.2013179 16.2552729,15.378778 L16.2552729,23.6448991 L14.5824558,23.6448991 L14.5824558,15.378778 C14.5824558,15.2013179 14.4370898,15.0588235 14.2561876,15.0588235 L12.1774059,15.0588235 C11.9963694,15.0588235 11.8511376,15.2013179 11.8511376,15.378778 L11.8511376,23.660984 L10.493683,23.660984 L10.493683,15.378778 C10.493683,15.2013179 10.3483169,15.0588235 10.1672805,15.0588235 L8.08863299,15.0588235 C7.90763009,15.0588235 7.76226403,15.2013179 7.76226403,15.378778 L7.76226403,23.6448991 L6.08941338,23.6448991 L6.08941338,15.378778 C6.08941338,15.2013179 5.94404732,15.0588235 5.76301087,15.0588235 L3.68436341,15.0588235 C3.49507209,15.0588235 3.34984026,15.2013179 3.34984026,15.378778 Z" id="yinhang"></path>
                </g>
            </g>
        </g>
    </g>
</svg>