<?xml version="1.0" encoding="UTF-8"?>
<svg width="17px" height="17px" viewBox="0 0 17 17" version="1.1" xmlns="http://www.w3.org/2000/svg" xmlns:xlink="http://www.w3.org/1999/xlink">
    <title>grid_view_FILL0_wght400_GRAD0_opsz48</title>
    <g id="页面-1" stroke="none" stroke-width="1" fill="none" fill-rule="evenodd">
        <g id="35-Dropdown-user-center-verified" transform="translate(-1206.000000, -221.000000)" fill="#000000" fill-rule="nonzero">
            <g id="编组-6" transform="translate(1160.000000, 50.000000)">
                <g id="grid_view_FILL0_wght400_GRAD0_opsz48" transform="translate(46.000000, 171.000000)">
                    <path d="M0,7.79166667 L0,0 L7.79166667,0 L7.79166667,7.79166667 L0,7.79166667 Z M0,17 L0,9.20833333 L7.79166667,9.20833333 L7.79166667,17 L0,17 Z M9.20833333,7.79166667 L9.20833333,0 L17,0 L17,7.79166667 L9.20833333,7.79166667 Z M9.20833333,17 L9.20833333,9.20833333 L17,9.20833333 L17,17 L9.20833333,17 Z M1.41666667,6.375 L6.375,6.375 L6.375,1.41666667 L1.41666667,1.41666667 L1.41666667,6.375 Z M10.625,6.375 L15.5833333,6.375 L15.5833333,1.41666667 L10.625,1.41666667 L10.625,6.375 Z M10.625,15.5833333 L15.5833333,15.5833333 L15.5833333,10.625 L10.625,10.625 L10.625,15.5833333 Z M1.41666667,15.5833333 L6.375,15.5833333 L6.375,10.625 L1.41666667,10.625 L1.41666667,15.5833333 Z" id="形状"></path>
                </g>
            </g>
        </g>
    </g>
</svg>