<?xml version="1.0" encoding="UTF-8"?>
<svg width="20px" height="20px" viewBox="0 0 20 20" version="1.1" xmlns="http://www.w3.org/2000/svg" xmlns:xlink="http://www.w3.org/1999/xlink">
    <title>qiandai</title>
    <g id="页面-1" stroke="none" stroke-width="1" fill="none" fill-rule="evenodd">
        <g id="28-Dropdown-Buy-Crypto" transform="translate(-357.000000, -220.000000)" fill="#000000">
            <g id="编组-12" transform="translate(328.000000, 50.000000)">
                <g id="编组-9" transform="translate(29.000000, 161.000000)">
                    <path d="M7.4508307,14.1798561 L12.4052844,14.1798561 C13.93843,14.1798561 15.1079137,10.8392986 15.1079137,10.8392986 C15.1079137,9.83894061 15.0081867,9.0820289 13.3057942,9.02870354 C11.60399,8.9748128 11.1962323,10.2244251 9.97311246,10.2244251 C8.71950418,10.2244251 8.09246984,9.24203067 6.54980934,9.02870354 C5.0076604,8.81429705 4.74820144,9.83894061 4.74820144,10.8392986 C4.74820144,10.8393757 5.91727582,14.1798561 7.4508307,14.1798561 Z M12.4787051,14.6115108 L7.23403863,14.6115108 C1.42633505,14.6115108 -1.62181379e-12,26.0012811 -1.62181379e-12,26.0012811 C-1.62181379e-12,27.4973856 1.21462487,29 2.71284793,29 L16.999485,29 C18.497631,29 19.7122302,27.4973856 19.7122302,26.0012811 C19.7122302,26.0013836 18.2855101,14.6115108 12.4787051,14.6115108 Z M12.5917826,21.5504434 C13.1322779,21.2794195 13.4762349,20.7976631 13.3963917,19.996798 C13.2919278,18.9008307 12.3738765,18.5335177 11.1577835,18.4311612 L11.1577835,16.9136691 L10.2118345,16.9136691 L10.2118345,18.3889765 C9.96614047,18.3889765 9.7143065,18.394996 9.46253343,18.4010156 L9.46253343,16.9136691 L8.51663321,16.9136691 L8.51663321,18.4311612 C8.16886305,18.4414685 7.76379921,18.4364283 6.61870504,18.4311612 L6.61870504,19.4186926 C7.36549658,19.4057697 7.7573791,19.3587 7.84712663,19.8281784 L7.84712663,23.9831963 C7.79011313,24.3556928 7.48607769,24.3020303 6.80910332,24.2902778 L6.61870504,25.3922646 C8.34336334,25.3922646 8.51663321,25.3982842 8.51663321,25.3982842 L8.51663321,26.6978417 L9.46253343,26.6978417 L9.46253343,25.4163309 C9.72049514,25.4223505 9.97232912,25.4223505 10.2118833,25.4223505 L10.2118833,26.6978417 L11.1577835,26.6978417 L11.1577835,25.3982842 C12.742442,25.3139744 13.8017844,24.9225831 13.9430756,23.4592671 C14.0536184,22.2850574 13.4885148,21.761176 12.5917826,21.5504434 Z M9.64028777,19.3683386 C10.1633057,19.3683386 11.7985612,19.2049658 11.7985612,20.3001745 C11.7985612,21.3469462 10.1633534,21.2259497 9.64028777,21.2259497 L9.64028777,19.3683386 Z M9.64028777,24.246904 L9.64028777,22.102967 C10.2424624,22.102967 12.0863309,21.9190195 12.0863309,23.1749607 C12.0863309,24.3864782 10.2424624,24.246904 9.64028777,24.246904 Z" id="qiandai"></path>
                </g>
            </g>
        </g>
    </g>
</svg>