<?xml version="1.0" encoding="UTF-8"?>
<svg width="14px" height="14px" viewBox="0 0 14 14" version="1.1" xmlns="http://www.w3.org/2000/svg" xmlns:xlink="http://www.w3.org/1999/xlink">
    <title>facebook-fill</title>
    <g id="页面-1" stroke="none" stroke-width="1" fill="none" fill-rule="evenodd">
        <g id="01-CoinByte" transform="translate(-1282.000000, -6883.000000)" fill="#909090" fill-rule="nonzero">
            <g id="facebook-fill" transform="translate(1282.000000, 6883.000000)">
                <path d="M13.3757962,0 L0.557324841,0 C0.249054538,0 0,0.249054538 0,0.557324841 L0,13.3757962 C0,13.6840665 0.249054538,13.933121 0.557324841,13.933121 L13.3757962,13.933121 C13.6840665,13.933121 13.933121,13.6840665 13.933121,13.3757962 L13.933121,0.557324841 C13.933121,0.249054538 13.6840665,0 13.3757962,0 Z M11.7665207,4.0667297 L10.6536127,4.0667297 C9.78105096,4.0667297 9.61211186,4.48124005 9.61211186,5.09081409 L9.61211186,6.43361863 L11.6951135,6.43361863 L11.4234176,8.53577826 L9.61211186,8.53577826 L9.61211186,13.933121 L7.44028662,13.933121 L7.44028662,8.5375199 L5.62375597,8.5375199 L5.62375597,6.43361863 L7.44028662,6.43361863 L7.44028662,4.88355892 C7.44028662,3.08444467 8.53926154,2.10390127 10.1450537,2.10390127 C10.9148587,2.10390127 11.5749403,2.1613754 11.7682623,2.1875 L11.7682623,4.0667297 L11.7665207,4.0667297 Z" id="形状"></path>
            </g>
        </g>
    </g>
</svg>