<?xml version="1.0" encoding="UTF-8"?>
<svg width="20px" height="20px" viewBox="0 0 20 20" version="1.1" xmlns="http://www.w3.org/2000/svg" xmlns:xlink="http://www.w3.org/1999/xlink">
    <title>wangyelianjie</title>
    <defs>
        <polygon id="path-1" points="0.00154241645 0.0235475578 19.9507969 0.0235475578 19.9507969 19.9743445 0.00154241645 19.9743445"></polygon>
    </defs>
    <g id="页面-1" stroke="none" stroke-width="1" fill="none" fill-rule="evenodd">
        <g id="07-Markets-Buy(log-in)" transform="translate(-33.000000, -1845.000000)">
            <g id="编组" transform="translate(33.000000, 1845.000000)">
                <mask id="mask-2" fill="white">
                    <use xlink:href="#path-1"></use>
                </mask>
                <g id="Clip-2"></g>
                <path d="M9.97539846,0.0235475578 C15.5172494,0.0235475578 19.9507969,4.45709512 19.9507969,9.99894602 C19.9507969,15.5407969 15.5172494,19.9743445 9.97539846,19.9743445 C4.43354756,19.9743445 2.06057393e-13,15.5407969 2.06057393e-13,9.99894602 C2.06057393e-13,4.45709512 4.43354756,0.0235475578 9.97539846,0.0235475578 Z M12.2123421,14.9867922 L7.7656658,14.9864947 C8.17314306,16.1393726 8.7479878,17.327177 9.53205656,18.5334447 L9.77893681,18.8637766 C9.84425828,18.8652152 9.90974802,18.8659383 9.97539846,18.8659383 C10.0695449,18.8659383 10.163361,18.8644512 10.2568243,18.8614994 L10.4187404,18.6442159 C11.2240813,17.4052359 11.8065273,16.1792409 12.2123421,14.9867922 Z M6.62691212,14.9865667 L2.65488492,14.9870017 C3.96090391,16.8939872 5.99074516,18.2710673 8.33989952,18.7136926 C7.56916339,17.4487011 7.01288252,16.2003129 6.62691212,14.9865667 Z M17.2958845,14.9870017 L13.3302416,14.9865667 C12.9408421,16.2003129 12.3822121,17.4487011 11.6112713,18.7131939 C13.9599938,18.2710673 15.9898485,16.8939872 17.2958845,14.9870017 Z M6.40046183,6.12000678 L2.00733343,6.12023409 C1.43193174,7.29346933 1.10840617,8.61025645 1.10840617,9.99894602 C1.10840617,11.3879986 1.43211455,12.7051248 2.00782112,13.8786072 L6.31799493,13.8776861 C5.61817943,10.9581882 5.86119803,8.2812106 6.40046183,6.12000678 Z M12.4583595,6.11973426 L7.4540705,6.11956086 C6.88779851,8.22955898 6.62426852,10.915042 7.42103987,13.8780401 L12.5426994,13.8783853 C13.2993096,10.9275218 13.0234432,8.23119331 12.4583595,6.11973426 Z M17.9434456,6.12023409 L13.5932823,6.12000678 C14.1241549,8.2812106 14.3522743,10.9581882 13.6426044,13.8776861 L17.9429579,13.8786072 C18.518674,12.7051248 18.8423907,11.3879986 18.8423907,9.99894602 C18.8423907,8.61025645 18.5188568,7.29346933 17.9434456,6.12023409 Z M8.36145363,1.28101337 L8.1941942,1.31292863 C5.90688365,1.78414215 3.93382516,3.14340308 2.65488492,5.01084524 L6.71481886,5.01057017 C7.27352936,3.25036492 7.97666821,1.94198759 8.36145363,1.28101337 Z M9.97539846,1.13195373 L9.779,1.13454756 L9.53205656,1.4644473 L9.50816476,1.4997892 C9.50281385,1.50769022 9.49679588,1.51658974 9.49013701,1.52647748 L9.44270198,1.59758024 C9.1772028,1.99939731 8.41261723,3.22166386 7.79426936,5.01055545 L12.1199533,5.01061351 C11.3885561,2.879746 10.462957,1.57529563 10.4187404,1.57529563 L10.1548557,1.13375717 C10.0951745,1.1325568 10.0353535,1.13195373 9.97539846,1.13195373 Z M11.627878,1.28741785 L11.6660623,1.35323285 C12.0736633,2.03468551 12.7486134,3.31234297 13.2827397,5.01057017 L17.2958845,5.01084524 C15.9930015,3.10846796 13.9697905,1.73346332 11.627878,1.28741785 Z" id="形状结合" fill="#878787" mask="url(#mask-2)"></path>
            </g>
        </g>
    </g>
</svg>