<?xml version="1.0" encoding="UTF-8"?>
<svg width="17px" height="20px" viewBox="0 0 17 20" version="1.1" xmlns="http://www.w3.org/2000/svg" xmlns:xlink="http://www.w3.org/1999/xlink">
    <title>book</title>
    <g id="页面-1" stroke="none" stroke-width="1" fill="none" fill-rule="evenodd">
        <g id="07-Markets-Buy(log-in)" transform="translate(-35.000000, -1892.000000)" fill="#9B9B9B">
            <g id="book" transform="translate(35.000000, 1892.000000)">
                <path d="M14.359561,0.0195121951 C15.3935854,0.0195121951 16.232561,0.858487805 16.2364634,1.8925122 L16.2364634,1.8925122 L16.2364634,18.1738537 C16.2344634,18.205 16.232561,18.2382683 16.230561,18.2694146 C16.230561,18.2870488 16.2286585,18.302561 16.2267561,18.3181951 C16.135,19.1961463 15.4326341,19.9005122 14.5546829,19.9902683 C14.5371463,19.9921707 14.5215366,19.9921707 14.5059024,19.9941707 C14.4746585,19.9980732 14.4415122,19.9999756 14.4103415,19.9999756 L14.4103415,19.9999756 L1.82612195,19.9999756 L1.82612195,19.9999756 L1.73056098,19.9941707 C1.71302439,19.9941707 1.69741463,19.9921707 1.68178049,19.9902683 C0.803829268,19.8985122 0.0994634146,19.1961463 0.00970731707,18.3181951 C0.00780487805,18.3006585 0.00780487805,18.2850488 0.00580487805,18.2694146 C0.00190243902,18.2382683 -1.69464442e-12,18.205 -1.69464442e-12,18.1738537 L-1.69464442e-12,18.1738537 L-1.69464442e-12,1.8925122 C-1.69464442e-12,0.858487805 0.83897561,0.0195121951 1.873,0.0195121951 L1.873,0.0195121951 Z M14.3576585,17.5007317 L1.32478049,17.5007317 C1.28182927,17.5007317 1.24665854,17.5358049 1.24665854,17.5787805 L1.24665854,17.5787805 L1.24665854,18.1660488 C1.24865854,18.1718537 1.24865854,18.1757561 1.24865854,18.1816585 C1.25056098,18.1972927 1.25256098,18.2128293 1.2544878,18.2265366 C1.2564878,18.2323659 1.2564878,18.2382683 1.25839024,18.2440732 L1.26229268,18.2616098 C1.31497561,18.4976829 1.50039024,18.6830976 1.73636585,18.7356829 C1.74229268,18.7376829 1.74809756,18.7395854 1.754,18.7395854 L1.754,18.7395854 L1.77153659,18.7415854 C1.78714634,18.7435122 1.80078049,18.7455122 1.81641463,18.7474146 C1.82221951,18.7494146 1.82612195,18.7494146 1.83202439,18.7494146 L14.3986341,18.7494146 L14.3986341,18.7494146 L14.4141463,18.7474146 C14.4297805,18.7455122 14.4454146,18.7435122 14.4590244,18.7415854 C14.4649268,18.7415854 14.4707561,18.7415854 14.4766585,18.7395854 L14.4766585,18.7395854 L14.4941951,18.7356829 C14.7302683,18.6830976 14.9155854,18.4976829 14.9682683,18.2616098 L14.9682683,18.2616098 L14.9748841,18.235314 L14.9748841,18.235314 C14.9780976,18.2109268 14.98,18.1972927 14.982,18.1816585 C14.9839024,18.1757561 14.9839024,18.1718537 14.9839024,18.1660488 L14.9839024,18.1250732 C14.9839024,17.7797073 14.7049268,17.5007317 14.3576585,17.5007317 L14.3576585,17.5007317 Z M14.359561,1.26817073 L1.873,1.26817073 C1.52763415,1.26817073 1.24865854,1.54714634 1.24865854,1.8925122 L1.24865854,1.8925122 L1.24865854,16.1740488 C1.24865854,16.2169268 1.28382927,16.2520732 1.32670732,16.2520732 L1.32670732,16.2520732 L13.7352439,16.2520732 C14.4239756,16.2520732 14.9839024,15.6921463 14.9839024,15.0034146 L14.9839024,15.0034146 L14.9839024,1.8925122 C14.9839024,1.54714634 14.7049268,1.26817073 14.359561,1.26817073 L14.359561,1.26817073 Z M12.9548293,10.6330732 C13.0406829,10.6330732 13.1109024,10.7033902 13.1109024,10.7892439 L13.1109024,11.7256829 C13.1109024,11.8115366 13.0406829,11.8817561 12.9548293,11.8817561 L3.27773171,11.8817561 C3.19187805,11.8817561 3.12165854,11.8115366 3.12165854,11.7256829 L3.12165854,10.7892439 C3.12165854,10.7033902 3.19187805,10.6330732 3.27773171,10.6330732 L12.9548293,10.6330732 Z M12.9548293,8.1357561 C13.0406829,8.1357561 13.1109024,8.20604878 13.1109024,8.29190244 L13.1109024,9.22834146 C13.1109024,9.31419512 13.0406829,9.38441463 12.9548293,9.38441463 L3.27773171,9.38441463 C3.19187805,9.38441463 3.12165854,9.31419512 3.12165854,9.22834146 L3.12165854,8.29190244 C3.12165854,8.20604878 3.19187805,8.1357561 3.27773171,8.1357561 L12.9548293,8.1357561 Z M12.7987805,3.14117073 C12.9704634,3.14117073 13.1109024,3.28160976 13.1109024,3.45329268 L13.1109024,3.45329268 L13.1109024,6.57495122 C13.1109024,6.74663415 12.9704634,6.88717073 12.7987805,6.88717073 L12.7987805,6.88717073 L3.43378049,6.88717073 C3.26209756,6.88717073 3.12165854,6.74663415 3.12165854,6.57495122 L3.12165854,6.57495122 L3.12165854,3.45329268 C3.12165854,3.28160976 3.26209756,3.14117073 3.43378049,3.14117073 L3.43378049,3.14117073 Z M11.7841951,4.38985366 L4.44836585,4.38985366 C4.40539024,4.38985366 4.37034146,4.42490244 4.37034146,4.46787805 L4.37034146,4.46787805 L4.37034146,5.5604878 C4.37034146,5.60334146 4.40539024,5.6385122 4.44836585,5.6385122 L4.44836585,5.6385122 L11.7841951,5.6385122 C11.8271707,5.6385122 11.8622439,5.60334146 11.8622439,5.5604878 L11.8622439,5.5604878 L11.8622439,4.46787805 C11.8622439,4.42490244 11.8271707,4.38985366 11.7841951,4.38985366 L11.7841951,4.38985366 Z" id="形状结合"></path>
            </g>
        </g>
    </g>
</svg>