<?xml version="1.0" encoding="UTF-8"?>
<svg width="12px" height="12px" viewBox="0 0 12 12" version="1.1" xmlns="http://www.w3.org/2000/svg" xmlns:xlink="http://www.w3.org/1999/xlink">
    <title>wenhaoxiao</title>
    <defs>
        <polygon id="path-1" points="0.00087804878 0.0117073171 11.988278 0.0117073171 11.988278 11.9999854 0.00087804878 11.9999854"></polygon>
    </defs>
    <g id="页面-1" stroke="none" stroke-width="1" fill="none" fill-rule="evenodd">
        <g id="07-Markets-Buy(log-in)" transform="translate(-238.000000, -815.000000)">
            <g id="编组-24" transform="translate(33.000000, 757.000000)">
                <g id="编组" transform="translate(205.000000, 58.000000)">
                    <mask id="mask-2" fill="white">
                        <use xlink:href="#path-1"></use>
                    </mask>
                    <g id="Clip-2"></g>
                    <path d="M5.99417561,0.0117073171 C9.30440488,0.0117073171 11.988278,2.69558049 11.988278,6.00588293 C11.988278,9.3161122 9.30440488,11.9999854 5.99417561,11.9999854 C2.68387317,11.9999854 -1.75148784e-12,9.3161122 -1.75148784e-12,6.00588293 C-1.75148784e-12,2.69558049 2.68387317,0.0117073171 5.99417561,0.0117073171 Z M5.99417561,1.01072195 C3.23534634,1.01072195 0.999014634,3.24705366 0.999014634,6.00588293 C0.999014634,8.76463902 3.23534634,11.0009854 5.99417561,11.0009854 C8.75293171,11.0009854 10.989278,8.76463902 10.989278,6.00588293 C10.989278,3.24705366 8.75293171,1.01072195 5.99417561,1.01072195 Z M5.92922927,8.57337073 C6.13902439,8.57337073 6.31880488,8.63328293 6.45869268,8.7731561 C6.59856585,8.90303415 6.6684878,9.07287805 6.6684878,9.28267317 C6.6684878,9.49246829 6.59856585,9.66229756 6.45869268,9.80212683 C6.30885366,9.93200488 6.12901463,10.0019707 5.92922927,10.0019707 C5.71943415,10.0019707 5.54960488,9.93200488 5.41972683,9.79217561 C5.26982927,9.6522878 5.19992195,9.48245854 5.19992195,9.28267317 C5.19992195,9.07287805 5.26982927,8.90303415 5.41972683,8.7731561 C5.54960488,8.63328293 5.71943415,8.57337073 5.92922927,8.57337073 Z M6.09907317,2.72903415 C6.74840488,2.72903415 7.26791707,2.89886341 7.6674878,3.25854146 C8.05712195,3.60822439 8.25692195,4.0877122 8.25692195,4.68714146 C8.25692195,5.17663902 8.1270439,5.58629268 7.88729268,5.90594634 C7.79736585,6.01581951 7.51766341,6.27557561 7.03811707,6.68517073 C6.85832195,6.84504878 6.71844878,7.01489268 6.62852195,7.19467317 C6.51864878,7.39451707 6.4686878,7.61426341 6.4686878,7.86400976 L6.4686878,7.86400976 L6.4686878,8.03385366 L5.39970732,8.03385366 L5.39970732,7.86400976 C5.39970732,7.49438049 5.45967805,7.17472683 5.5895561,6.91497073 C5.72938537,6.63525366 6.10900976,6.22561463 6.7284439,5.67614634 L6.7284439,5.67614634 L6.8982878,5.48637073 C7.07806829,5.2565561 7.16798049,5.01681951 7.16798049,4.75706341 C7.16798049,4.40743902 7.06811707,4.13767317 6.87828293,3.9378878 C6.67848293,3.7380439 6.39872195,3.63818049 6.03910244,3.63818049 C5.5895561,3.63818049 5.25989268,3.77805366 5.06004878,4.0577561 C4.88025366,4.29750732 4.79034146,4.64719024 4.79034146,5.08672683 L4.79034146,5.08672683 L3.73137073,5.08672683 C3.73137073,4.35747805 3.94115122,3.78800488 4.37075122,3.36841463 C4.79034146,2.93882927 5.36976585,2.72903415 6.09907317,2.72903415 Z" id="形状结合" fill="#878787" mask="url(#mask-2)"></path>
                </g>
            </g>
        </g>
    </g>
</svg>