<?xml version="1.0" encoding="UTF-8"?>
<svg width="14px" height="14px" viewBox="0 0 14 14" version="1.1" xmlns="http://www.w3.org/2000/svg" xmlns:xlink="http://www.w3.org/1999/xlink">
    <title>line</title>
    <g id="é¡µé¢-1" stroke="none" stroke-width="1" fill="none" fill-rule="evenodd">
        <g id="01-CoinByte" transform="translate(-1215.000000, -6883.000000)" fill="#909090" fill-rule="nonzero">
            <g id="line" transform="translate(1215.000000, 6883.000000)">
                <path d="M8.23499876,5.21703469 C8.16459198,5.21703468 8.09706889,5.24500366 8.04728378,5.29478877 C7.99749867,5.34457387 7.96952969,5.41209697 7.96952969,5.48250374 L7.96952969,6.6491704 L6.99148578,5.34976921 C6.94197904,5.26943838 6.85527497,5.21951786 6.76094686,5.21703469 C6.61433234,5.21703469 6.4954778,5.33588923 6.4954778,5.48250374 L6.4954778,7.46653567 C6.4954778,7.53694245 6.52344677,7.60446554 6.57323188,7.65425065 C6.62301699,7.70403576 6.69054008,7.73200475 6.76094686,7.73200475 C6.83135363,7.73200475 6.89887673,7.70403576 6.94866183,7.65425065 C6.99844694,7.60446554 7.02641592,7.53694245 7.02641591,7.46653567 L7.02641591,6.29288298 L7.9974738,7.62721433 C8.0221992,7.66443318 8.05933456,7.69166578 8.10226422,7.70406063 C8.13446606,7.71127962 8.16786677,7.71127962 8.20006861,7.70406063 C8.26204717,7.72659662 8.33070968,7.72151051 8.38869136,7.69008858 L8.45855165,7.64118638 C8.50758865,7.59061099 8.53513056,7.52300811 8.53540801,7.45256362 L8.53540801,5.48250374 C8.53606694,5.40560497 8.50335663,5.33219478 8.44573196,5.28127066 C8.3881073,5.23034653 8.31123145,5.20691313 8.23499876,5.21703469 Z M5.03539795,7.18010853 L4.294879,7.18010853 L4.294879,5.48250374 C4.294879,5.41209697 4.26691001,5.34457387 4.21712491,5.29478877 C4.1673398,5.24500366 4.0998167,5.21703469 4.02940992,5.21703469 C3.88279541,5.21703469 3.76394087,5.33588923 3.76394087,5.48250374 L3.76394087,7.46653567 C3.76394087,7.53694245 3.79190984,7.60446554 3.84169495,7.65425065 C3.89148005,7.70403576 3.95900315,7.73200476 4.02940992,7.73200476 L5.03539795,7.73200476 C5.18318422,7.73205334 5.30406366,7.61427336 5.30785304,7.46653567 C5.31168628,7.39188712 5.28468258,7.31894206 5.23316598,7.26478359 C5.18164939,7.21062512 5.11014479,7.18001018 5.03539795,7.18010853 L5.03539795,7.18010853 Z M5.81084705,5.21703467 C5.66306079,5.2169861 5.54218135,5.33476606 5.53839196,5.48250374 L5.53839196,7.46653567 C5.54218134,7.61427336 5.66306078,7.73205334 5.81084705,7.73200476 C5.88125383,7.73200476 5.94877693,7.70403577 5.99856204,7.65425066 C6.04834715,7.60446555 6.07631612,7.53694245 6.07631612,7.46653567 L6.07631612,5.48250374 C6.07631612,5.41209697 6.04834714,5.34457387 5.99856203,5.29478877 C5.94877692,5.24500366 5.88125382,5.21703467 5.81084705,5.21703467 L5.81084705,5.21703467 Z M11.1202283,0.00545782887 L2.86274326,0.00545782887 C1.28630154,0.00929813649 0.00929813649,1.28630154 0.00545782887,2.86274326 L0.00545782887,11.1202283 C0.00929813649,12.69667 1.28630154,13.9736734 2.86274326,13.9775137 L11.1202283,13.9775137 C12.69667,13.9736734 13.9736734,12.69667 13.9775137,11.1202283 L13.9775137,2.86274326 C13.9736734,1.28630154 12.69667,0.00929813649 11.1202283,0.00545782887 Z M11.3367952,8.58430015 C11.3092947,8.62593275 11.2789496,8.6656148 11.2459768,8.70306262 C11.0793897,8.90807304 10.892105,9.09535773 10.6870946,9.26194487 C9.28988898,10.5683321 6.94258359,12.1332024 6.62821232,11.8886914 C6.31384105,11.6441804 7.07531811,10.6591504 6.25795284,10.4914858 C6.19996515,10.4987915 6.14128984,10.4987915 6.08330214,10.4914858 C3.68010853,10.1561564 1.89168537,8.4725237 1.89168537,6.45356163 C1.89168537,4.18310254 4.19008856,2.3457772 7.0194299,2.3457772 C9.84877123,2.3457772 12.1471744,4.18310254 12.1471744,6.45356163 C12.1229344,7.23444833 11.8376055,7.98466643 11.3367952,8.58430015 Z M10.1421844,5.2240207 L9.08729416,5.2240207 C9.01688739,5.2240207 8.94936429,5.25198969 8.89957919,5.3017748 C8.84979408,5.3515599 8.82182511,5.419083 8.82182511,5.48948978 L8.82182511,7.47352171 C8.82182511,7.62013622 8.94067965,7.73899076 9.08729416,7.73899076 L10.1212263,7.73899076 C10.2678408,7.73899076 10.3866954,7.62013622 10.3866954,7.47352171 C10.3866954,7.3269072 10.2678408,7.20805265 10.1212263,7.20805265 L9.40166542,7.20805265 L9.40166542,6.78889097 L10.1421844,6.78889097 C10.2899221,6.78510159 10.407702,6.66422215 10.4076534,6.51643588 C10.4076534,6.44602911 10.3796845,6.37850601 10.3298994,6.3287209 C10.2801143,6.27893579 10.2125912,6.25096681 10.1421844,6.25096681 L9.40166542,6.25096681 L9.40166542,5.82481912 L10.1421844,5.82481912 C10.2125912,5.82481912 10.2801143,5.79685013 10.3298994,5.74706503 C10.3796845,5.69727992 10.4076534,5.62975682 10.4076534,5.55935004 C10.4299239,5.4779138 10.4121306,5.39074003 10.3597268,5.32454577 C10.3073231,5.25835152 10.2265579,5.22103043 10.1421844,5.2240207 L10.1421844,5.2240207 Z" id="å½¢çŠ¶"></path>
            </g>
        </g>
    </g>
</svg>