<?xml version="1.0" encoding="UTF-8"?>
<svg width="14px" height="14px" viewBox="0 0 14 14" version="1.1" xmlns="http://www.w3.org/2000/svg" xmlns:xlink="http://www.w3.org/1999/xlink">
    <title>linkedin</title>
    <g id="页面-1" stroke="none" stroke-width="1" fill="none" fill-rule="evenodd">
        <g id="01-CoinByte" transform="translate(-1249.000000, -6909.000000)" fill="#909090" fill-rule="nonzero">
            <g id="linkedin" transform="translate(1249.000000, 6909.000000)">
                <path d="M13.3757962,0 L0.557324841,0 C0.249054538,0 0,0.249054538 0,0.557324841 L0,13.3757962 C0,13.6840665 0.249054538,13.933121 0.557324841,13.933121 L13.3757962,13.933121 C13.6840665,13.933121 13.933121,13.6840665 13.933121,13.3757962 L13.933121,0.557324841 C13.933121,0.249054538 13.6840665,0 13.3757962,0 Z M4.13291202,11.8727607 L2.06558519,11.8727607 L2.06558519,5.22317874 L4.13291202,5.22317874 L4.13291202,11.8727607 Z M3.10011943,4.3140426 C2.43829618,4.3140426 1.90187102,3.77761744 1.90187102,3.11579419 C1.90187102,2.45397094 2.43829618,1.91754578 3.10011943,1.91754578 C3.76020104,1.91754578 4.29836783,2.45397094 4.29836783,3.11579419 C4.29662619,3.77761744 3.76020104,4.3140426 3.10011943,4.3140426 Z M11.8727607,11.8727607 L9.80717556,11.8727607 L9.80717556,8.63853503 C9.80717556,7.86698846 9.79324244,6.87599522 8.7325836,6.87599522 C7.65799164,6.87599522 7.49253583,7.71546576 7.49253583,8.58280255 L7.49253583,11.8727607 L5.42869228,11.8727607 L5.42869228,5.22317874 L7.41067874,5.22317874 L7.41067874,6.13231489 L7.43854498,6.13231489 C7.71372412,5.60982285 8.38773885,5.05772293 9.39440685,5.05772293 C11.4878583,5.05772293 11.8727607,6.43536027 11.8727607,8.22576632 L11.8727607,11.8727607 L11.8727607,11.8727607 Z" id="形状"></path>
            </g>
        </g>
    </g>
</svg>