<?xml version="1.0" encoding="UTF-8"?>
<svg width="18px" height="20px" viewBox="0 0 18 20" version="1.1" xmlns="http://www.w3.org/2000/svg" xmlns:xlink="http://www.w3.org/1999/xlink">
    <title>形状</title>
    <g id="页面-1" stroke="none" stroke-width="1" fill="none" fill-rule="evenodd">
        <g id="19-sign-up-mobile" transform="translate(-559.000000, -365.000000)" fill="#C4C9D0" fill-rule="nonzero">
            <g id="编组-12" transform="translate(501.000000, 130.000000)">
                <g id="lock" transform="translate(58.000000, 235.000000)">
                    <path d="M16,7.9999999 L17,7.9999999 C17.5522847,7.9999999 18,8.4477153 18,8.9999999 L18,18.9999999 C18,19.5522847 17.5522847,19.9999999 17,19.9999999 L1,19.9999999 C0.44771525,19.9999999 0,19.5522847 0,18.9999999 L0,8.9999999 C0,8.4477153 0.44771525,7.9999999 1,7.9999999 L2,7.9999999 L2,6.9999999 C2,4.49914085 3.33419242,2.18825167 5.5,0.93782209 C7.6658075,-0.3126075 10.3341925,-0.3126075 12.5,0.93782209 C14.6658076,2.18825167 16,4.49914085 16,6.9999999 L16,7.9999999 Z M2,10 L2,18 L16,18 L16,10 L2,10 Z M8,13 L10,13 L10,15 L8,15 L8,13 Z M14,8 L14,7 C14,4.23857625 11.7614237,2 9,2 C6.23857625,2 4,4.23857625 4,7 L4,8 L14,8 Z" id="形状"></path>
                </g>
            </g>
        </g>
    </g>
</svg>