<?xml version="1.0" encoding="UTF-8"?>
<svg width="20px" height="16px" viewBox="0 0 20 16" version="1.1" xmlns="http://www.w3.org/2000/svg" xmlns:xlink="http://www.w3.org/1999/xlink">
    <title>Fill 1</title>
    <g id="页面-1" stroke="none" stroke-width="1" fill="none" fill-rule="evenodd">
        <g id="19-sign-up-mobile" transform="translate(-586.000000, -815.000000)" fill="#16AFE9">
            <g id="编组-12" transform="translate(501.000000, 130.000000)">
                <g id="编组-16" transform="translate(44.000000, 636.000000)">
                    <g id="编组-13" transform="translate(0.000000, 32.000000)">
                        <g id="编组-10" transform="translate(41.000000, 16.000000)">
                            <g id="telegram" transform="translate(0.000000, 1.000000)">
                                <path d="M7.17182543,15.0320283 L7.46791375,10.5569435 L15.5912078,3.23614273 C15.9508211,2.90829156 15.51724,2.74957291 15.0411746,3.03517969 L5.01408367,9.37217898 L0.677466479,7.99683433 C-0.25337573,7.73230325 -0.263911578,7.08698379 0.888958142,6.62148967 L17.7806811,0.104820007 C18.5528348,-0.244354818 19.2932571,0.295152211 18.9970758,1.48004069 L16.1200454,15.0320283 C15.9191206,15.9946611 15.3373559,16.2274856 14.5335016,15.7831602 L10.1545241,12.5458701 L8.04967851,14.5877029 C7.80648634,14.8309413 7.60543756,15.0320283 7.17182543,15.0320283 Z" id="Fill-1"></path>
                            </g>
                        </g>
                    </g>
                </g>
            </g>
        </g>
    </g>
</svg>