<?xml version="1.0" encoding="UTF-8"?>
<svg width="22px" height="20px" viewBox="0 0 22 20" version="1.1" xmlns="http://www.w3.org/2000/svg" xmlns:xlink="http://www.w3.org/1999/xlink">
    <title>形状</title>
    <g id="页面-1" stroke="none" stroke-width="1" fill="none" fill-rule="evenodd">
        <g id="19-sign-up-mobile" transform="translate(-861.000000, -366.000000)" fill="#C4C9D0" fill-rule="nonzero">
            <g id="编组-12" transform="translate(501.000000, 130.000000)">
                <g id="visibility_off_FILL0_wght400_GRAD0_opsz48" transform="translate(360.000000, 236.000000)">
                    <path d="M14.3658537,11.2439024 L13.2926829,10.1707317 C13.7154472,9.01626016 13.495935,8.05691057 12.6341463,7.29268293 C11.7723577,6.52845528 10.8373984,6.33333333 9.82926829,6.70731707 L8.75609756,5.63414634 C9.03252033,5.45528455 9.34146341,5.32520325 9.68292683,5.24390244 C10.0243902,5.16260163 10.3739837,5.12195122 10.7317073,5.12195122 C11.8861789,5.12195122 12.8658537,5.52439024 13.6707317,6.32926829 C14.4756098,7.13414634 14.8780488,8.11382114 14.8780488,9.26829268 C14.8780488,9.62601626 14.8333333,9.9796748 14.7439024,10.3292683 C14.6544715,10.6788618 14.5284553,10.9837398 14.3658537,11.2439024 L14.3658537,11.2439024 Z M17.5121951,14.3902439 L16.5365854,13.4146341 C17.3333333,12.8292683 18.0284553,12.1747967 18.6219512,11.4512195 C19.2154472,10.7276423 19.6504065,10 19.9268293,9.26829268 C19.1138211,7.46341463 17.8943089,6.03658537 16.2682927,4.98780488 C14.6422764,3.93902439 12.8780488,3.41463415 10.9756098,3.41463415 C10.2926829,3.41463415 9.59349593,3.4796748 8.87804878,3.6097561 C8.16260163,3.7398374 7.60162602,3.89430894 7.19512195,4.07317073 L6.07317073,2.92682927 C6.64227642,2.66666667 7.3699187,2.43902439 8.25609756,2.24390244 C9.14227642,2.04878049 10.0081301,1.95121951 10.8536585,1.95121951 C13.1788618,1.95121951 15.304878,2.61382114 17.2317073,3.93902439 C19.1585366,5.26422764 20.5691057,7.04065041 21.4634146,9.26829268 C21.0406504,10.3089431 20.495935,11.2601626 19.8292683,12.1219512 C19.1626016,12.9837398 18.3902439,13.7398374 17.5121951,14.3902439 Z M18.9268293,19.902439 L14.8292683,15.8780488 C14.2601626,16.1056911 13.6178862,16.2804878 12.902439,16.402439 C12.1869919,16.5243902 11.4634146,16.5853659 10.7317073,16.5853659 C8.35772358,16.5853659 6.20325203,15.9227642 4.26829268,14.597561 C2.33333333,13.2723577 0.910569106,11.495935 0,9.26829268 C0.325203252,8.42276423 0.776422764,7.59756098 1.35365854,6.79268293 C1.93089431,5.98780488 2.63414634,5.2195122 3.46341463,4.48780488 L0.390243902,1.41463415 L1.41463415,0.365853659 L19.8780488,18.8292683 L18.9268293,19.902439 Z M4.46341463,5.51219512 C3.86178862,5.95121951 3.2804878,6.52845528 2.7195122,7.24390244 C2.15853659,7.95934959 1.75609756,8.63414634 1.51219512,9.26829268 C2.34146341,11.0731707 3.58943089,12.5 5.25609756,13.5487805 C6.92276423,14.597561 8.81300813,15.1219512 10.9268293,15.1219512 C11.4634146,15.1219512 11.9918699,15.0894309 12.5121951,15.0243902 C13.0325203,14.9593496 13.4227642,14.8617886 13.6829268,14.7317073 L12.1219512,13.1707317 C11.9430894,13.2520325 11.7235772,13.3130081 11.4634146,13.3536585 C11.203252,13.3943089 10.9593496,13.4146341 10.7317073,13.4146341 C9.59349593,13.4146341 8.61788618,13.0162602 7.80487805,12.2195122 C6.99186992,11.4227642 6.58536585,10.4390244 6.58536585,9.26829268 C6.58536585,9.02439024 6.60569106,8.7804878 6.64634146,8.53658537 C6.68699187,8.29268293 6.74796748,8.07317073 6.82926829,7.87804878 L4.46341463,5.51219512 Z" id="形状"></path>
                </g>
            </g>
        </g>
    </g>
</svg>