<?xml version="1.0" encoding="UTF-8"?>
<svg width="20px" height="18px" viewBox="0 0 20 18" version="1.1" xmlns="http://www.w3.org/2000/svg" xmlns:xlink="http://www.w3.org/1999/xlink">
    <title>形状</title>
    <g id="页面-1" stroke="none" stroke-width="1" fill="none" fill-rule="evenodd">
        <g id="20-sign-up-email" transform="translate(-559.000000, -303.000000)" fill="#C4C9D0" fill-rule="nonzero">
            <g id="编组-12" transform="translate(501.000000, 130.000000)">
                <g id="email" transform="translate(58.000000, 173.000000)">
                    <path d="M1,0 L19,0 C19.5522847,0 20,0.44771525 20,1 L20,17 C20,17.5522847 19.5522847,18 19,18 L1,18 C0.44771525,18 0,17.5522847 0,17 L0,1 C0,0.44771525 0.44771525,0 1,0 Z M18,4.238 L10.072,11.338 L2,4.216 L2,16 L18,16 L18,4.238 Z M2.511,2 L10.061,8.662 L17.502,2 L2.511,2 Z" id="形状"></path>
                </g>
            </g>
        </g>
    </g>
</svg>