<?xml version="1.0" encoding="UTF-8"?>
<svg width="16px" height="16px" viewBox="0 0 16 16" version="1.1" xmlns="http://www.w3.org/2000/svg" xmlns:xlink="http://www.w3.org/1999/xlink">
    <title>编组 15</title>
    <g id="页面-1" stroke="none" stroke-width="1" fill="none" fill-rule="evenodd">
        <g id="19-sign-up-mobile" transform="translate(-779.000000, -814.000000)">
            <g id="编组-12" transform="translate(501.000000, 130.000000)">
                <g id="编组-16" transform="translate(44.000000, 636.000000)">
                    <g id="编组-12" transform="translate(184.000000, 32.000000)">
                        <g id="编组-9" transform="translate(50.000000, 16.000000)">
                            <g id="编组-15" transform="translate(-0.000008, 0.000539)">
                                <path d="M3.34636544,7.99978027 C3.34636544,7.48018976 3.43501463,6.98175281 3.5918386,6.51475655 L0.838640096,4.45569039 C0.285511506,5.55509613 -0.00178936765,6.7690387 -1.63358216e-12,7.99978027 C-1.63358216e-12,9.27332834 0.301351706,10.4747266 0.837321743,11.5410537 L3.58912199,9.47863171 C3.42862262,9.00202747 3.34668504,8.50257179 3.34636544,7.99978027" id="Fill-1" fill="#FBBC05"></path>
                                <path d="M8.18182112,3.27270911 C9.33404084,3.27270911 10.3751594,3.67228964 11.1933567,4.32679151 L13.5735814,1.99978027 C12.1233742,0.763665418 10.2640583,1.89182003e-13 8.18182112,1.89182003e-13 C4.94858267,1.89182003e-13 2.16955645,1.8102372 0.838640096,4.45569039 L3.59317692,6.51475655 C4.22730427,4.62883396 6.03542412,3.27270911 8.18182112,3.27270911" id="Fill-3" fill="#EA4335"></path>
                                <path d="M8.18182112,12.7267516 C6.03472499,12.7267516 4.22660514,11.3706267 3.5918386,9.48470412 L0.838640096,11.5437703 C2.16885732,14.1892235 4.94796344,15.9994607 8.18182112,15.9994607 C10.1767475,15.9994607 12.0817862,15.3060275 13.5121782,14.0058527 L10.8981058,12.0272459 C10.161127,12.4819775 9.23244784,12.7267516 8.18110202,12.7267516" id="Fill-4" fill="#34A853"></path>
                                <path d="M15.9912593,7.99978027 C15.9912593,7.52723096 15.916293,7.01794757 15.8051719,6.54541823 L8.18110202,6.54541823 L8.18110202,9.63607491 L12.5692968,9.63607491 C12.3504304,10.6901573 11.753137,11.5001648 10.8988049,12.0272459 L13.5121782,14.0058527 C15.0142805,12.640839 15.9912593,10.6076804 15.9912593,7.99978027" id="Fill-5" fill="#4285F4"></path>
                            </g>
                        </g>
                    </g>
                </g>
            </g>
        </g>
    </g>
</svg>