<?xml version="1.0" encoding="UTF-8"?>
<svg width="15px" height="15px" viewBox="0 0 15 15" version="1.1" xmlns="http://www.w3.org/2000/svg" xmlns:xlink="http://www.w3.org/1999/xlink">
    <title>形状</title>
    <g id="页面-1" stroke="none" stroke-width="1" fill="none" fill-rule="evenodd">
        <g id="18-Center-Content" transform="translate(-1114.000000, -253.000000)" fill="#9CA3B3" fill-rule="nonzero">
            <path d="M1121.55396,253 C1117.39928,253 1114,256.345324 1114,260.5 C1114,264.654676 1117.39928,268 1121.5,268 C1125.65468,268 1129,264.600719 1129,260.5 C1129,256.399281 1125.65468,253 1121.55396,253 Z M1119.55755,260.446043 C1119.39568,260.607914 1119.07194,260.607914 1118.85612,260.446043 L1118.47842,260.014388 L1118.26259,259.852518 C1117.93885,259.47482 1117.72302,259.043165 1117.66906,258.557554 C1117.66906,258.071942 1117.83094,257.586331 1118.15468,257.26259 C1118.53237,256.938849 1118.96403,256.776978 1119.44964,256.776978 C1119.93525,256.776978 1120.47482,256.992806 1120.85252,257.370504 L1122.30935,258.827338 C1122.68705,259.205036 1122.90288,259.690647 1122.90288,260.176259 C1122.90288,260.607914 1122.74101,261.039568 1122.41727,261.363309 C1122.2554,261.52518 1121.93165,261.52518 1121.71583,261.363309 C1121.55396,261.201439 1121.55396,260.877698 1121.71583,260.715827 C1122.03957,260.392086 1121.98561,259.852518 1121.66187,259.47482 L1120.20504,258.017986 C1119.98921,257.802158 1119.77338,257.694245 1119.5036,257.694245 C1119.34173,257.694245 1119.1259,257.748201 1118.96403,257.910072 C1118.7482,258.125899 1118.7482,258.341727 1118.7482,258.503597 C1118.7482,258.719424 1118.85612,258.989209 1119.07194,259.151079 L1119.28777,259.366906 L1119.66547,259.744604 C1119.71942,259.960432 1119.71942,260.230216 1119.55755,260.446043 L1119.55755,260.446043 Z M1124.73741,263.845324 C1124.41367,264.169065 1123.98201,264.330935 1123.4964,264.330935 C1123.01079,264.330935 1122.47122,264.115108 1122.09353,263.73741 L1120.63669,262.280576 C1120.25899,261.902878 1120.04317,261.417266 1120.04317,260.931655 C1120.04317,260.5 1120.20504,260.068345 1120.52878,259.744604 C1120.69065,259.582734 1121.01439,259.582734 1121.23022,259.744604 C1121.39209,259.906475 1121.39209,260.230216 1121.23022,260.392086 C1120.90647,260.715827 1120.96043,261.255396 1121.28417,261.633094 L1122.74101,263.089928 C1122.95683,263.305755 1123.17266,263.413669 1123.44245,263.413669 C1123.60432,263.413669 1123.82014,263.359712 1123.98201,263.197842 C1124.19784,262.982014 1124.19784,262.766187 1124.19784,262.604317 C1124.19784,262.388489 1124.08993,262.118705 1123.8741,261.956835 L1123.44245,261.52518 L1123.28058,261.363309 C1123.11871,261.201439 1123.11871,260.877698 1123.28058,260.715827 C1123.44245,260.553957 1123.76619,260.553957 1123.98201,260.715827 L1124.19784,260.931655 L1124.52158,261.255396 C1124.89928,261.579137 1125.11511,262.064748 1125.11511,262.496403 C1125.27698,263.035971 1125.06115,263.467626 1124.73741,263.845324 Z" id="形状" transform="translate(1121.500000, 260.500000) scale(-1, 1) translate(-1121.500000, -260.500000) "></path>
        </g>
    </g>
</svg>