<?xml version="1.0" encoding="UTF-8"?>
<svg width="45px" height="50px" viewBox="0 0 45 50" version="1.1" xmlns="http://www.w3.org/2000/svg" xmlns:xlink="http://www.w3.org/1999/xlink">
    <title>编组 10</title>
    <defs>
        <linearGradient x1="50%" y1="0%" x2="71.5141977%" y2="100%" id="linearGradient-1">
            <stop stop-color="#F49542" offset="0%"></stop>
            <stop stop-color="#CD7323" offset="100%"></stop>
        </linearGradient>
        <linearGradient x1="50%" y1="0.382407774%" x2="83.4422832%" y2="99.6175922%" id="linearGradient-2">
            <stop stop-color="#F49542" offset="0%"></stop>
            <stop stop-color="#DF802D" offset="100%"></stop>
        </linearGradient>
    </defs>
    <g id="页面-1" stroke="none" stroke-width="1" fill="none" fill-rule="evenodd">
        <g id="38-User-center-Security" transform="translate(-63.000000, -154.000000)" fill-rule="nonzero">
            <g id="编组-10" transform="translate(63.000000, 154.000000)">
                <path d="M19.7802198,49.3226601 C14.0934066,48.0090312 9.375,44.796798 5.625,39.6859606 C1.875,34.5751232 1.7985613e-12,28.7151067 1.7985613e-12,22.1059113 L1.7985613e-12,7.38916256 L19.7802198,2.45014736e-14 L39.5604396,7.38916256 L39.5604396,24.0147783 C38.9835165,23.727422 38.3653846,23.4708539 37.706044,23.2450739 C37.0467033,23.0192939 36.4285714,22.865353 35.8516484,22.7832512 L35.8516484,9.97536946 L19.7802198,4.06403941 L3.70879121,9.97536946 L3.70879121,22.1059113 C3.70879121,25.22578 4.2135989,28.0993432 5.22321429,30.726601 C6.23282967,33.3538588 7.5206044,35.6629721 9.08653846,37.6539409 C10.6524725,39.6449097 12.3832418,41.2972085 14.2788462,42.6108374 C16.1744505,43.9244663 18.0082418,44.8686371 19.7802198,45.4433498 C20.0274725,45.9359606 20.3983516,46.4901478 20.8928571,47.1059113 C21.3873626,47.7216749 21.7994505,48.1937603 22.1291209,48.5221675 C21.7582418,48.727422 21.3667582,48.8813629 20.9546703,48.9839901 C20.5425824,49.0866174 20.1510989,49.1995074 19.7802198,49.3226601 Z" id="路径" fill="url(#linearGradient-1)"></path>
                <path d="M32.9464286,26.1699507 C36.1195055,26.1699507 38.8495879,27.3091133 41.1366758,29.5874384 C43.4237637,31.8657635 44.5673077,34.6059113 44.5673077,37.8078818 C44.5673077,40.9277504 43.4237637,43.6268473 41.1366758,45.9051724 C38.8495879,48.1834975 36.1195055,49.3226601 32.9464286,49.3226601 C29.7321429,49.3226601 26.9917582,48.1834975 24.7252747,45.9051724 C22.4587912,43.6268473 21.3255495,40.9277504 21.3255495,37.8078818 C21.3255495,34.6059113 22.4587912,31.8657635 24.7252747,29.5874384 C26.9917582,27.3091133 29.7321429,26.1699507 32.9464286,26.1699507 Z M32.760989,40.270936 C31.6071429,40.270936 30.4842033,40.4146141 29.3921703,40.7019704 C28.3001374,40.9893268 27.239011,41.4203612 26.2087912,41.9950739 C26.9917582,43.0623974 27.9292582,43.8834154 29.0212912,44.4581281 C30.1133242,45.0328407 31.3598901,45.320197 32.760989,45.320197 C34.1208791,45.320197 35.3571429,45.0328407 36.4697802,44.4581281 C37.5824176,43.8834154 38.5302198,43.0623974 39.3131868,41.9950739 C38.2417582,41.4203612 37.1703297,40.9893268 36.0989011,40.7019704 C35.0274725,40.4146141 33.9148352,40.270936 32.760989,40.270936 Z M32.8228022,29.864532 C31.7513736,29.864532 30.8241758,30.2339901 30.0412088,30.9729064 C29.2582418,31.7118227 28.8667582,32.6149425 28.8667582,33.682266 C28.8667582,34.7495895 29.2582418,35.6732348 30.0412088,36.453202 C30.8241758,37.2331691 31.7513736,37.6231527 32.8228022,37.6231527 C33.8942308,37.6231527 34.8008242,37.2331691 35.5425824,36.453202 C36.2843407,35.6732348 36.6552198,34.7495895 36.6552198,33.682266 C36.6552198,32.6149425 36.2843407,31.7118227 35.5425824,30.9729064 C34.8008242,30.2339901 33.8942308,29.864532 32.8228022,29.864532 Z" id="形状结合" fill="url(#linearGradient-2)"></path>
            </g>
        </g>
    </g>
</svg>