<?xml version="1.0" encoding="UTF-8"?>
<svg width="17px" height="14px" viewBox="0 0 17 14" version="1.1" xmlns="http://www.w3.org/2000/svg" xmlns:xlink="http://www.w3.org/1999/xlink">
    <title>推特1</title>
    <g id="页面-1" stroke="none" stroke-width="1" fill="none" fill-rule="evenodd">
        <g id="01-CoinByte" transform="translate(-1247.000000, -6883.000000)" fill="#909090" fill-rule="nonzero">
            <g id="推特1" transform="translate(1247.000000, 6883.000000)">
                <path d="M14.6219028,3.97429663 C14.6219028,3.82159331 14.6189739,3.67061285 14.612226,3.52066612 C15.2649911,3.03427246 15.8313544,2.42541175 16.2792995,1.72868491 C15.6709765,2.00240631 15.0236586,2.17950419 14.3607164,2.25358463 C15.0506953,1.82898441 15.5798448,1.14991694 15.82989,0.335001508 C15.1838441,0.726809863 14.4692282,1.00691908 13.7094157,1.15287452 C13.1006125,0.460138972 12.2318288,0.0189130996 11.2713887,0.00251716706 C9.42683134,-0.0279775527 7.9315563,1.53078508 7.93155629,3.48365322 C7.93155629,3.76123559 7.96058657,4.03043333 8.01821644,4.29038504 C5.2405551,4.11163773 2.77918319,2.66580893 1.13272669,0.486211682 C0.845438847,1.00841224 0.680618051,1.61870867 0.680618051,2.27273715 C0.680618051,3.50975463 1.2702688,4.6092013 2.16618761,5.25797506 C1.61771335,5.23316579 1.10392612,5.06705284 0.653281915,4.7946965 L0.653281915,4.84012274 C0.653281915,6.56901835 1.8049027,8.01757502 3.33296962,8.35554382 C3.05283168,8.43522635 2.75736024,8.47668998 2.45347545,8.47519682 C2.24233869,8.47410593 2.03188793,8.45105826 1.82551965,8.40642578 C2.25011987,9.8232243 3.48415107,10.8583219 4.94511237,10.892808 C3.80170391,11.8408722 2.36135957,12.4071781 0.797571911,12.4032155 C0.527943443,12.4032155 0.261502287,12.3851254 0.00028714117,12.3523335 C1.47893653,13.3666132 3.23413456,13.9573554 5.12095952,13.9573554 C11.2629753,13.9588195 14.6219028,8.61273892 14.6219028,3.97429663 L14.6219028,3.97429663 Z" id="路径"></path>
            </g>
        </g>
    </g>
</svg>