<?xml version="1.0" encoding="UTF-8"?>
<svg width="16px" height="16px" viewBox="0 0 16 16" version="1.1" xmlns="http://www.w3.org/2000/svg" xmlns:xlink="http://www.w3.org/1999/xlink">
    <title>形状</title>
    <g id="页面-1" stroke="none" stroke-width="1" fill="none" fill-rule="evenodd">
        <g id="12-Wallet-Overview-Deposit-Fiat--Select-currency-Enter-amount-02" transform="translate(-960.000000, -159.000000)" fill="#7F7F7F" fill-rule="nonzero">
            <g id="unarchive_FILL0_wght400_GRAD0_opsz48" transform="translate(960.000000, 159.000000)">
                <path d="M1.33333333,16 C0.977777778,16 0.666666667,15.8666667 0.4,15.6 C0.133333333,15.3333333 0,15.0222222 0,14.6666667 L0,3.04444444 C0,2.82222222 0.0222222222,2.63333333 0.0666666667,2.47777778 C0.111111111,2.32222222 0.192592593,2.17777778 0.311111111,2.04444444 L1.55555556,0.355555556 C1.67407407,0.222222222 1.81111111,0.12962963 1.96666667,0.0777777778 C2.12222222,0.0259259259 2.3037037,0 2.51111111,0 L13.4888889,0 C13.6962963,0 13.8740741,0.0259259259 14.0222222,0.0777777778 C14.1703704,0.12962963 14.3037037,0.222222222 14.4222222,0.355555556 L15.6888889,2.04444444 C15.8074074,2.17777778 15.8888889,2.32222222 15.9333333,2.47777778 C15.9777778,2.63333333 16,2.82222222 16,3.04444444 L16,14.6666667 C16,15.0222222 15.8666667,15.3333333 15.6,15.6 C15.3333333,15.8666667 15.0222222,16 14.6666667,16 L1.33333333,16 Z M1.71111111,2.35555556 L14.2666667,2.35555556 L13.4666667,1.33333333 L2.51111111,1.33333333 L1.71111111,2.35555556 Z M1.33333333,3.68888889 L1.33333333,14.6666667 L14.6666667,14.6666667 L14.6666667,3.68888889 L1.33333333,3.68888889 Z M7.33333333,12.6666667 L8.66666667,12.6666667 L8.66666667,8.2 L10.5777778,10.1111111 L11.4666667,9.22222222 L8,5.75555556 L4.53333333,9.22222222 L5.42222222,10.1111111 L7.33333333,8.2 L7.33333333,12.6666667 Z M1.33333333,14.6666667 L14.6666667,14.6666667 L1.33333333,14.6666667 Z" id="形状"></path>
            </g>
        </g>
    </g>
</svg>