<?xml version="1.0" encoding="UTF-8"?>
<svg width="26px" height="26px" viewBox="0 0 26 26" version="1.1" xmlns="http://www.w3.org/2000/svg" xmlns:xlink="http://www.w3.org/1999/xlink">
    <title>编组 10</title>
    <g id="页面-1" stroke="none" stroke-width="1" fill="none" fill-rule="evenodd">
        <g id="19-Coinflake-user-center-Pay-my-orders-step-1-1" transform="translate(-125.000000, -318.000000)">
            <g id="编组-8" transform="translate(103.000000, 296.000000)">
                <g id="编组-10" transform="translate(22.000000, 22.000000)">
                    <circle id="椭圆形备份-32" fill="#2B2B2B" cx="13" cy="13" r="13"></circle>
                    <g id="编组-5" transform="translate(1.181818, 1.181818)">
                        <path d="M23.3861514,11.6930614 C23.3861514,18.1511824 18.1511824,23.3861514 11.6930614,23.3861514 C5.23519854,23.3861514 -3.89875722e-15,18.1511824 -3.89875722e-15,11.6930614 C-3.89875722e-15,5.23505509 5.23519854,-6.62788727e-14 11.6930614,-6.62788727e-14 C18.1511824,-6.62788727e-14 23.3861514,5.23505509 23.3861514,11.6930614" id="Fill-1" fill="#11377D"></path>
                        <g id="attach_money_FILL0_wght400_GRAD0_opsz48" transform="translate(8.047619, 3.632876)" fill="#FFFFFF" fill-rule="nonzero">
                            <path d="M3.06866282,14.6320346 L3.06866282,12.9249639 C2.29641655,12.7894821 1.66303912,12.4948092 1.16853054,12.0409452 C0.674021966,11.5870811 0.318382235,11.0146705 0.101611352,10.3237133 L1.23965849,9.85630111 C1.46997755,10.5066138 1.80190797,10.9909612 2.23544974,11.3093434 C2.6689915,11.6277257 3.19059644,11.7869168 3.80026455,11.7869168 C4.4505772,11.7869168 4.98573032,11.6243386 5.40572391,11.2991823 C5.82571749,10.974026 6.03571429,10.526936 6.03571429,9.95791246 C6.03571429,9.36179253 5.84942681,8.9011544 5.47685185,8.57599808 C5.1042769,8.25084175 4.40315857,7.91891134 3.37349687,7.58020683 C2.3980279,7.26859869 1.66981321,6.85537919 1.18885281,6.34054834 C0.707892416,5.82571749 0.467412217,5.18217893 0.467412217,4.40993266 C0.467412217,3.66478275 0.707892416,3.04156646 1.18885281,2.54028379 C1.66981321,2.03900112 2.29641655,1.75448934 3.06866282,1.68674844 L3.06866282,0 L4.28799904,0 L4.28799904,1.68674844 C4.89766715,1.75448934 5.42265913,1.954325 5.86297499,2.28625541 C6.30329084,2.61818583 6.63860831,3.04156646 6.86892737,3.55639731 L5.73088023,4.04413179 C5.54120571,3.61059003 5.28717733,3.29559484 4.96879509,3.09914622 C4.65041286,2.90269761 4.23380632,2.8044733 3.71897547,2.8044733 C3.09575918,2.8044733 2.6012506,2.9467292 2.23544974,3.23124098 C1.86964887,3.51575277 1.68674844,3.9018759 1.68674844,4.38961039 C1.68674844,4.90444124 1.88997114,5.32104778 2.29641655,5.63943001 C2.70286195,5.95781225 3.45478595,6.28635562 4.55218855,6.62506013 C5.47346481,6.90957191 6.15426086,7.31940436 6.59457672,7.85455748 C7.03489258,8.3897106 7.25505051,9.06373256 7.25505051,9.87662338 C7.25505051,10.7301587 7.00440917,11.4177289 6.5031265,11.9393338 C6.00184384,12.4609388 5.26346801,12.7962562 4.28799904,12.9452862 L4.28799904,14.6320346 L3.06866282,14.6320346 Z" id="路径"></path>
                        </g>
                    </g>
                </g>
            </g>
        </g>
    </g>
</svg>