<?xml version="1.0" encoding="UTF-8"?>
<svg width="10px" height="12px" viewBox="0 0 10 12" version="1.1" xmlns="http://www.w3.org/2000/svg" xmlns:xlink="http://www.w3.org/1999/xlink">
    <title>content_copy_FILL0_wght400_GRAD0_opsz48</title>
    <g id="页面-1" stroke="none" stroke-width="1" fill="none" fill-rule="evenodd">
        <g id="17-CoinbyteP2P-user-center" transform="translate(-261.000000, -233.000000)" fill="#99A0B0" fill-rule="nonzero">
            <g id="content_copy_FILL0_wght400_GRAD0_opsz48" transform="translate(261.000000, 233.000000)">
                <path d="M0.882352941,11.9853659 C0.647058824,11.9853659 0.441176471,11.897561 0.264705882,11.7219512 C0.0882352941,11.5463415 0,11.3414634 0,11.1073171 L0,2.28292683 L0.882352941,2.28292683 L0.882352941,11.1073171 L7.85294118,11.1073171 L7.85294118,11.9853659 L0.882352941,11.9853659 Z M2.64705882,10.2292683 C2.41176471,10.2292683 2.20588235,10.1414634 2.02941176,9.96585366 C1.85294118,9.7902439 1.76470588,9.58536585 1.76470588,9.35121951 L1.76470588,1.15609756 C1.76470588,0.92195122 1.85294118,0.717073171 2.02941176,0.541463415 C2.20588235,0.365853659 2.41176471,0.27804878 2.64705882,0.27804878 L9.11764706,0.27804878 C9.35294118,0.27804878 9.55882353,0.365853659 9.73529412,0.541463415 C9.91176471,0.717073171 10,0.92195122 10,1.15609756 L10,9.35121951 C10,9.58536585 9.91176471,9.7902439 9.73529412,9.96585366 C9.55882353,10.1414634 9.35294118,10.2292683 9.11764706,10.2292683 L2.64705882,10.2292683 Z M2.64705882,9.35121951 L9.11764706,9.35121951 L9.11764706,1.15609756 L2.64705882,1.15609756 L2.64705882,9.35121951 Z M2.64705882,9.35121951 L2.64705882,1.15609756 L2.64705882,9.35121951 Z" id="形状"></path>
            </g>
        </g>
    </g>
</svg>