<?xml version="1.0" encoding="UTF-8"?>
<svg width="50px" height="50px" viewBox="0 0 50 50" version="1.1" xmlns="http://www.w3.org/2000/svg" xmlns:xlink="http://www.w3.org/1999/xlink">
    <title>编组 2</title>
    <g id="页面-1" stroke="none" stroke-width="1" fill="none" fill-rule="evenodd">
        <g id="21-Log-in" transform="translate(-560.000000, -211.000000)" fill="#000000">
            <g id="编组-5" transform="translate(448.000000, 168.000000)">
                <g id="编组-2" transform="translate(113.000000, 44.000000)">
                    <g id="yucunkuan" transform="translate(24.000000, 23.323944) rotate(-270.000000) translate(-24.000000, -23.323944) translate(14.197183, 10.816901)">
                        <path d="M18.3006148,0 C18.9708637,0 19.5111663,0.574222972 19.5145005,1.27884507 L19.5145005,1.27884507 L19.5145005,23.6963531 C19.5145005,24.4045864 18.9708637,24.9753743 18.3006148,24.9753743 L18.3006148,24.9753743 L1.63155156,25.0141285 C0.964807833,25.0141285 0.42100006,24.4433406 0.42100006,23.7351073 L0.42100006,23.7351073 L0.42100006,17.2420147 L2.44204827,17.2420147 L2.44204827,22.9319262 L17.4936232,22.893172 L17.4936232,2.08220234 L2.44204827,2.12095656 L2.44204827,7.80725689 L0.42100006,7.80725689 L0.42100006,1.31416425 C0.42100006,0.609542154 0.964807833,0.0387542154 1.63155156,0.0387542154 L1.63155156,0.0387542154 Z M8.73234763,8.39566038 C8.9888204,8.39566038 9.24879831,8.49765443 9.44718,8.70203888 L9.44718,8.70203888 L12.7778209,12.1370716 C13.1745416,12.5423614 13.1745416,13.2046622 12.7778209,13.6097758 L12.7778209,13.6097758 L9.44718,17.0448086 C9.24879831,17.2455818 8.9888204,17.347752 8.73234763,17.347752 C8.47587485,17.347752 8.21606793,17.249193 8.01768624,17.0448086 C7.62447073,16.6396949 7.62447073,15.9808292 8.01768624,15.5721043 L8.01768624,15.5721043 L9.62833527,13.9092843 L1.66066656,13.9092843 C1.10664262,13.9092843 0.651788154,13.4441016 0.651788154,12.8698786 C0.651788154,12.2990907 1.10313749,11.8306931 1.66066656,11.8306931 L1.66066656,11.8306931 L9.62833527,11.8306931 L8.01768624,10.1711319 C7.62447073,9.76601825 7.62447073,9.1073287 8.01768624,8.70203888 C8.21606793,8.49765443 8.47587485,8.39566038 8.73234763,8.39566038 Z" id="形状结合"></path>
                    </g>
                    <path d="M24,-1 C10.1928813,-1 -1,10.1928813 -1,24 C-1,37.8071187 10.1928813,49 24,49 C37.8071187,49 49,37.8071187 49,24 C49,10.1928813 37.8071187,-1 24,-1 Z M24,1 C36.7025492,1 47,11.2974508 47,24 C47,36.7025492 36.7025492,47 24,47 C11.2974508,47 1,36.7025492 1,24 C1,11.2974508 11.2974508,1 24,1 Z" id="椭圆形" fill-rule="nonzero"></path>
                </g>
            </g>
        </g>
    </g>
</svg>