<?xml version="1.0" encoding="UTF-8"?>
<svg width="14px" height="14px" viewBox="0 0 14 14" version="1.1" xmlns="http://www.w3.org/2000/svg" xmlns:xlink="http://www.w3.org/1999/xlink">
    <title>xianshi_tishi</title>
    <defs>
        <polygon id="path-1" points="0.00116991643 0.00389972145 13.9766212 0.00389972145 13.9766212 13.9805209 0.00116991643 13.9805209"></polygon>
    </defs>
    <g id="页面-1" stroke="none" stroke-width="1" fill="none" fill-rule="evenodd">
        <g id="24-Coinflake-user-center-Pay-my-orders-step-3-2" transform="translate(-365.000000, -459.000000)">
            <g id="编组-8" transform="translate(365.000000, 457.000000)">
                <g id="编组" transform="translate(0.000000, 2.000000)">
                    <mask id="mask-2" fill="white">
                        <use xlink:href="#path-1"></use>
                    </mask>
                    <g id="Clip-2"></g>
                    <path d="M6.98826184,0.00389972145 C10.7819694,0.00389972145 13.9766212,3.09869916 13.9766212,6.99216156 C13.9766212,10.8856435 10.7819694,13.9805209 6.98826184,13.9805209 C3.19465181,13.9805209 0,10.8856435 0,6.99216156 C0,3.19855153 3.09479944,0.00389972145 6.98826184,0.00389972145 Z M6.98826184,1.00220891 C3.69383565,1.00220891 0.998309192,3.69773538 0.998309192,6.99216156 C0.998309192,10.2866657 3.69383565,12.9822117 6.98826184,12.9822117 C10.282766,12.9822117 12.978312,10.2866657 12.978312,6.99216156 C12.978312,3.69773538 10.282766,1.00220891 6.98826184,1.00220891 Z M6.98826184,5.49474652 C7.28783844,5.49474652 7.48746518,5.69437326 7.48746518,5.99385237 L7.48746518,10.48639 C7.48746518,10.7858691 7.28783844,10.9854958 6.98826184,10.9854958 C6.68878273,10.9854958 6.48915599,10.7858691 6.48915599,10.48639 L6.48915599,5.99385237 C6.48915599,5.69437326 6.68878273,5.49474652 6.98826184,5.49474652 Z M6.98826184,2.99892479 C7.38761281,2.99892479 7.78694429,3.2984039 7.78694429,3.79752925 C7.78694429,4.29671309 7.48746518,4.5962117 6.98826184,4.5962117 C6.48915599,4.5962117 6.18965738,4.19686072 6.18965738,3.79752925 C6.18965738,3.2984039 6.58900836,2.99892479 6.98826184,2.99892479 Z" id="形状结合" fill="#878787" mask="url(#mask-2)"></path>
                </g>
            </g>
        </g>
    </g>
</svg>