<?xml version="1.0" encoding="UTF-8"?>
<svg width="50px" height="50px" viewBox="0 0 50 50" version="1.1" xmlns="http://www.w3.org/2000/svg" xmlns:xlink="http://www.w3.org/1999/xlink">
    <title>编组 7</title>
    <g id="页面-1" stroke="none" stroke-width="1" fill="none" fill-rule="evenodd">
        <g id="21-Log-in" transform="translate(-828.000000, -211.000000)" fill="#000000" fill-rule="nonzero">
            <g id="编组-5" transform="translate(448.000000, 168.000000)">
                <g id="编组-8" transform="translate(381.000000, 44.000000)">
                    <g id="编组-2备份">
                        <path d="M24,-1 C10.1928813,-1 -1,10.1928813 -1,24 C-1,37.8071187 10.1928813,49 24,49 C37.8071187,49 49,37.8071187 49,24 C49,10.1928813 37.8071187,-1 24,-1 Z M24,1 C36.7025492,1 47,11.2974508 47,24 C47,36.7025492 36.7025492,47 24,47 C11.2974508,47 1,36.7025492 1,24 C1,11.2974508 11.2974508,1 24,1 Z" id="椭圆形"></path>
                    </g>
                    <g id="currency_exchange_FILL0_wght400_GRAD0_opsz48" transform="translate(12.000000, 11.000000)">
                        <path d="M12,24 C9.96363636,24 8,23.4 6.10909091,22.2 C4.21818182,21 2.72727273,19.6272727 1.63636364,18.0818182 L1.63636364,21.8181818 L0,21.8181818 L0,15.2727273 L6.54545455,15.2727273 L6.54545455,16.9090909 L2.80909091,16.9090909 C3.73636364,18.3090909 5.05909091,19.5681818 6.77727273,20.6863636 C8.49545455,21.8045455 10.2363636,22.3636364 12,22.3636364 C13.4181818,22.3636364 14.7590909,22.0909091 16.0227273,21.5454545 C17.2863636,21 18.3863636,20.2590909 19.3227273,19.3227273 C20.2590909,18.3863636 21,17.2863636 21.5454545,16.0227273 C22.0909091,14.7590909 22.3636364,13.4181818 22.3636364,12 L24,12 C24,13.6545455 23.6863636,15.2090909 23.0590909,16.6636364 C22.4318182,18.1181818 21.5727273,19.3909091 20.4818182,20.4818182 C19.3909091,21.5727273 18.1181818,22.4318182 16.6636364,23.0590909 C15.2090909,23.6863636 13.6545455,24 12,24 Z M11.2090909,19.8272727 L11.2090909,18.3545455 C10.3909091,18.1363636 9.70454545,17.7863636 9.15,17.3045455 C8.59545455,16.8227273 8.12727273,16.1636364 7.74545455,15.3272727 L9.13636364,14.8636364 C9.35454545,15.5545455 9.74090909,16.1 10.2954545,16.5 C10.85,16.9 11.4818182,17.1 12.1909091,17.1 C12.9181818,17.1 13.5227273,16.9227273 14.0045455,16.5681818 C14.4863636,16.2136364 14.7272727,15.7454545 14.7272727,15.1636364 C14.7272727,14.5636364 14.5,14.0590909 14.0454545,13.65 C13.5909091,13.2409091 12.7545455,12.7818182 11.5363636,12.2727273 C10.4454545,11.8181818 9.62727273,11.3272727 9.08181818,10.8 C8.53636364,10.2727273 8.26363636,9.56363636 8.26363636,8.67272727 C8.26363636,7.87272727 8.53636364,7.19090909 9.08181818,6.62727273 C9.62727273,6.06363636 10.3545455,5.71818182 11.2636364,5.59090909 L11.2636364,4.2 L12.7636364,4.2 L12.7636364,5.59090909 C13.4545455,5.66363636 14.0545455,5.88181818 14.5636364,6.24545455 C15.0727273,6.60909091 15.4818182,7.10909091 15.7909091,7.74545455 L14.4818182,8.37272727 C14.2090909,7.86363636 13.8727273,7.48181818 13.4727273,7.22727273 C13.0727273,6.97272727 12.6,6.84545455 12.0545455,6.84545455 C11.3454545,6.84545455 10.7863636,7.00909091 10.3772727,7.33636364 C9.96818182,7.66363636 9.76363636,8.10909091 9.76363636,8.67272727 C9.76363636,9.25454545 10,9.71818182 10.4727273,10.0636364 C10.9454545,10.4090909 11.7090909,10.8 12.7636364,11.2363636 C14.0181818,11.7636364 14.9090909,12.3181818 15.4363636,12.9 C15.9636364,13.4818182 16.2272727,14.2363636 16.2272727,15.1636364 C16.2272727,15.6181818 16.1454545,16.0363636 15.9818182,16.4181818 C15.8181818,16.8 15.5863636,17.1272727 15.2863636,17.4 C14.9863636,17.6727273 14.6181818,17.8954545 14.1818182,18.0681818 C13.7454545,18.2409091 13.2545455,18.3545455 12.7090909,18.4090909 L12.7090909,19.8272727 L11.2090909,19.8272727 Z M0,12 C0,10.3454545 0.313636364,8.79090909 0.940909091,7.33636364 C1.56818182,5.88181818 2.42727273,4.60909091 3.51818182,3.51818182 C4.60909091,2.42727273 5.88181818,1.56818182 7.33636364,0.940909091 C8.79090909,0.313636364 10.3454545,0 12,0 C14.0363636,0 16,0.6 17.8909091,1.8 C19.7818182,3 21.2727273,4.37272727 22.3636364,5.91818182 L22.3636364,2.18181818 L24,2.18181818 L24,8.72727273 L17.4545455,8.72727273 L17.4545455,7.09090909 L21.1909091,7.09090909 C20.2636364,5.69090909 18.9454545,4.43181818 17.2363636,3.31363636 C15.5272727,2.19545455 13.7818182,1.63636364 12,1.63636364 C10.5818182,1.63636364 9.24090909,1.90909091 7.97727273,2.45454545 C6.71363636,3 5.61363636,3.74090909 4.67727273,4.67727273 C3.74090909,5.61363636 3,6.71363636 2.45454545,7.97727273 C1.90909091,9.24090909 1.63636364,10.5818182 1.63636364,12 L0,12 Z" id="形状"></path>
                    </g>
                </g>
            </g>
        </g>
    </g>
</svg>