<?xml version="1.0" encoding="UTF-8"?>
<svg width="344px" height="286px" viewBox="0 0 344 286" version="1.1" xmlns="http://www.w3.org/2000/svg" xmlns:xlink="http://www.w3.org/1999/xlink">
    <title>形状结合</title>
    <g id="页面-1" stroke="none" stroke-width="1" fill="none" fill-rule="evenodd">
        <g id="03-Home-Totally-reliable" transform="translate(-228.000000, -1925.000000)" fill="#FFFFFF" fill-rule="nonzero">
            <g id="编组-13" transform="translate(228.000000, 1925.000000)">
                <path d="M305,118.7 C306.546397,118.7 307.8,119.953603 307.8,121.5 C307.8,122.989123 306.637537,124.206739 305.170568,124.29489 L305,124.3 L296.8,124.299 L296.8,139.5 C296.8,140.989123 295.637537,142.206739 294.170568,142.29489 L294,142.3 L286.799,142.299 L286.8,236.5 C286.8,236.741783 286.769354,236.976409 286.711735,237.200204 L294,237.2 L294.170568,237.20511 C295.581115,237.289871 296.710129,238.418885 296.79489,239.829432 L296.8,240 L296.8,255.199 L305,255.2 C306.489123,255.2 307.706739,256.362463 307.79489,257.829432 L307.8,258 L307.8,268.199 L319,268.2 C320.489123,268.2 321.706739,269.362463 321.79489,270.829432 L321.8,271 L321.8,279.699 L341,279.7 C342.546397,279.7 343.8,280.953603 343.8,282.5 C343.8,283.989123 342.637537,285.206739 341.170568,285.29489 L341,285.3 L3,285.3 C1.4536027,285.3 0.2,284.046397 0.2,282.5 C0.2,281.010877 1.36246286,279.793261 2.82943181,279.70511 L3,279.7 L22.2,279.699 L22.2,271 C22.2,269.510877 23.3624629,268.293261 24.8294318,268.20511 L25,268.2 L37.2,268.199 L37.2,258 C37.2,256.510877 38.3624629,255.293261 39.8294318,255.20511 L40,255.2 L47.2,255.199 L47.2,240 L47.20511,239.829432 C47.2898707,238.418885 48.4188847,237.289871 49.8294318,237.20511 L50,237.2 L57.2,237.199 L57.2,142.299 L50,142.3 C48.5108767,142.3 47.2932611,141.137537 47.20511,139.670568 L47.2,139.5 L47.2,124.299 L40,124.3 C38.4536027,124.3 37.2,123.046397 37.2,121.5 C37.2,120.010877 38.3624629,118.793261 39.8294318,118.70511 L40,118.7 L305,118.7 Z M316.2,273.8 L27.8,273.8 L27.8,279.699 L316.2,279.699 L316.2,273.8 Z M302.2,260.8 L42.8,260.8 L42.8,268.199 L302.2,268.199 L302.2,260.8 Z M255.2,124.299 L88.8,124.299 L88.8,139.5 C88.8,140.989123 87.6375371,142.206739 86.1705682,142.29489 L86,142.3 L78.8,142.299 L78.8,237.199 L86,237.2 L86.1705682,237.20511 C87.5811153,237.289871 88.7101293,238.418885 88.79489,239.829432 L88.8,240 L88.8,255.199 L255.2,255.199 L255.2,240 L255.20511,239.829432 C255.289871,238.418885 256.418885,237.289871 257.829432,237.20511 L258,237.2 L265.288265,237.200204 C265.244295,237.029422 265.216032,236.852332 265.20511,236.670568 L265.2,236.5 L265.199,142.299 L258,142.3 C256.510877,142.3 255.293261,141.137537 255.20511,139.670568 L255.2,139.5 L255.2,124.299 Z M83.2,242.801 L52.8,242.801 L52.8,255.199 L83.2,255.199 L83.2,242.801 Z M291.2,242.801 L260.8,242.801 L260.8,255.199 L291.2,255.199 L291.2,242.801 Z M281.199,142.299 L270.799,142.299 L270.8,236.5 C270.8,236.741783 270.769354,236.976409 270.711735,237.200204 L281.288265,237.200204 C281.244295,237.029422 281.216032,236.852332 281.20511,236.670568 L281.2,236.5 L281.199,142.299 Z M73.2,142.299 L62.8,142.299 L62.8,237.199 L73.2,237.199 L73.2,142.299 Z M172.5,142 C198.733526,142 220,163.266474 220,189.5 C220,215.733526 198.733526,237 172.5,237 C146.266474,237 125,215.733526 125,189.5 C125,163.266474 146.266474,142 172.5,142 Z M194.958846,174.848781 C194.404264,174.839101 193.94241,175.017734 193.573283,175.384681 C193.24517,175.710857 193.059208,176.102732 193.015396,176.560309 L193.00563,176.73498 L192.969481,178.748656 C191.913753,178.888324 190.961991,179.15954 190.114193,179.562304 L189.801055,179.719507 C188.670428,180.318533 187.781747,181.113811 187.13501,182.105342 C186.488274,183.096872 186.153736,184.23254 186.131397,185.512345 C186.102729,187.154762 186.559293,188.501601 187.501089,189.552865 C188.384023,190.538424 189.712178,191.264527 191.485554,191.731173 L191.846166,191.821042 L195.352226,192.650358 C196.074843,192.812327 196.65283,193.009111 197.086187,193.24071 C197.519544,193.472308 197.82427,193.739 198.000363,194.040786 C198.176456,194.342572 198.261152,194.685436 198.25445,195.069377 C198.246259,195.538639 198.105686,195.952249 197.832731,196.310206 C197.559775,196.668164 197.122722,196.953913 196.52157,197.167454 C195.920418,197.380995 195.12925,197.479202 194.148067,197.462075 C192.825601,197.438992 191.708285,197.275467 190.796118,196.971501 C189.88395,196.667535 189.174326,196.372439 188.667244,196.086212 C188.138832,195.799613 187.665727,195.706009 187.247929,195.805399 C186.83013,195.904789 186.490365,196.117558 186.228633,196.443707 C185.966901,196.769855 185.810889,197.151191 185.760596,197.587713 C185.710304,198.024235 185.772273,198.446714 185.946505,198.85515 C186.120737,199.263587 186.440436,199.589216 186.905602,199.832038 C187.624123,200.228638 188.524508,200.596408 189.606758,200.935347 C190.448508,201.198967 191.407852,201.380742 192.48479,201.480671 L192.572561,201.488192 L192.540419,203.38692 C192.532145,203.860922 192.668228,204.274224 192.948669,204.626827 L193.060601,204.756207 C193.416697,205.135813 193.872036,205.330456 194.426618,205.340136 C194.9812,205.349817 195.437722,205.17109 195.796184,204.803957 C196.109838,204.482715 196.289832,204.097882 196.336165,203.649455 L196.347839,203.453379 L196.382058,201.435669 L196.560195,201.408774 C197.527868,201.246437 198.408527,200.978033 199.20217,200.60356 L199.536975,200.436578 C200.635234,199.858324 201.50212,199.089336 202.137633,198.129614 C202.773146,197.169892 203.101886,196.060794 203.123853,194.802319 C203.151777,193.202563 202.689229,191.892958 201.736209,190.873503 C200.842753,189.917765 199.481051,189.19764 197.651103,188.713129 L197.27887,188.619368 L193.740814,187.789495 C192.699736,187.53662 191.974393,187.225247 191.564786,186.855375 C191.155178,186.485504 190.955587,186.001947 190.966012,185.404704 C190.98016,184.594161 191.338316,183.938979 192.040479,183.439157 C192.742643,182.939335 193.722962,182.700408 194.981437,182.722375 C195.983951,182.739874 196.824814,182.850566 197.504025,183.05445 C198.183237,183.258335 198.808379,183.50395 199.379451,183.791293 C199.929193,184.078265 200.412684,184.188053 200.829924,184.120658 C201.247164,184.053263 201.586277,183.877821 201.847265,183.594333 C202.108252,183.310844 202.279424,182.977781 202.360781,182.595143 C202.442138,182.212504 202.40618,181.827818 202.252906,181.441084 C202.099632,181.05435 201.822593,180.729466 201.421789,180.466431 C200.684544,179.920147 199.811845,179.494185 198.803693,179.188544 C198.227605,179.013892 197.673455,178.879683 197.141242,178.785918 L196.778402,178.729128 L196.81305,176.801439 C196.821324,176.327437 196.685241,175.914135 196.4048,175.561533 L196.292868,175.432152 C195.936773,175.052546 195.492099,174.858089 194.958846,174.848781 Z M168.653592,178.358226 C167.949699,178.345939 167.408043,178.512511 167.028623,178.857942 C166.649203,179.203373 166.453723,179.706705 166.442181,180.367937 C166.430639,181.02917 166.608341,181.54435 166.975288,181.913477 C167.301464,182.24159 167.760753,182.428728 168.353157,182.474893 L168.581548,182.485597 L177.96012,182.649301 L167.221574,196.223955 C166.821163,196.702373 166.539151,197.182857 166.375538,197.665409 L166.312667,197.872343 C166.164341,198.424505 166.155499,198.931095 166.286139,199.392112 C166.41678,199.853128 166.682409,200.220487 167.083027,200.494187 C167.433567,200.733675 167.875709,200.872662 168.409452,200.91115 L168.643807,200.921491 L182.01777,201.154935 C182.721663,201.167221 183.263319,201.000649 183.642739,200.655218 C184.022158,200.309787 184.217825,199.795791 184.229739,199.113228 C184.241281,198.451995 184.063486,197.942148 183.696352,197.583686 C183.370012,197.265053 182.91063,197.083181 182.318208,197.03807 L182.089813,197.027564 L172.177323,196.85454 L183.124849,183.045457 C183.421263,182.653292 183.641544,182.257076 183.785695,181.856809 L183.863049,181.616164 C184.022226,181.053523 184.031069,180.546933 183.889577,180.096395 C183.748085,179.645857 183.482363,179.283831 183.09241,179.010317 C182.751202,178.770992 182.306144,178.631954 181.757237,178.593202 L181.515633,178.582733 L168.653592,178.358226 Z M145.654122,177.668725 C144.99289,177.657183 144.461247,177.861269 144.059194,178.280982 C143.697346,178.658725 143.4926,179.194753 143.444956,179.889067 L143.434893,180.126368 L143.116561,198.36359 C143.103157,199.131473 143.290129,199.726827 143.677475,200.149651 C144.064821,200.572476 144.631771,200.790404 145.378324,200.803435 C146.146207,200.816838 146.725749,200.618922 147.116951,200.209688 C147.469033,199.841376 147.668106,199.327812 147.714171,198.668996 L147.723859,198.444011 L147.93875,186.132886 L158.074084,199.552816 C158.4138,199.99767 158.735706,200.340319 159.039801,200.580765 L159.190364,200.692471 C159.538215,200.933245 160.010762,201.058845 160.608004,201.06927 C161.226576,201.080067 161.720798,200.880662 162.09067,200.471055 C162.419445,200.106959 162.606951,199.626603 162.65319,199.029986 L162.663907,198.800805 L162.986149,180.339617 C162.99918,179.593064 162.812022,179.008375 162.424676,178.585551 C162.037329,178.162726 161.47038,177.944798 160.723827,177.931767 C159.977274,177.918736 159.403064,178.116745 159.001197,178.525794 C158.639517,178.893938 158.435315,179.398771 158.388592,180.040293 L158.37885,180.259196 L158.164605,192.533327 L148.028625,179.150391 C147.681831,178.696269 147.369858,178.353023 147.092704,178.12065 L146.976056,178.02785 C146.670679,177.798486 146.230035,177.678777 145.654122,177.668725 Z M83.2,124.299 L52.8,124.299 L52.8,136.7 L83.2,136.7 L83.2,124.299 Z M291.2,124.299 L260.8,124.299 L260.8,136.7 L291.2,136.7 L291.2,124.299 Z M174.283444,0.841326366 L174.427761,0.969300788 L282.643,103.699 L305,103.7 C306.546397,103.7 307.8,104.953603 307.8,106.5 C307.8,107.989123 306.637537,109.206739 305.170568,109.29489 L305,109.3 L40,109.3 C38.4536027,109.3 37.2,108.046397 37.2,106.5 C37.2,105.010877 38.3624629,103.793261 39.8294318,103.70511 L40,103.7 L62.356,103.699 L170.572239,0.969300788 C171.605768,-0.0118364488 173.201066,-0.0544945895 174.283444,0.841326366 Z M172.5,6.86 L70.489,103.699 L81.855596,103.699118 C81.8892163,103.659186 81.9241204,103.619994 81.9603062,103.581598 L82.0965076,103.446535 L171.096508,20.9465355 C172.127885,19.9904835 173.698527,19.9532156 174.771853,20.8318108 L174.915035,20.9572958 L262.915035,103.457296 C262.997131,103.534261 263.073555,103.615008 263.144291,103.699014 L274.51,103.699 L172.5,6.86 Z M172.989,26.828 L90.061,103.699 L254.985,103.699 L172.989,26.828 Z M195,76.6 C196.601626,76.6 197.9,77.8983742 197.9,79.5 C197.9,81.0444249 196.692711,82.3068722 195.170397,82.3950771 L195,82.4 L150,82.4 C148.398374,82.4 147.1,81.1016258 147.1,79.5 C147.1,77.9555751 148.307289,76.6931278 149.829603,76.6049229 L150,76.6 L195,76.6 Z" id="形状结合"></path>
            </g>
        </g>
    </g>
</svg>