<?xml version="1.0" encoding="UTF-8"?>
<svg width="348px" height="265px" viewBox="0 0 348 265" version="1.1" xmlns="http://www.w3.org/2000/svg" xmlns:xlink="http://www.w3.org/1999/xlink">
    <title>形状结合</title>
    <g id="页面-1" stroke="none" stroke-width="1" fill="none" fill-rule="evenodd">
        <g id="05-Home-Live-chat" transform="translate(-236.000000, -1941.000000)" fill="#FFFFFF" fill-rule="nonzero">
            <path d="M318.513084,2199.20003 L425.513084,2199.70003 C427.059464,2199.70726 428.307196,2200.9667 428.300001,2202.51308 C428.293011,2204.00219 427.124871,2205.21436 425.657506,2205.29566 L425.486916,2205.29997 L318.486916,2204.79997 C316.940536,2204.79274 315.692804,2203.5333 315.699999,2201.98692 C315.706989,2200.49781 316.875129,2199.28564 318.342494,2199.20434 L318.513084,2199.20003 Z M545,2184.7 C546.546397,2184.7 547.8,2185.9536 547.8,2187.5 C547.8,2188.98912 546.637537,2190.20674 545.170568,2190.29489 L545,2190.3 L481,2190.3 C479.453603,2190.3 478.2,2189.0464 478.2,2187.5 C478.2,2186.01088 479.362463,2184.79326 480.829432,2184.70511 L481,2184.7 L545,2184.7 Z M270,1994 L270,2055 L270.082671,2055 C270.082671,2104.50553 309.429751,2145.00029 358.49089,2146.85124 C360.17274,2140.59651 365.974789,2136 372.894366,2136 L388.105634,2136 C396.34507,2136 403,2142.51724 403,2150.58621 L403,2154 L358,2154 L357.999601,2153.92037 C306.561112,2151.86913 265.131421,2110.43976 263.079667,2059.0014 L253.476636,2059 C243.943925,2059 236,2051.26942 236,2041.64563 L236,2011.35437 C236,2001.88835 243.785047,1994 253.476636,1994 L270,1994 Z M388.264085,2142.98276 L373.052817,2142.98276 C369.883803,2142.98276 367.348592,2144.53448 366.080986,2147.01724 L395.077465,2147.01724 C393.809859,2144.53448 391.274648,2142.98276 388.264085,2142.98276 Z M547.388,2119.948 C548.948,2119.948 550.386667,2120.08667 551.704,2120.364 C553.021333,2120.64133 554.286667,2121.092 555.5,2121.716 C556.124,2122.028 556.566,2122.444 556.826,2122.964 C557.086,2123.484 557.172667,2124.02133 557.086,2124.576 C556.999333,2125.13067 556.782667,2125.63333 556.436,2126.084 C556.089333,2126.53467 555.647333,2126.82933 555.11,2126.968 C554.572667,2127.10667 553.957333,2127.03733 553.264,2126.76 C552.154667,2126.24 551.132,2125.86733 550.196,2125.642 C549.26,2125.41667 548.358667,2125.304 547.492,2125.304 C545.932,2125.304 544.805333,2125.55533 544.112,2126.058 C543.418667,2126.56067 543.072,2127.19333 543.072,2127.956 C543.072,2128.54533 543.271333,2129.03933 543.67,2129.438 C544.068667,2129.83667 544.684,2130.10533 545.516,2130.244 L545.516,2130.244 L550.976,2131.232 L551.368069,2131.30316 C553.429356,2131.70333 555.014667,2132.43361 556.124,2133.494 C557.302667,2134.62067 557.892,2136.15467 557.892,2138.096 C557.892,2140.73067 556.860667,2142.802 554.798,2144.31 C552.735333,2145.818 549.988,2146.572 546.556,2146.572 C545.030667,2146.572 543.462,2146.43333 541.85,2146.156 C540.238,2145.87867 538.773333,2145.41067 537.456,2144.752 C536.762667,2144.40533 536.268667,2143.96333 535.974,2143.426 C535.679333,2142.88867 535.549333,2142.34267 535.584,2141.788 C535.618667,2141.23333 535.800667,2140.73067 536.13,2140.28 C536.459333,2139.82933 536.892667,2139.526 537.43,2139.37 C537.967333,2139.214 538.565333,2139.27467 539.224,2139.552 C540.645333,2140.14133 541.945333,2140.55733 543.124,2140.8 C544.302667,2141.04267 545.464,2141.164 546.608,2141.164 C548.098667,2141.164 549.182,2140.93 549.858,2140.462 C550.534,2139.994 550.872,2139.37867 550.872,2138.616 C550.872,2137.92267 550.646667,2137.40267 550.196,2137.056 C549.745333,2136.70933 549.086667,2136.46667 548.22,2136.328 L548.22,2136.328 L542.76,2135.34 L542.385834,2135.26848 C540.417631,2134.86447 538.88702,2134.09965 537.794,2132.974 C536.632667,2131.778 536.052,2130.244 536.052,2128.372 C536.052,2126.63867 536.537333,2125.13933 537.508,2123.874 C538.478667,2122.60867 539.822,2121.638 541.538,2120.962 C543.254,2120.286 545.204,2119.948 547.388,2119.948 Z M471.728,2108.872 C472.837333,2108.872 473.73,2109.21 474.406,2109.886 C475.082,2110.562 475.42,2111.576 475.42,2112.928 L475.42,2112.928 L475.42,2133.104 L477.344,2133.104 L477.603077,2133.10877 C478.619692,2133.14692 479.4,2133.414 479.944,2133.91 C480.533333,2134.44733 480.828,2135.236 480.828,2136.276 C480.828,2137.28133 480.542,2138.06133 479.97,2138.616 C479.398,2139.17067 478.522667,2139.448 477.344,2139.448 L477.344,2139.448 L475.42,2139.448 L475.42,2142.412 L475.414827,2142.68951 C475.36999,2143.87136 475.033714,2144.78419 474.406,2145.428 C473.73,2146.12133 472.768,2146.468 471.52,2146.468 C470.272,2146.468 469.292667,2146.12133 468.582,2145.428 C467.871333,2144.73467 467.516,2143.72933 467.516,2142.412 L467.516,2142.412 L467.516,2139.448 L455.868,2139.448 L455.576615,2139.44292 C454.429538,2139.40231 453.504,2139.118 452.8,2138.59 C452.037333,2138.018 451.656,2137.14267 451.656,2135.964 C451.656,2135.27067 451.812,2134.56 452.124,2133.832 C452.436,2133.104 452.990667,2132.20267 453.788,2131.128 L453.788,2131.128 L467.256,2111.524 L467.455012,2111.24281 C467.99256,2110.51353 468.584889,2109.94859 469.232,2109.548 C469.96,2109.09733 470.792,2108.872 471.728,2108.872 Z M530.8,2119.948 C531.666667,2119.87867 532.334,2120.09533 532.802,2120.598 C533.27,2121.10067 533.521333,2121.924 533.556,2123.068 C533.625333,2124.14267 533.408667,2124.992 532.906,2125.616 C532.403333,2126.24 531.562667,2126.62133 530.384,2126.76 L530.384,2126.76 L529.188,2126.864 L528.844602,2126.89873 C527.041456,2127.10601 525.691255,2127.66643 524.794,2128.58 C523.840667,2129.55067 523.364,2130.95467 523.364,2132.792 L523.364,2132.792 L523.364,2142.464 L523.358827,2142.73435 C523.31399,2143.88631 522.977714,2144.78419 522.35,2145.428 C521.674,2146.12133 520.694667,2146.468 519.412,2146.468 C518.094667,2146.468 517.089333,2146.12133 516.396,2145.428 C515.702667,2144.73467 515.356,2143.74667 515.356,2142.464 L515.356,2142.464 L515.356,2124.004 L515.361173,2123.73379 C515.40601,2122.58298 515.742286,2121.69371 516.37,2121.066 C517.046,2120.39 517.990667,2120.052 519.204,2120.052 C520.452,2120.052 521.405333,2120.39 522.064,2121.066 L522.064,2121.066 L522.200102,2121.2155 C522.768034,2121.88345 523.052,2122.81295 523.052,2124.004 L523.052,2124.004 L523.052,2124.94 L523.160318,2124.68054 C523.659087,2123.54842 524.368314,2122.61224 525.288,2121.872 C526.709333,2120.728 528.546667,2120.08667 530.8,2119.948 Z M488.368,2108.872 C489.616,2108.872 490.578,2109.21 491.254,2109.886 L491.254,2109.886 L491.393684,2110.03577 C491.976561,2110.70602 492.268,2111.65276 492.268,2112.876 L492.268,2112.876 L492.268,2123.967 L492.467333,2123.68333 C493.172222,2122.72422 494.050444,2121.93844 495.102,2121.326 C496.679333,2120.40733 498.473333,2119.948 500.484,2119.948 C502.529333,2119.948 504.210667,2120.338 505.528,2121.118 C506.845333,2121.898 507.833333,2123.07667 508.492,2124.654 C509.150667,2126.23133 509.48,2128.23333 509.48,2130.66 L509.48,2130.66 L509.48,2142.464 L509.474827,2142.73435 C509.42999,2143.88631 509.093714,2144.78419 508.466,2145.428 C507.79,2146.12133 506.810667,2146.468 505.528,2146.468 C504.28,2146.468 503.318,2146.12133 502.642,2145.428 C501.966,2144.73467 501.628,2143.74667 501.628,2142.464 L501.628,2142.464 L501.628,2131.024 L501.624242,2130.69829 C501.586664,2129.09868 501.26725,2127.93325 500.666,2127.202 C500.024667,2126.422 499.045333,2126.032 497.728,2126.032 C496.064,2126.032 494.738,2126.552 493.75,2127.592 C492.762,2128.632 492.268,2130.01867 492.268,2131.752 L492.268,2131.752 L492.268,2142.464 L492.264191,2142.71034 C492.18548,2145.21545 490.88675,2146.468 488.368,2146.468 C487.085333,2146.468 486.106,2146.12133 485.43,2145.428 C484.754,2144.73467 484.416,2143.74667 484.416,2142.464 L484.416,2142.464 L484.416,2112.876 L484.421173,2112.59862 C484.46601,2111.41792 484.802286,2110.51371 485.43,2109.886 C486.106,2109.21 487.085333,2108.872 488.368,2108.872 Z M433.768,2108.768 C436.506667,2108.768 438.812,2109.17533 440.684,2109.99 C442.556,2110.80467 443.977333,2111.992 444.948,2113.552 C445.918667,2115.112 446.404,2117.01867 446.404,2119.272 C446.404,2120.728 446.178667,2122.14933 445.728,2123.536 C445.277333,2124.92267 444.575333,2126.318 443.622,2127.722 L443.622,2127.722 L443.354479,2128.10727 C442.437675,2129.39939 441.270182,2130.7703 439.852,2132.22 L439.852,2132.22 L432.796,2139.396 L444.844,2139.396 L445.095231,2139.40092 C446.081077,2139.44031 446.838,2139.716 447.366,2140.228 C447.938,2140.78267 448.224,2141.59733 448.224,2142.672 C448.224,2143.74667 447.938,2144.57 447.366,2145.142 C446.794,2145.714 445.953333,2146 444.844,2146 L444.844,2146 L426.176,2146 L425.906316,2145.99536 C424.760105,2145.95512 423.905333,2145.65333 423.342,2145.09 C422.735333,2144.48333 422.432,2143.59067 422.432,2142.412 C422.432,2141.64933 422.622667,2140.93867 423.004,2140.28 C423.385333,2139.62133 423.905333,2138.94533 424.564,2138.252 L424.564,2138.252 L434.34,2127.956 L434.645765,2127.62437 C435.943731,2126.19879 436.890476,2124.92267 437.486,2123.796 C438.127333,2122.58267 438.448,2121.36933 438.448,2120.156 C438.448,2118.63067 437.954,2117.46933 436.966,2116.672 C435.978,2115.87467 434.548,2115.476 432.676,2115.476 C431.670667,2115.476 430.639333,2115.62333 429.582,2115.918 C428.524667,2116.21267 427.424,2116.68933 426.28,2117.348 C425.517333,2117.764 424.815333,2117.91133 424.174,2117.79 C423.532667,2117.66867 422.986667,2117.374 422.536,2116.906 C422.085333,2116.438 421.790667,2115.87467 421.652,2115.216 C421.513333,2114.55733 421.582667,2113.89867 421.86,2113.24 C422.137333,2112.58133 422.657333,2112.02667 423.42,2111.576 C424.945333,2110.64 426.609333,2109.938 428.412,2109.47 C430.214667,2109.002 432,2108.768 433.768,2108.768 Z M467.516,2121.02 L459.293,2133.104 L467.516,2133.104 L467.516,2121.02 Z M383,1941.1 C429.036746,1941.1 466.483349,1977.73905 467.86074,2023.39405 L481.001677,2010.8984 C482.162356,2009.79476 483.997952,2009.841 485.101596,2011.00168 C486.161093,2012.11593 486.160862,2013.85218 485.132253,2014.96574 L484.998323,2015.1016 L467.66317,2031.58729 C467.350071,2032.91245 466.142409,2033.85326 464.765892,2033.81597 C463.872684,2034.03563 462.896699,2033.82496 462.165702,2033.18749 L462.023128,2033.05457 L443.953361,2015.05457 C442.818652,2013.92424 442.8151,2012.08807 443.945428,2010.95336 C445.030542,2009.86404 446.766166,2009.81719 447.907197,2010.81523 L448.046639,2010.94543 L462.091,2024.937 L462.089408,2024.69278 C461.391258,1981.63754 426.267424,1946.9 383,1946.9 C339.342851,1946.9 303.9,1982.29553 303.9,2026 C303.9,2069.65715 339.295531,2105.1 383,2105.1 C384.601626,2105.1 385.9,2106.39837 385.9,2108 C385.9,2109.60163 384.601626,2110.9 383,2110.9 C336.090544,2110.9 298.1,2072.85867 298.1,2026 C298.1,1979.09054 336.141333,1941.1 383,1941.1 Z M382.5,2057.2 C383.989123,2057.2 385.206739,2058.36246 385.29489,2059.82943 L385.3,2060 L385.3,2086 C385.3,2087.5464 384.046397,2088.8 382.5,2088.8 C381.010877,2088.8 379.793261,2087.63754 379.70511,2086.17057 L379.7,2086 L379.7,2060 C379.7,2058.4536 380.953603,2057.2 382.5,2057.2 Z M538,2065.7 C539.546397,2065.7 540.8,2066.9536 540.8,2068.5 C540.8,2069.98912 539.637537,2071.20674 538.170568,2071.29489 L538,2071.3 L474,2071.3 C472.453603,2071.3 471.2,2070.0464 471.2,2068.5 C471.2,2067.01088 472.362463,2065.79326 473.829432,2065.70511 L474,2065.7 L538,2065.7 Z M356.160225,2047.88911 C357.260128,2046.92853 358.931992,2046.97219 359.979899,2048.0201 C361.073367,2049.11357 361.073367,2050.88643 359.979899,2051.9799 L359.979899,2051.9799 L341.979899,2069.9799 L341.839775,2070.11089 C340.739872,2071.07147 339.068008,2071.02781 338.020101,2069.9799 C336.926633,2068.88643 336.926633,2067.11357 338.020101,2066.0201 L338.020101,2066.0201 L356.020101,2048.0201 Z M407.839775,2047.88911 L407.979899,2048.0201 L425.979899,2066.0201 C427.073367,2067.11357 427.073367,2068.88643 425.979899,2069.9799 C424.931992,2071.02781 423.260128,2071.07147 422.160225,2070.11089 L422.020101,2069.9799 L404.020101,2051.9799 C402.926633,2050.88643 402.926633,2049.11357 404.020101,2048.0201 C405.068008,2046.97219 406.739872,2046.92853 407.839775,2047.88911 Z M253.476636,2001.25728 C247.757009,2001.25728 243.149533,2005.83252 243.149533,2011.51214 L243.149533,2041.8034 C243.149533,2047.48301 247.757009,2052.05825 253.476636,2052.05825 L262.850467,2052.05825 L262.850467,2001.41505 L253.476636,2001.41505 L253.476636,2001.25728 Z M382,2004 C394.150264,2004 404,2013.84974 404,2026 C404,2038.15026 394.150264,2048 382,2048 C369.849736,2048 360,2038.15026 360,2026 C360,2013.84974 369.849736,2004 382,2004 Z M560,2037.7 C561.546397,2037.7 562.8,2038.9536 562.8,2040.5 C562.8,2041.98912 561.637537,2043.20674 560.170568,2043.29489 L560,2043.3 L496,2043.3 C494.453603,2043.3 493.2,2042.0464 493.2,2040.5 C493.2,2039.01088 494.362463,2037.79326 495.829432,2037.70511 L496,2037.7 L560,2037.7 Z M347.950164,2023.47793 C349.496316,2023.4504 350.772033,2024.68149 350.799556,2026.22765 C350.826061,2027.71653 349.685454,2028.95465 348.220286,2029.06889 L348.049836,2029.07704 L323.049836,2029.52207 C321.503684,2029.5496 320.227967,2028.31851 320.200444,2026.77235 C320.173939,2025.28347 321.314546,2024.04535 322.779714,2023.93111 L322.950164,2023.92296 L347.950164,2023.47793 Z M439.950164,2023.47793 C441.496316,2023.4504 442.772033,2024.68149 442.799556,2026.22765 C442.826061,2027.71653 441.685454,2028.95465 440.220286,2029.06889 L440.049836,2029.07704 L415.049836,2029.52207 C413.503684,2029.5496 412.227967,2028.31851 412.200444,2026.77235 C412.173939,2025.28347 413.314546,2024.04535 414.779714,2023.93111 L414.950164,2023.92296 L439.950164,2023.47793 Z M581,2009.7 C582.546397,2009.7 583.8,2010.9536 583.8,2012.5 C583.8,2013.98912 582.637537,2015.20674 581.170568,2015.29489 L581,2015.3 L517,2015.3 C515.453603,2015.3 514.2,2014.0464 514.2,2012.5 C514.2,2011.01088 515.362463,2009.79326 516.829432,2009.70511 L517,2009.7 L581,2009.7 Z M342.839775,1981.88911 L342.979899,1982.0201 L360.979899,2000.0201 C362.073367,2001.11357 362.073367,2002.88643 360.979899,2003.9799 C359.931992,2005.02781 358.260128,2005.07147 357.160225,2004.11089 L357.020101,2003.9799 L339.020101,1985.9799 C337.926633,1984.88643 337.926633,1983.11357 339.020101,1982.0201 C340.068008,1980.97219 341.739872,1980.92853 342.839775,1981.88911 Z M422.160225,1981.88911 C423.260128,1980.92853 424.931992,1980.97219 425.979899,1982.0201 C427.073367,1983.11357 427.073367,1984.88643 425.979899,1985.9799 L425.979899,1985.9799 L407.979899,2003.9799 L407.839775,2004.11089 C406.739872,2005.07147 405.068008,2005.02781 404.020101,2003.9799 C402.926633,2002.88643 402.926633,2001.11357 404.020101,2000.0201 L404.020101,2000.0201 L422.020101,1982.0201 Z M382.5,1964.2 C383.989123,1964.2 385.206739,1965.36246 385.29489,1966.82943 L385.3,1967 L385.3,1993 C385.3,1994.5464 384.046397,1995.8 382.5,1995.8 C381.010877,1995.8 379.793261,1994.63754 379.70511,1993.17057 L379.7,1993 L379.7,1967 C379.7,1965.4536 380.953603,1964.2 382.5,1964.2 Z M274.447179,1969.2005 C275.993301,1969.17133 277.27033,1970.40106 277.299502,1971.94718 C277.327593,1973.43604 276.188307,1974.67537 274.723262,1974.79117 L274.552821,1974.7995 L248.052821,1975.2995 C246.506699,1975.32867 245.22967,1974.09894 245.200498,1972.55282 C245.172407,1971.06396 246.311693,1969.82463 247.776738,1969.70883 L247.947179,1969.7005 L274.447179,1969.2005 Z" id="形状结合"></path>
        </g>
    </g>
</svg>