<?xml version="1.0" encoding="UTF-8"?>
<svg width="301px" height="270px" viewBox="0 0 301 270" version="1.1" xmlns="http://www.w3.org/2000/svg" xmlns:xlink="http://www.w3.org/1999/xlink">
    <title>形状结合</title>
    <g id="页面-1" stroke="none" stroke-width="1" fill="none" fill-rule="evenodd">
        <g id="01-Home-Buy-&amp;-Regulation" transform="translate(-253.000000, -1946.000000)" fill="#FFFFFF" fill-rule="nonzero">
            <path d="M378.551137,1946 L379.234,1946.01 L379.767232,1946.01445 C422.606771,1946.65603 460.367397,1968.61767 482.369962,2002.26099 C483.205074,2002.49163 483.902415,2003.12759 484.195827,2004.01929 C484.337008,2004.44835 484.365186,2004.88925 484.296923,2005.30844 C493.565593,2020.41925 499.716947,2037.73904 501.842602,2056.44438 C514.588602,2061.36137 530.345211,2062.38382 549.543739,2059.60771 C550.304453,2059.52317 551.107427,2059.73451 551.699093,2060.24173 C552.290759,2060.74895 552.628853,2061.50978 552.628853,2062.2706 C552.628853,2076.17684 552.840163,2087.58925 553.00921,2097.69134 C554.023494,2154.24618 553.600876,2155.17608 509.648567,2194.18962 C502.928935,2200.14943 495.152758,2207.08141 486.150987,2215.28144 C485.643845,2215.74639 485.009917,2216 484.333728,2216 C483.6998,2216 483.023611,2215.74639 482.516469,2215.28144 C472.796247,2206.44739 464.597451,2199.30407 457.370677,2193.00611 C450.919641,2187.37196 445.449297,2182.5801 440.812718,2178.27326 C422.178832,2189.17577 400.980535,2195.04225 379.315946,2195.29784 C379.061059,2195.3036 378.806189,2195.30657 378.551137,2195.30657 L378.510164,2195.30657 L378.48,2195.305 L378.404902,2195.30528 C378.215504,2195.30614 378.026074,2195.30657 377.836611,2195.30657 C308.980165,2195.30657 253,2139.36646 253,2070.65328 C253,2001.94011 309.022382,1946 377.836611,1946 L378.551137,1946 Z M484.122419,2052.50665 C471.162674,2060.83917 457.153473,2065.50794 442.257461,2066.48585 C441.408151,2066.54523 440.555412,2066.59239 439.699768,2066.62755 C439.612661,2066.63903 439.524312,2066.64596 439.434717,2066.64853 C438.431565,2066.68468 437.423462,2066.70347 436.410195,2066.7049 C431.480167,2066.72919 426.456628,2066.3629 421.342348,2065.6032 L421.342154,2065.51034 C421.342154,2075.24821 421.258002,2083.8479 421.173851,2091.52017 C421.069782,2102.75107 420.981472,2112.00834 421.150216,2119.8164 C421.304185,2120.22245 421.365219,2120.6733 421.312893,2121.13643 C421.291852,2121.32266 421.252481,2121.50161 421.196818,2121.67187 C421.566343,2134.9322 422.783054,2143.88465 426.138787,2151.33857 C426.222001,2151.54104 426.281704,2151.75025 426.317897,2151.96143 C431.5633,2163.24898 441.670201,2172.08199 460.920671,2188.90609 C467.724827,2194.82364 475.374219,2201.50201 484.333728,2209.6175 C492.574786,2202.13603 499.80156,2195.71127 506.056311,2190.13187 C548.571717,2152.38638 548.571717,2152.38638 547.599695,2097.73361 C547.430648,2088.39234 547.2616,2077.86757 547.219339,2065.31391 C528.375752,2067.7029 512.495219,2066.32577 499.462877,2061.2256 C499.097235,2061.23869 498.725254,2061.17813 498.367056,2061.04187 C493.083773,2058.90654 488.216952,2056.10585 483.849322,2052.6811 L484.122419,2052.50665 Z M380.971594,2120.94195 L380.971352,2189.84639 C395.786417,2188.54333 410.017983,2175.3295 420.452347,2153.0397 C417.038968,2145.20171 415.739805,2136.19693 415.311489,2123.11531 C403.901611,2121.74441 392.448803,2121.02111 380.971594,2120.94195 Z M376.049589,2120.94748 C359.857122,2121.09543 343.621441,2122.52371 327.394842,2125.22891 L326.836569,2125.32261 C336.159036,2162.24436 354.616127,2187.97728 376.049005,2189.84408 L376.049589,2120.94748 Z M321.688169,2126.23365 L320.273329,2126.49828 C306.399705,2129.13122 292.53832,2132.69768 278.721882,2137.19551 C296.567514,2163.62137 324.725605,2182.55995 357.395247,2188.20616 C341.812776,2177.37977 329.007566,2154.94543 321.688169,2126.23365 Z M423.544994,2158.93471 C416.959525,2171.85678 409.026313,2181.66194 400.356835,2187.81719 C413.089959,2185.37956 425.374843,2180.88462 436.729771,2174.48184 C430.938758,2168.87657 426.675342,2164.00196 423.544994,2158.93471 Z M483.839729,2098.73723 C493.900211,2098.73723 502.050475,2106.79408 502.050475,2116.69729 L502.05,2121.401 L509.189903,2121.40146 C510.669513,2121.40146 511.895475,2122.58081 511.895475,2124.09711 L511.895475,2155.85525 C511.853201,2160.23568 508.259863,2163.77372 503.821033,2163.77372 L464.421139,2163.77372 C460.193682,2163.77372 456.769443,2160.36204 456.769443,2156.15008 L456.769443,2124.09711 C456.769443,2122.62293 457.95313,2121.40146 459.475015,2121.40146 L465.628,2121.401 L465.628984,2116.69729 C465.628984,2106.79408 473.779247,2098.73723 483.839729,2098.73723 Z M315.029015,2073.11736 L258.386703,2073.11706 C258.828884,2094.79884 265.093705,2115.08225 275.681669,2132.46543 L274.515212,2132.85155 C289.762609,2127.75574 305.07832,2123.77852 320.414849,2120.92399 C317.104183,2106.24704 315.197609,2090.09142 315.029015,2073.11736 Z M483.882179,2104.0665 C476.793147,2104.0665 471.062493,2109.73147 471.062493,2116.69729 L471.062,2121.401 L496.659,2121.401 L496.659415,2116.69729 C496.659415,2109.73147 490.928761,2104.0665 483.882179,2104.0665 Z M376.049,2073.116 L320.372628,2073.11706 C320.53834,2089.80394 322.383453,2105.66254 325.575346,2120.00818 C342.403044,2117.15108 359.248196,2115.64766 376.049311,2115.50095 L376.049,2073.116 Z M380.971,2073.116 L380.971083,2115.49679 C392.405119,2115.5774 403.815898,2116.2873 415.183634,2117.62821 C415.148385,2115.32903 415.131578,2112.91292 415.127947,2110.36766 L415.127421,2108.65156 C415.131351,2103.44502 415.183305,2097.71098 415.241156,2091.35155 C415.296715,2085.77604 415.352274,2079.72597 415.383777,2073.11727 L380.971,2073.116 Z M516.536496,2080.0146 C517.897052,2080.0146 519,2081.11755 519,2082.4781 C519,2083.83866 517.897052,2084.94161 516.536496,2084.94161 L450.463504,2084.94161 C449.102948,2084.94161 448,2083.83866 448,2082.4781 C448,2081.11755 449.102948,2080.0146 450.463504,2080.0146 L516.536496,2080.0146 Z M276.187959,2008.00197 L275.31984,2009.42039 C264.950908,2026.67013 258.823633,2046.74184 258.386683,2068.18896 L315.029017,2068.18901 C315.201197,2050.85523 317.185803,2034.37494 320.626085,2019.45064 C305.79011,2016.69789 290.970103,2012.88179 276.187959,2008.00197 Z M325.782331,2020.36807 L325.670581,2020.85439 C322.420102,2035.31358 320.539907,2051.32613 320.372618,2068.18896 L376.049,2068.189 L376.049666,2024.82143 C359.292774,2024.68305 342.527517,2023.20019 325.782331,2020.36807 Z M431.32337,2020.38397 L429.922109,2020.61946 C413.633524,2023.30182 397.307981,2024.70165 380.971838,2024.82342 L380.971,2068.189 L415.402161,2068.18998 C415.407235,2066.28767 415.410025,2064.34117 415.410025,2062.34869 C415.410025,2061.54774 415.747764,2060.78894 416.381023,2060.28308 C416.82436,2059.92893 417.329772,2059.71941 417.868286,2059.66898 C418.086116,2059.62486 418.310413,2059.6068 418.539242,2059.61664 C418.72719,2059.60926 418.91843,2059.6201 419.11214,2059.65075 C423.424655,2060.45316 427.692068,2060.96184 431.848338,2061.17681 C433.418012,2061.25266 434.979122,2061.28794 436.530556,2061.28213 L436.531492,2061.2948 C435.987158,2046.74847 434.174092,2032.96249 431.32337,2020.38397 Z M479.863209,2008.3231 L479.422467,2008.469 C465.169618,2013.12953 450.867352,2016.79214 436.533664,2019.45985 C439.478321,2032.30078 441.347463,2046.32054 441.911155,2061.09342 C443.481382,2060.99043 445.044254,2060.84249 446.596549,2060.65103 C459.301535,2059.03545 471.295471,2054.50059 482.493344,2047.0463 C482.838132,2046.80681 483.230826,2046.66298 483.633624,2046.61105 C484.47876,2046.37387 485.393947,2046.56206 486.066463,2047.13859 C489.154105,2049.75638 492.506252,2052.00344 496.135419,2053.88249 L496.165,2054.087 L496.032014,2053.14782 C493.638407,2036.82821 488.020763,2021.68004 479.863209,2008.3231 Z M380.971754,1951.45555 L380.971605,2019.38451 C397.348319,2019.26023 413.714111,2017.82815 430.043399,2015.08827 C420.632521,1978.46204 402.204457,1953.24473 380.971754,1951.45555 Z M376.049005,1951.46241 C354.953348,1953.29843 336.740575,1978.23835 327.283364,2014.23089 L327.066265,2015.07145 C343.38534,2017.80815 359.721453,2019.24516 376.049257,2019.38249 L376.049005,1951.46241 Z M400.211775,1953.42207 L400.682971,1953.76044 C415.678317,1964.67199 428.040159,1986.36378 435.242852,2014.16925 C449.139316,2011.60217 463.007378,2008.08484 476.831219,2003.61943 C459.312564,1977.75681 431.943346,1959.36872 400.211775,1953.42207 Z M357.398126,1953.10039 L356.59159,1953.24078 C324.586702,1958.99469 296.977325,1977.51057 279.251747,2003.30817 C293.44972,2007.91963 307.679098,2011.5381 321.923492,2014.16587 C329.279485,1985.88593 341.978951,1963.81022 357.398126,1953.10039 Z" id="形状结合"></path>
        </g>
    </g>
</svg>