<?xml version="1.0" encoding="UTF-8"?>
<svg width="171px" height="25px" viewBox="0 0 171 25" version="1.1" xmlns="http://www.w3.org/2000/svg" xmlns:xlink="http://www.w3.org/1999/xlink">
    <title>编组 3</title>
    <g id="页面-1" stroke="none" stroke-width="1" fill="none" fill-rule="evenodd">
        <g id="01-Home-Buy-&amp;-Regulation" transform="translate(-35.000000, -13.000000)">
            <g id="编组-5" transform="translate(35.000000, 13.000000)">
                <path d="M33.5836223,7.12435233 C34.4003532,7.12435233 35.1720947,7.24226786 35.8988469,7.47809892 C36.625599,7.71392999 37.2762151,8.05727227 37.8506954,8.50812577 C38.4251756,8.95897927 38.8992949,9.51734399 39.2730531,10.1832199 C39.6468113,10.8490959 39.8821406,11.6120787 39.9790409,12.4721685 L39.9790409,12.4721685 L36.8228603,12.4721685 C36.7674887,12.0976133 36.6429026,11.754271 36.449102,11.4421416 C36.2553015,11.1300123 36.0130508,10.8560321 35.7223499,10.620201 C35.4316491,10.3843699 35.1028803,10.2005604 34.7360435,10.0687725 C34.3692067,9.93698455 33.9850663,9.87109058 33.5836223,9.87109058 C32.8499487,9.87109058 32.2270183,10.0132828 31.7148311,10.2976674 C31.2026439,10.5820519 30.787357,10.9635433 30.4689704,11.4421416 C30.1505837,11.92074 29.9187152,12.4652323 29.7733648,13.0756185 C29.6280143,13.6860048 29.5553391,14.3171997 29.5553391,14.9692032 C29.5553391,15.5934619 29.6280143,16.2003801 29.7733648,16.7899578 C29.9187152,17.3795354 30.1505837,17.9101553 30.4689704,18.3818174 C30.787357,18.8534795 31.2026439,19.2315029 31.7148311,19.5158874 C32.2270183,19.8002719 32.8499487,19.9424642 33.5836223,19.9424642 C34.5803109,19.9424642 35.3589739,19.637271 35.9196112,19.0268847 C36.4802485,18.4164985 36.8228603,17.6118984 36.9474463,16.6130845 L36.9474463,16.6130845 L40.1036269,16.6130845 C40.0205696,17.5425363 39.8060046,18.3818174 39.4599322,19.1309279 C39.1138598,19.8800383 38.6570442,20.5181694 38.0894854,21.0453212 C37.5219266,21.572473 36.8574675,21.974773 36.0961081,22.2522213 C35.3347488,22.5296696 34.4972535,22.6683938 33.5836223,22.6683938 C32.4485047,22.6683938 31.427591,22.4707119 30.5208812,22.075348 C29.6141714,21.6799842 28.8493514,21.1354919 28.226421,20.4418711 C27.6034906,19.7482503 27.1259106,18.9332459 26.7936811,17.9968579 C26.4614516,17.0604699 26.2953368,16.0512516 26.2953368,14.9692032 C26.2953368,13.85941 26.4614516,12.8293832 26.7936811,11.8791227 C27.1259106,10.9288623 27.6034906,10.0999854 28.226421,9.39249225 C28.8493514,8.68499906 29.6141714,8.13010245 30.5208812,7.7278024 C31.427591,7.32550235 32.4485047,7.12435233 33.5836223,7.12435233 Z M49.0284974,7.12435233 C50.169993,7.12435233 51.1877119,7.32550235 52.0816542,7.7278024 C52.9755965,8.13010245 53.7320092,8.68499906 54.3508923,9.39249225 C54.9697755,10.0999854 55.4442525,10.9288623 55.7743235,11.8791227 C56.1043945,12.8293832 56.2694301,13.85941 56.2694301,14.9692032 C56.2694301,16.0512516 56.1043945,17.0604699 55.7743235,17.9968579 C55.4442525,18.9332459 54.9697755,19.7482503 54.3508923,20.4418711 C53.7320092,21.1354919 52.9755965,21.6799842 52.0816542,22.075348 C51.1877119,22.4707119 50.169993,22.6683938 49.0284974,22.6683938 C47.9007548,22.6683938 46.8864741,22.4707119 45.9856553,22.075348 C45.0848366,21.6799842 44.3249856,21.1354919 43.7061025,20.4418711 C43.0872193,19.7482503 42.6127423,18.9332459 42.2826713,17.9968579 C41.9526003,17.0604699 41.7875648,16.0512516 41.7875648,14.9692032 C41.7875648,13.85941 41.9526003,12.8293832 42.2826713,11.8791227 C42.6127423,10.9288623 43.0872193,10.0999854 43.7061025,9.39249225 C44.3249856,8.68499906 45.0848366,8.13010245 45.9856553,7.7278024 C46.8864741,7.32550235 47.9007548,7.12435233 49.0284974,7.12435233 Z M61.9948187,7.46226628 L61.9948187,22.3304798 L58.626943,22.3304798 L58.626943,7.46226628 L61.9948187,7.46226628 Z M67.9128967,7.46226628 L74.0711383,17.4368801 L74.1124687,17.4368801 L74.1124687,7.46226628 L77.1502591,7.46226628 L77.1502591,22.3304798 L73.9058163,22.3304798 L67.76824,12.3766898 L67.7269095,12.3766898 L67.7269095,22.3304798 L64.6891192,22.3304798 L64.6891192,7.46226628 L67.9128967,7.46226628 Z M87.1829241,7.46226628 C87.891417,7.46226628 88.5373958,7.52473776 89.1208606,7.64968073 C89.7043253,7.7746237 90.2044379,7.97939135 90.6211985,8.26398367 C91.037959,8.548576 91.3609484,8.92687555 91.5901667,9.39888233 C91.819385,9.87088911 91.9339941,10.4539563 91.9339941,11.1480839 C91.9339941,11.8977418 91.7638169,12.5224566 91.4234625,13.0222285 C91.0831081,13.5220004 90.5795224,13.9315357 89.9127056,14.2508344 C90.8295787,14.5146029 91.5137606,14.9761977 91.9652512,15.635619 C92.4167418,16.2950402 92.642487,17.0898163 92.642487,18.0199473 C92.642487,18.7696052 92.4966209,19.4186145 92.2048885,19.9669753 C91.9131561,20.5153361 91.5207066,20.9630484 91.02754,21.3101122 C90.5343734,21.657176 89.9717466,21.9140033 89.3396598,22.0805939 C88.707573,22.2471845 88.0581212,22.3304798 87.3913043,22.3304798 L87.3913043,22.3304798 L80.1813472,22.3304798 L80.1813472,7.46226628 Z M96.6189437,7.46226628 L100.072493,13.3345859 L103.505363,7.46226628 L107.124352,7.46226628 L101.644169,16.6247508 L101.644169,22.3304798 L98.3974184,22.3304798 L98.3974184,16.5414555 L92.9792746,7.46226628 L96.6189437,7.46226628 Z M119.585492,7.46226628 L119.585492,10.2110116 L115.150259,10.2110116 L115.150259,22.3304798 L111.896373,22.3304798 L111.896373,10.2110116 L107.46114,10.2110116 L107.46114,7.46226628 L119.585492,7.46226628 Z M132.219376,7.46226628 L132.219376,10.2110116 L124.488796,10.2110116 L124.488796,13.3970574 L131.583705,13.3970574 L131.583705,15.9375645 L124.488796,15.9375645 L124.488796,19.5817345 L132.38342,19.5817345 L132.38342,22.3304798 L121.26943,22.3304798 L121.26943,7.46226628 L132.219376,7.46226628 Z M138.806914,7.4441386 L139.121784,7.44490897 C140.76598,7.45312621 141.848415,7.52708143 142.36909,7.66677461 C143.219155,7.88941062 143.930915,8.37347528 144.504372,9.11896859 C145.077828,9.8644619 145.364556,10.8275313 145.364556,12.0081768 C145.364556,12.9189605 145.199266,13.6846934 144.868685,14.3053756 C144.538104,14.9260579 144.118132,15.4134958 143.608768,15.7676894 C143.099404,16.1218831 142.581606,16.3563256 142.055376,16.4710168 C141.340242,16.6126943 140.304647,16.683533 138.948591,16.683533 L138.948591,16.683533 L136.995466,16.683533 L136.995466,22.2797927 L134,22.2797927 L134,7.4441386 L138.806914,7.4441386 Z M152.094236,7.38341969 C153.558236,7.38341969 154.708522,7.77809262 155.545094,8.56743847 C156.381666,9.35678433 156.799951,10.3384067 156.799951,11.5123057 C156.799951,12.1802137 156.6802,12.8160757 156.440698,13.4198915 C156.201195,14.0237074 155.821702,14.656196 155.302218,15.3173575 C154.958144,15.755883 154.337462,16.386685 153.440172,17.2097636 C152.542881,18.0328422 151.974485,18.5793124 151.734982,18.8491742 C151.49548,19.1190361 151.301517,19.3821513 151.153093,19.6385201 L151.153093,19.6385201 L156.799951,19.6385201 L156.799951,22.2797927 L146.83193,22.2797927 L146.875908,21.9488997 C147.014503,21.0716821 147.323678,20.2357768 147.803433,19.4411836 C148.343156,18.5472663 149.409111,17.3615609 151.001295,15.8840674 C152.283139,14.6899288 153.069112,13.8803433 153.359213,13.4553109 C153.750513,12.8683614 153.946163,12.2881585 153.946163,11.7147021 C153.946163,11.0805268 153.775812,10.5930888 153.435112,10.2523883 C153.094411,9.91168772 152.62384,9.74133744 152.023397,9.74133744 C151.429701,9.74133744 150.957443,9.9201209 150.606622,10.2776878 C150.255802,10.6352547 150.053406,11.2289508 149.999433,12.0587759 L149.999433,12.0587759 L147.165884,11.775421 L147.201738,11.4871247 C147.402158,10.071536 147.919811,9.04433493 148.754696,8.40552137 C149.64524,7.72412025 150.75842,7.38341969 152.094236,7.38341969 Z M164.15706,7.4441386 L164.47193,7.44490897 C166.116126,7.45312621 167.198561,7.52708143 167.719236,7.66677461 C168.569301,7.88941062 169.281061,8.37347528 169.854517,9.11896859 C170.427974,9.8644619 170.714702,10.8275313 170.714702,12.0081768 C170.714702,12.9189605 170.549412,13.6846934 170.218831,14.3053756 C169.88825,14.9260579 169.468278,15.4134958 168.958914,15.7676894 C168.449549,16.1218831 167.931752,16.3563256 167.405521,16.4710168 C166.690388,16.6126943 165.654793,16.683533 164.298737,16.683533 L164.298737,16.683533 L162.345612,16.683533 L162.345612,22.2797927 L159.350146,22.2797927 L159.350146,7.4441386 L164.15706,7.4441386 Z M49.1968912,9.82766389 C48.4608194,9.82766389 47.8358528,9.9707886 47.3219913,10.257038 C46.8081299,10.5432874 46.3914855,10.9272805 46.0720581,11.4090174 C45.7526307,11.8907542 45.5200043,12.4388171 45.3741787,13.0532061 C45.2283532,13.6675951 45.1554404,14.3029291 45.1554404,14.9592083 C45.1554404,15.5875607 45.2283532,16.1984588 45.3741787,16.7919027 C45.5200043,17.3853466 45.7526307,17.9194462 46.0720581,18.3942013 C46.3914855,18.8689564 46.8081299,19.2494587 47.3219913,19.5357081 C47.8358528,19.8219575 48.4608194,19.9650822 49.1968912,19.9650822 C49.932963,19.9650822 50.5579296,19.8219575 51.071791,19.5357081 C51.5856525,19.2494587 52.0022969,18.8689564 52.3217243,18.3942013 C52.6411516,17.9194462 52.8737781,17.3853466 53.0196037,16.7919027 C53.1654292,16.1984588 53.238342,15.5875607 53.238342,14.9592083 C53.238342,14.3029291 53.1654292,13.6675951 53.0196037,13.0532061 C52.8737781,12.4388171 52.6411516,11.8907542 52.3217243,11.4090174 C52.0022969,10.9272805 51.5856525,10.5432874 51.071791,10.257038 C50.5579296,9.9707886 49.932963,9.82766389 49.1968912,9.82766389 Z M86.8625483,15.5722009 L83.2124352,15.5722009 L83.2124352,19.6271683 L86.7985113,19.6271683 C87.1258119,19.6271683 87.438882,19.5961354 87.7377217,19.5340695 C88.0365613,19.4720037 88.2998249,19.3685607 88.5275122,19.2237404 C88.7551996,19.0789201 88.936638,18.8823784 89.0718273,18.6341151 C89.2070167,18.3858518 89.2746114,18.0686264 89.2746114,17.682439 C89.2746114,16.9238567 89.0540393,16.3825048 88.612895,16.0583833 C88.1717507,15.7342617 87.5883018,15.5722009 86.8625483,15.5722009 L86.8625483,15.5722009 Z M138.4426,9.95385363 L136.995466,9.95385363 L136.995466,14.1636982 L138.634877,14.1636982 C139.815522,14.1636982 140.604868,14.0861129 141.002915,13.9309424 C141.400961,13.7757718 141.712988,13.5328962 141.938998,13.2023154 C142.165007,12.8717347 142.278012,12.4871816 142.278012,12.0486561 C142.278012,11.5089324 142.119468,11.0636604 141.80238,10.71284 C141.485293,10.3620196 141.083873,10.1427569 140.598122,10.0550518 C140.240555,9.98758636 139.522048,9.95385363 138.4426,9.95385363 L138.4426,9.95385363 Z M163.792746,9.95385363 L162.345612,9.95385363 L162.345612,14.1636982 L163.985023,14.1636982 C165.165668,14.1636982 165.955014,14.0861129 166.35306,13.9309424 C166.751106,13.7757718 167.063134,13.5328962 167.289143,13.2023154 C167.515153,12.8717347 167.628157,12.4871816 167.628157,12.0486561 C167.628157,11.5089324 167.469614,11.0636604 167.152526,10.71284 C166.835438,10.3620196 166.434019,10.1427569 165.948267,10.0550518 C165.590701,9.98758636 164.872193,9.95385363 163.792746,9.95385363 L163.792746,9.95385363 Z M86.3188052,10.1655778 L83.2124352,10.1655778 L83.2124352,13.5447173 L86.5723865,13.5447173 C87.164076,13.5447173 87.6501067,13.4098215 88.0304785,13.1400299 C88.4108504,12.8702383 88.6010363,12.431827 88.6010363,11.824796 C88.6010363,11.4875565 88.537641,11.2110202 88.4108504,10.9951869 C88.2840597,10.7793537 88.1150056,10.6107339 87.9036879,10.4893277 C87.6923702,10.3679215 87.4493549,10.2836116 87.1746419,10.2363981 C86.8999289,10.1891846 86.61465,10.1655778 86.3188052,10.1655778 L86.3188052,10.1655778 Z" id="形状结合" fill="#FFFFFF" fill-rule="nonzero"></path>
                <path d="M15.7836301,6.08108108 L18.9119171,9.42389758 L18.9119171,21.7283073 L15.5703378,25 L3.2704819,25 L-3.12638804e-13,21.8705548 L-3.12638804e-13,12.2688478 L6.25657408,12.2688478 L6.25657408,6.08108108 L15.7836301,6.08108108 Z M12.5131482,12.3399716 L6.25657408,12.3399716 L6.25657408,18.598862 L12.5131482,18.598862 L12.5131482,12.3399716 Z M6.0788305,9.23705556e-14 L6.0788305,6.08108108 L7.54951657e-15,6.08108108 L7.54951657e-15,9.23705556e-14 L6.0788305,9.23705556e-14 Z" id="形状结合备份-3" fill="#01C19A"></path>
            </g>
        </g>
    </g>
</svg>