<?xml version="1.0" encoding="UTF-8"?>
<!DOCTYPE svg PUBLIC "-//W3C//DTD SVG 1.1//EN" "http://www.w3.org/Graphics/SVG/1.1/DTD/svg11.dtd">
<svg xmlns="http://www.w3.org/2000/svg" version="1.1" width="500px" height="500px" style="shape-rendering:geometricPrecision; text-rendering:geometricPrecision; image-rendering:optimizeQuality; fill-rule:evenodd; clip-rule:evenodd" xmlns:xlink="http://www.w3.org/1999/xlink">
<g><path style="opacity:1" fill="#393d93" d="M -0.5,-0.5 C 54.5,-0.5 109.5,-0.5 164.5,-0.5C 89.6904,25.6013 34.6904,73.6013 -0.5,143.5C -0.5,95.5 -0.5,47.5 -0.5,-0.5 Z"/></g>
<g><path style="opacity:1" fill="#3b3f94" d="M 164.5,-0.5 C 221.167,-0.5 277.833,-0.5 334.5,-0.5C 384.45,16.2632 427.117,45.2632 462.5,86.5C 463.325,87.3857 464.325,87.719 465.5,87.5C 466.414,92.2579 469.081,95.7579 473.5,98C 472.72,99.073 472.887,100.24 474,101.5C 475.912,103.657 477.579,105.991 479,108.5C 480.666,107.66 480.833,108.16 479.5,110C 481.167,111.667 482.833,113.333 484.5,115C 484.167,115.333 483.833,115.667 483.5,116C 489.166,124.05 494.499,133.217 499.5,143.5C 499.5,223.833 499.5,304.167 499.5,384.5C 476.102,432.231 442.102,470.565 397.5,499.5C 298.833,499.5 200.167,499.5 101.5,499.5C 56.607,470.306 22.607,431.972 -0.5,384.5C -0.5,304.167 -0.5,223.833 -0.5,143.5C 34.6904,73.6013 89.6904,25.6013 164.5,-0.5 Z"/></g>
<g><path style="opacity:1" fill="#393d93" d="M 334.5,-0.5 C 389.5,-0.5 444.5,-0.5 499.5,-0.5C 499.5,47.5 499.5,95.5 499.5,143.5C 494.499,133.217 489.166,124.05 483.5,116C 483.833,115.667 484.167,115.333 484.5,115C 482.833,113.333 481.167,111.667 479.5,110C 480.833,108.16 480.666,107.66 479,108.5C 477.579,105.991 475.912,103.657 474,101.5C 472.887,100.24 472.72,99.073 473.5,98C 469.081,95.7579 466.414,92.2579 465.5,87.5C 464.325,87.719 463.325,87.3857 462.5,86.5C 427.117,45.2632 384.45,16.2632 334.5,-0.5 Z"/></g>
<g><path style="opacity:1" fill="#3d4195" d="M 242.5,31.5 C 254.572,31.4893 266.406,32.8226 278,35.5C 282.248,35.3966 282.414,34.8966 278.5,34C 279.167,33.8333 279.833,33.6667 280.5,33.5C 284.492,35.8613 288.825,37.3613 293.5,38C 295.441,38.7429 297.274,38.5762 299,37.5C 299.519,38.5156 300.353,39.1822 301.5,39.5C 311.932,41.5664 321.599,44.5664 330.5,48.5C 330.833,47.8333 331.167,47.1667 331.5,46.5C 332.737,49.8729 334.903,50.8729 338,49.5C 338.374,50.4162 338.874,51.2496 339.5,52C 342.284,52.8917 344.95,54.0584 347.5,55.5C 348.803,54.2822 349.803,54.6155 350.5,56.5C 351.812,55.5396 353.146,55.7063 354.5,57C 354.167,57.3333 353.833,57.6667 353.5,58C 354.966,58.6355 356.3,59.4688 357.5,60.5C 358.086,60.2907 358.586,59.9574 359,59.5C 359.576,62.1242 360.91,62.7908 363,61.5C 363.465,62.9308 364.299,64.0975 365.5,65C 370.776,67.7596 375.442,70.5929 379.5,73.5C 381.718,72.8123 383.218,73.8123 384,76.5C 384.667,75.1667 385.333,75.1667 386,76.5C 387.052,80.1258 389.552,81.9591 393.5,82C 393.167,82.3333 392.833,82.6667 392.5,83C 394.09,84.0458 395.59,85.2125 397,86.5C 397.914,85.3463 398.747,85.513 399.5,87C 399.167,87.3333 398.833,87.6667 398.5,88C 400.705,90.5402 403.205,92.7068 406,94.5C 406.333,94.1667 406.667,93.8333 407,93.5C 407.715,96.1626 409.048,98.1626 411,99.5C 415.607,103.8 420.274,108.8 425,114.5C 425.333,113.833 425.667,113.167 426,112.5C 425.937,115.767 427.437,117.934 430.5,119C 429.346,119.914 429.513,120.747 431,121.5C 431.333,121.167 431.667,120.833 432,120.5C 432.143,124.977 434.309,127.811 438.5,129C 438.167,129.333 437.833,129.667 437.5,130C 439.959,130.724 440.959,132.057 440.5,134C 441.416,134.374 442.25,134.874 443,135.5C 443.667,137.5 444.333,139.5 445,141.5C 445.667,140.167 446.333,140.167 447,141.5C 446.638,143.873 447.305,146.207 449,148.5C 449.805,146.099 450.638,146.266 451.5,149C 451.146,150.626 451.146,152.459 451.5,154.5C 455.161,154.426 455.828,155.426 453.5,157.5C 454.277,159.539 455.443,160.205 457,159.5C 455.74,162.155 456.574,163.988 459.5,165C 459.043,165.414 458.709,165.914 458.5,166.5C 459.61,169.923 461.276,172.256 463.5,173.5C 461.978,175.156 462.311,176.323 464.5,177C 464.043,177.414 463.709,177.914 463.5,178.5C 465.377,182.599 467.377,186.599 469.5,190.5C 469.167,191.167 468.833,191.833 468.5,192.5C 470.204,197.345 472.204,202.012 474.5,206.5C 473.353,209.746 474.02,212.579 476.5,215C 475.919,215.893 475.585,216.893 475.5,218C 476.462,222.476 477.295,226.976 478,231.5C 478.889,230.112 479.389,230.278 479.5,232C 478.752,238.81 478.919,245.643 480,252.5C 480.333,252.167 480.667,251.833 481,251.5C 481.303,258.812 481.469,265.979 481.5,273C 481.333,274.167 481.167,275.333 481,276.5C 480.667,276.167 480.333,275.833 480,275.5C 479.61,280.844 479.11,286.178 478.5,291.5C 478.551,293.1 478.884,294.6 479.5,296C 476.963,299.855 476.296,304.022 477.5,308.5C 477.154,309.696 476.654,309.696 476,308.5C 475.349,310.235 475.515,311.902 476.5,313.5C 473.844,315.953 473.177,318.787 474.5,322C 473.572,322.388 472.905,323.055 472.5,324C 471.62,328.202 470.287,332.202 468.5,336C 468.645,336.772 468.978,337.439 469.5,338C 466.79,339.46 466.124,341.46 467.5,344C 466.667,344.833 465.833,345.667 465,346.5C 461.372,357.062 456.872,366.729 451.5,375.5C 451.709,376.086 452.043,376.586 452.5,377C 450.884,377.615 449.551,378.615 448.5,380C 450.929,380.451 451.096,381.285 449,382.5C 447.334,381.66 447.167,382.16 448.5,384C 446.699,384.317 446.366,384.984 447.5,386C 446.638,388.734 445.805,388.901 445,386.5C 443.354,388.055 443.021,389.721 444,391.5C 443.333,392.833 442.667,392.833 442,391.5C 441.215,393.286 440.049,394.786 438.5,396C 438.833,396.333 439.167,396.667 439.5,397C 437.893,398.049 437.227,399.549 437.5,401.5C 434.402,401.413 434.068,401.913 436.5,403C 435.24,404.113 434.073,404.28 433,403.5C 434.101,405.792 433.268,407.292 430.5,408C 431.258,409.364 430.758,410.531 429,411.5C 428.333,410.167 427.667,410.167 427,411.5C 427.595,414.611 426.095,416.444 422.5,417C 416.527,424.306 409.86,430.973 402.5,437C 403.258,438.364 402.758,439.531 401,440.5C 400,440.5 399,440.5 398,440.5C 398.178,442.44 397.178,444.107 395,445.5C 394.667,445.167 394.333,444.833 394,444.5C 388.222,449.214 381.722,453.714 374.5,458C 375.654,458.914 375.487,459.747 374,460.5C 371.443,459.354 370.11,460.354 370,463.5C 368.84,461.203 367.84,461.536 367,464.5C 364.91,463.209 363.576,463.876 363,466.5C 361.927,465.72 360.76,465.887 359.5,467C 358.167,467.667 358.167,468.333 359.5,469C 358.146,470.294 356.812,470.46 355.5,469.5C 354.655,471.762 353.322,472.429 351.5,471.5C 350.5,472 349.5,472.5 348.5,473C 349.696,473.654 349.696,474.154 348.5,474.5C 346.191,473.067 344.691,473.734 344,476.5C 341.416,475.139 339.416,475.805 338,478.5C 335.758,477.825 333.591,478.325 331.5,480C 332.696,480.654 332.696,481.154 331.5,481.5C 330.707,481.069 329.873,480.735 329,480.5C 325.115,481.947 321.282,483.447 317.5,485C 318.696,485.654 318.696,486.154 317.5,486.5C 314.445,485.291 311.778,485.957 309.5,488.5C 308.833,488.167 308.167,487.833 307.5,487.5C 307.167,488.167 306.833,488.833 306.5,489.5C 303.543,488.778 300.543,488.945 297.5,490C 298.696,490.654 298.696,491.154 297.5,491.5C 293.367,490.159 289.534,490.825 286,493.5C 284.538,493.006 283.038,492.673 281.5,492.5C 260.268,496.966 238.935,496.966 217.5,492.5C 215.962,492.673 214.462,493.006 213,493.5C 209.466,490.825 205.633,490.159 201.5,491.5C 200.304,491.154 200.304,490.654 201.5,490C 198.457,488.945 195.457,488.778 192.5,489.5C 192.167,488.833 191.833,488.167 191.5,487.5C 190.833,487.833 190.167,488.167 189.5,488.5C 187.222,485.957 184.555,485.291 181.5,486.5C 180.304,486.154 180.304,485.654 181.5,485C 177.718,483.447 173.885,481.947 170,480.5C 169.127,480.735 168.293,481.069 167.5,481.5C 166.304,481.154 166.304,480.654 167.5,480C 165.409,478.325 163.242,477.825 161,478.5C 159.742,475.945 157.909,475.278 155.5,476.5C 154.719,475.263 153.719,474.263 152.5,473.5C 150.166,474.841 148.499,474.174 147.5,471.5C 146.914,471.709 146.414,472.043 146,472.5C 142.657,471.224 139.657,468.891 137,465.5C 136.667,465.833 136.333,466.167 136,466.5C 135.424,463.876 134.09,463.209 132,464.5C 131.16,461.536 130.16,461.203 129,463.5C 128.89,460.354 127.557,459.354 125,460.5C 123.513,459.747 123.346,458.914 124.5,458C 117.278,453.714 110.778,449.214 105,444.5C 104.667,444.833 104.333,445.167 104,445.5C 101.822,444.107 100.822,442.44 101,440.5C 100,440.5 99,440.5 98,440.5C 96.2417,439.531 95.7417,438.364 96.5,437C 89.3062,431.14 82.8062,424.64 77,417.5C 76.6667,417.833 76.3333,418.167 76,418.5C 73.0807,416.691 71.7473,414.357 72,411.5C 70.2434,411.867 68.7434,411.034 67.5,409C 68.6341,407.984 68.3008,407.317 66.5,407C 67.2797,405.927 67.113,404.76 66,403.5C 64.927,404.28 63.7604,404.113 62.5,403C 64.9316,401.913 64.5983,401.413 61.5,401.5C 61.7733,399.549 61.1066,398.049 59.5,397C 59.8333,396.667 60.1667,396.333 60.5,396C 58.9512,394.786 57.7845,393.286 57,391.5C 56.3333,392.833 55.6667,392.833 55,391.5C 55.9791,389.721 55.6458,388.055 54,386.5C 53.195,388.901 52.3617,388.734 51.5,386C 52.6341,384.984 52.3008,384.317 50.5,384C 51.8331,382.16 51.6665,381.66 50,382.5C 47.9045,381.285 48.0712,380.451 50.5,380C 49.4495,378.615 48.1161,377.615 46.5,377C 46.9574,376.586 47.2907,376.086 47.5,375.5C 42.1275,366.729 37.6275,357.062 34,346.5C 31.7899,345.368 31.2899,343.868 32.5,342C 31.8993,340.395 30.8993,339.062 29.5,338C 30.0219,337.439 30.3552,336.772 30.5,336C 28.7134,332.202 27.3801,328.202 26.5,324C 26.0946,323.055 25.428,322.388 24.5,322C 25.823,318.787 25.1563,315.953 22.5,313.5C 23.4847,311.902 23.6514,310.235 23,308.5C 22.3457,309.696 21.8457,309.696 21.5,308.5C 22.477,304.841 22.3103,301.174 21,297.5C 20.1107,298.888 19.6107,298.722 19.5,297C 20.0367,295.208 20.3701,293.375 20.5,291.5C 19.8898,286.178 19.3898,280.844 19,275.5C 18.6667,275.833 18.3333,276.167 18,276.5C 17.3333,268.167 17.3333,259.833 18,251.5C 18.3333,251.833 18.6667,252.167 19,252.5C 20.0114,245.123 20.3448,237.789 20,230.5C 20.3333,230.833 20.6667,231.167 21,231.5C 21.7047,226.976 22.5381,222.476 23.5,218C 23.3552,216.774 23.0219,215.607 22.5,214.5C 22.8457,213.304 23.3457,213.304 24,214.5C 25.1951,211.813 25.3618,209.146 24.5,206.5C 26.7965,202.012 28.7965,197.345 30.5,192.5C 30.1667,191.833 29.8333,191.167 29.5,190.5C 31.7125,185.509 34.0458,180.509 36.5,175.5C 36.1667,174.833 35.8333,174.167 35.5,173.5C 37.7236,172.256 39.3902,169.923 40.5,166.5C 39.6744,165.549 39.5078,164.549 40,163.5C 41.1313,164.604 41.9646,164.271 42.5,162.5C 41.6744,161.549 41.5078,160.549 42,159.5C 43.1475,160.458 44.1475,160.125 45,158.5C 45.4922,157.451 45.3256,156.451 44.5,155.5C 45.325,154.614 46.325,154.281 47.5,154.5C 47.8541,152.459 47.8541,150.626 47.5,149C 48.3617,146.266 49.195,146.099 50,148.5C 51.6953,146.207 52.362,143.873 52,141.5C 52.6667,140.167 53.3333,140.167 54,141.5C 55.113,140.24 55.2797,139.073 54.5,138C 55.1667,136 56.5,134.667 58.5,134C 58.0411,132.057 59.0411,130.724 61.5,130C 61.1667,129.667 60.8333,129.333 60.5,129C 64.6908,127.811 66.8575,124.977 67,120.5C 67.6667,121.833 68.3333,121.833 69,120.5C 70.113,119.24 70.2797,118.073 69.5,117C 71.0488,115.786 72.2155,114.286 73,112.5C 73.3333,113.167 73.6667,113.833 74,114.5C 80.3144,107.228 86.1477,101.061 91.5,96C 90.3463,95.0862 90.513,94.2529 92,93.5C 92.3333,93.8333 92.6667,94.1667 93,94.5C 97.0304,92.1722 99.6971,89.1722 101,85.5C 101.333,85.8333 101.667,86.1667 102,86.5C 103.41,85.2125 104.91,84.0458 106.5,83C 105.346,82.0862 105.513,81.2529 107,80.5C 110.319,81.4925 112.319,80.1592 113,76.5C 113.667,75.1667 114.333,75.1667 115,76.5C 115.988,73.4413 117.821,72.2747 120.5,73C 121.701,72.0975 122.535,70.9308 123,69.5C 123.333,69.8333 123.667,70.1667 124,70.5C 126.921,68.2879 130.088,66.4545 133.5,65C 134.701,64.0975 135.535,62.9308 136,61.5C 138.09,62.7908 139.424,62.1242 140,59.5C 140.718,60.4506 141.551,60.6172 142.5,60C 144.503,58.6656 146.003,57.1656 147,55.5C 148.395,56.8146 149.395,56.4812 150,54.5C 150.414,54.9574 150.914,55.2907 151.5,55.5C 154.05,54.0584 156.716,52.8917 159.5,52C 160.126,51.2496 160.626,50.4162 161,49.5C 164.097,50.8729 166.263,49.8729 167.5,46.5C 167.833,47.1667 168.167,47.8333 168.5,48.5C 177.401,44.5664 187.068,41.5664 197.5,39.5C 198.647,39.1822 199.481,38.5156 200,37.5C 200.893,38.0814 201.893,38.4148 203,38.5C 208.521,37.7683 213.688,36.1016 218.5,33.5C 219.167,33.6667 219.833,33.8333 220.5,34C 216.586,34.8966 216.752,35.3966 221,35.5C 228.842,35.0553 236.009,33.722 242.5,31.5 Z"/></g>
<g><path style="opacity:1" fill="#3f4397" d="M 249.5,71.5 C 323.584,74.1882 380.084,107.855 419,172.5C 454.566,246.514 448.399,316.848 400.5,383.5C 356.452,435.304 300.952,459.637 234,456.5C 157.439,446.574 103.106,406.574 71,336.5C 41.7163,250.036 60.5496,176.202 127.5,115C 155.607,93.5918 186.441,79.7584 220,73.5C 220.414,73.9574 220.914,74.2907 221.5,74.5C 230.913,73.0592 240.246,72.0592 249.5,71.5 Z"/></g>
<g><path style="opacity:1" fill="#424698" d="M 237.5,119.5 C 294.243,117.288 339.077,139.621 372,186.5C 399.005,234.489 401.339,282.155 379,329.5C 354.889,372.478 319.555,398.478 273,407.5C 208.372,415.033 158.039,390.366 122,333.5C 95.1884,276.917 100.022,223.417 136.5,173C 163.204,142.56 196.871,124.727 237.5,119.5 Z"/></g>
<g><path style="opacity:1" fill="#6669ac" d="M 349.5,182.5 C 353.884,182.174 358.217,182.508 362.5,183.5C 369.043,187.384 371.209,193.051 369,200.5C 366.872,203.63 364.372,206.463 361.5,209C 353.254,211.566 347.254,209.066 343.5,201.5C 340.569,193.341 342.569,187.008 349.5,182.5 Z"/></g>
<g><path style="opacity:1" fill="#bebfdb" d="M 351.5,185.5 C 360.87,184.389 365.704,188.389 366,197.5C 363.451,204.358 358.617,206.858 351.5,205C 343.586,198.561 343.586,192.061 351.5,185.5 Z"/></g>
<g><path style="opacity:1" fill="#fbfbfd" d="M 352.5,189.5 C 359.827,188.329 362.994,191.329 362,198.5C 358,202.5 354,202.5 350,198.5C 348.927,194.9 349.76,191.9 352.5,189.5 Z"/></g>
<g><path style="opacity:1" fill="#464a9a" d="M 385.5,245.5 C 336.167,245.5 286.833,245.5 237.5,245.5C 236.167,259.833 236.167,274.167 237.5,288.5C 267.664,289.332 297.997,289.832 328.5,290C 320.507,290.5 312.507,290.666 304.5,290.5C 304.64,292.124 303.973,293.29 302.5,294C 302.833,294.333 303.167,294.667 303.5,295C 286.785,319.96 263.952,329.46 235,323.5C 234.667,323.833 234.333,324.167 234,324.5C 213.125,317.564 198.958,304.397 191.5,285C 169.167,284.667 146.833,284.333 124.5,284C 120.312,283.824 116.312,283.324 112.5,282.5C 152.167,282.5 191.833,282.5 231.5,282.5C 231.5,268.5 231.5,254.5 231.5,240.5C 191.833,240.5 152.167,240.5 112.5,240.5C 151.998,239.667 191.665,239.167 231.5,239C 218.82,238.833 206.154,238.333 193.5,237.5C 209.143,210.214 232.643,198.881 264,203.5C 266.559,204.98 269.226,206.313 272,207.5C 272.333,207.167 272.667,206.833 273,206.5C 281.389,210.778 288.722,215.778 295,221.5C 299.809,228.505 303.976,235.505 307.5,242.5C 333.666,243.35 359.666,244.35 385.5,245.5 Z"/></g>
<g><path style="opacity:1" fill="#e6e7f2" d="M 112.5,240.5 C 152.167,240.5 191.833,240.5 231.5,240.5C 231.5,254.5 231.5,268.5 231.5,282.5C 191.833,282.5 152.167,282.5 112.5,282.5C 112.5,268.5 112.5,254.5 112.5,240.5 Z"/></g>
<g><path style="opacity:1" fill="#f8f8fb" d="M 113.5,241.5 C 152.5,241.5 191.5,241.5 230.5,241.5C 230.5,254.833 230.5,268.167 230.5,281.5C 191.5,281.5 152.5,281.5 113.5,281.5C 113.5,268.167 113.5,254.833 113.5,241.5 Z"/></g>
<g><path style="opacity:1" fill="#4f519f" d="M 161.5,245.5 C 178.978,244.798 185.478,252.798 181,269.5C 175.42,276.697 168.253,278.864 159.5,276C 152.072,270.722 149.572,263.555 152,254.5C 154.43,250.566 157.597,247.566 161.5,245.5 Z"/></g>
<g><path style="opacity:1" fill="#4f519e" d="M 128.5,245.5 C 136.018,244.576 142.185,246.909 147,252.5C 148.009,254.025 148.509,255.692 148.5,257.5C 146.5,257.5 144.5,257.5 142.5,257.5C 142.128,253.957 140.128,251.79 136.5,251C 126.465,250.715 122.631,255.549 125,265.5C 128.359,272.873 133.525,274.373 140.5,270C 141.933,266.022 144.6,264.855 148.5,266.5C 143.008,278.068 134.675,280.568 123.5,274C 117.513,266.482 117.013,258.649 122,250.5C 124.326,248.934 126.492,247.268 128.5,245.5 Z"/></g>
<g><path style="opacity:1" fill="#4e509e" d="M 187.5,246.5 C 189.5,246.5 191.5,246.5 193.5,246.5C 193.5,256.5 193.5,266.5 193.5,276.5C 191.5,276.5 189.5,276.5 187.5,276.5C 187.5,266.5 187.5,256.5 187.5,246.5 Z"/></g>
<g><path style="opacity:1" fill="#4a4d9c" d="M 206.5,256.5 C 206.44,255.957 206.107,255.624 205.5,255.5C 204.503,262.468 204.17,269.468 204.5,276.5C 202.833,276.5 201.167,276.5 199.5,276.5C 199.5,266.5 199.5,256.5 199.5,246.5C 201.527,246.338 203.527,246.505 205.5,247C 210.211,253.589 215.045,260.089 220,266.5C 220.5,259.842 220.666,253.175 220.5,246.5C 222.167,246.5 223.833,246.5 225.5,246.5C 225.5,256.5 225.5,266.5 225.5,276.5C 223.396,276.799 221.396,276.466 219.5,275.5C 214.91,269.311 210.576,262.978 206.5,256.5 Z"/></g>
<g><path style="opacity:1" fill="#f8f8fb" d="M 162.5,251.5 C 174.219,250.051 178.719,255.051 176,266.5C 173.972,270.134 170.806,271.8 166.5,271.5C 161.504,271.673 158.337,269.34 157,264.5C 155.571,258.7 157.404,254.367 162.5,251.5 Z"/></g>
<g><path style="opacity:1" fill="#7c7fb8" d="M 206.5,256.5 C 205.833,263.167 205.167,269.833 204.5,276.5C 204.17,269.468 204.503,262.468 205.5,255.5C 206.107,255.624 206.44,255.957 206.5,256.5 Z"/></g>
<g><path style="opacity:1" fill="#abacd1" d="M 237.5,245.5 C 237.5,259.5 237.5,273.5 237.5,287.5C 286.833,287.5 336.167,287.5 385.5,287.5C 385.5,273.5 385.5,259.5 385.5,245.5C 386.496,259.657 386.829,273.99 386.5,288.5C 336.833,288.5 287.167,288.5 237.5,288.5C 236.167,274.167 236.167,259.833 237.5,245.5 Z"/></g>
<g><path style="opacity:1" fill="#fafafc" d="M 237.5,245.5 C 286.833,245.5 336.167,245.5 385.5,245.5C 385.5,259.5 385.5,273.5 385.5,287.5C 336.167,287.5 286.833,287.5 237.5,287.5C 237.5,273.5 237.5,259.5 237.5,245.5 Z"/></g>
<g><path style="opacity:1" fill="#7375b2" d="M 274.5,276.5 C 280.167,276.5 285.833,276.5 291.5,276.5C 291.5,278.5 291.5,280.5 291.5,282.5C 284.167,282.5 276.833,282.5 269.5,282.5C 269.5,282.167 269.5,281.833 269.5,281.5C 276.5,281.5 283.5,281.5 290.5,281.5C 290.5,280.167 290.5,278.833 290.5,277.5C 284.974,277.821 279.64,277.488 274.5,276.5 Z"/></g>
<g><path style="opacity:1" fill="#9ea1ca" d="M 363.5,263.5 C 368.833,263.5 374.167,263.5 379.5,263.5C 379.795,265.735 379.461,267.735 378.5,269.5C 378.5,267.833 378.5,266.167 378.5,264.5C 373.305,264.821 368.305,264.487 363.5,263.5 Z"/></g>
<g><path style="opacity:1" fill="#434698" d="M 363.5,257.5 C 363.5,259.5 363.5,261.5 363.5,263.5C 368.305,264.487 373.305,264.821 378.5,264.5C 378.5,266.167 378.5,267.833 378.5,269.5C 373.5,269.5 368.5,269.5 363.5,269.5C 363.5,271.833 363.5,274.167 363.5,276.5C 368.64,277.488 373.974,277.821 379.5,277.5C 379.5,278.833 379.5,280.167 379.5,281.5C 372.5,281.5 365.5,281.5 358.5,281.5C 358.5,271.833 358.5,262.167 358.5,252.5C 365.5,252.5 372.5,252.5 379.5,252.5C 379.5,253.833 379.5,255.167 379.5,256.5C 373.974,256.179 368.64,256.512 363.5,257.5 Z"/></g>
<g><path style="opacity:1" fill="#6c6faf" d="M 363.5,257.5 C 368.64,256.512 373.974,256.179 379.5,256.5C 379.5,255.167 379.5,253.833 379.5,252.5C 372.5,252.5 365.5,252.5 358.5,252.5C 358.5,262.167 358.5,271.833 358.5,281.5C 365.5,281.5 372.5,281.5 379.5,281.5C 379.5,280.167 379.5,278.833 379.5,277.5C 373.974,277.821 368.64,277.488 363.5,276.5C 369.167,276.5 374.833,276.5 380.5,276.5C 380.5,278.5 380.5,280.5 380.5,282.5C 372.833,282.5 365.167,282.5 357.5,282.5C 357.5,272.167 357.5,261.833 357.5,251.5C 365.167,251.5 372.833,251.5 380.5,251.5C 380.5,253.5 380.5,255.5 380.5,257.5C 374.833,257.5 369.167,257.5 363.5,257.5 Z"/></g>
<g><path style="opacity:1" fill="#c1c2dd" d="M 331.5,251.5 C 332.167,255.833 332.833,260.167 333.5,264.5C 333.217,265.289 332.717,265.956 332,266.5C 331.501,261.845 331.334,257.179 331.5,252.5C 331.5,252.167 331.5,251.833 331.5,251.5 Z"/></g>
<g><path style="opacity:1" fill="#494c9c" d="M 331.5,281.5 C 329.833,281.5 328.167,281.5 326.5,281.5C 326.5,271.833 326.5,262.167 326.5,252.5C 328.167,252.5 329.833,252.5 331.5,252.5C 331.334,257.179 331.501,261.845 332,266.5C 332.717,265.956 333.217,265.289 333.5,264.5C 337.997,260.836 341.997,256.669 345.5,252C 348.167,251.333 350.833,251.333 353.5,252C 349.167,256.333 344.833,260.667 340.5,265C 344.789,270.958 349.456,276.624 354.5,282C 351.833,282.667 349.167,282.667 346.5,282C 343.706,277.376 340.373,273.209 336.5,269.5C 331.974,272.203 330.308,276.203 331.5,281.5 Z"/></g>
<g><path style="opacity:1" fill="#8284bb" d="M 331.5,251.5 C 331.5,251.833 331.5,252.167 331.5,252.5C 329.833,252.5 328.167,252.5 326.5,252.5C 326.5,262.167 326.5,271.833 326.5,281.5C 328.167,281.5 329.833,281.5 331.5,281.5C 329.735,282.461 327.735,282.795 325.5,282.5C 325.5,272.167 325.5,261.833 325.5,251.5C 327.5,251.5 329.5,251.5 331.5,251.5 Z"/></g>
<g><path style="opacity:1" fill="#4e519f" d="M 302.5,251.5 C 305.187,251.336 307.854,251.503 310.5,252C 314.635,261.772 318.635,271.605 322.5,281.5C 320.257,282.474 317.924,282.808 315.5,282.5C 315.643,280.738 315.309,279.071 314.5,277.5C 309.869,276.338 305.202,276.172 300.5,277C 299.716,281.442 297.05,283.276 292.5,282.5C 295.833,272.167 299.167,261.833 302.5,251.5 Z"/></g>
<g><path style="opacity:1" fill="#b9bad9" d="M 303.5,267.5 C 303.5,268.833 303.5,270.167 303.5,271.5C 306.385,271.806 309.052,271.473 311.5,270.5C 312.043,270.56 312.376,270.893 312.5,271.5C 309.232,272.487 305.898,272.82 302.5,272.5C 302.216,270.585 302.549,268.919 303.5,267.5 Z"/></g>
<g><path style="opacity:1" fill="#f3f3f8" d="M 311.5,270.5 C 309.052,271.473 306.385,271.806 303.5,271.5C 303.5,270.167 303.5,268.833 303.5,267.5C 303.909,264.189 305.076,261.189 307,258.5C 308.998,262.33 310.498,266.33 311.5,270.5 Z"/></g>
<g><path style="opacity:1" fill="#44489a" d="M 274.5,252.5 C 274.5,260.5 274.5,268.5 274.5,276.5C 279.64,277.488 284.974,277.821 290.5,277.5C 290.5,278.833 290.5,280.167 290.5,281.5C 283.5,281.5 276.5,281.5 269.5,281.5C 269.5,271.833 269.5,262.167 269.5,252.5C 271.167,252.5 272.833,252.5 274.5,252.5 Z"/></g>
<g><path style="opacity:1" fill="#8d8fc1" d="M 274.5,252.5 C 272.833,252.5 271.167,252.5 269.5,252.5C 269.5,262.167 269.5,271.833 269.5,281.5C 269.5,281.833 269.5,282.167 269.5,282.5C 268.506,272.347 268.172,262.014 268.5,251.5C 270.735,251.205 272.735,251.539 274.5,252.5 Z"/></g>
<g><path style="opacity:1" fill="#4a4d9c" d="M 248.5,257.5 C 248.5,259.833 248.5,262.167 248.5,264.5C 253.5,264.5 258.5,264.5 263.5,264.5C 263.5,266.167 263.5,267.833 263.5,269.5C 258.5,269.5 253.5,269.5 248.5,269.5C 247.517,273.298 247.183,277.298 247.5,281.5C 246.167,281.5 244.833,281.5 243.5,281.5C 243.5,271.833 243.5,262.167 243.5,252.5C 250.5,252.5 257.5,252.5 264.5,252.5C 264.5,253.833 264.5,255.167 264.5,256.5C 258.974,256.179 253.64,256.512 248.5,257.5 Z"/></g>
<g><path style="opacity:1" fill="#686bad" d="M 248.5,257.5 C 253.64,256.512 258.974,256.179 264.5,256.5C 264.5,255.167 264.5,253.833 264.5,252.5C 257.5,252.5 250.5,252.5 243.5,252.5C 243.5,262.167 243.5,271.833 243.5,281.5C 244.833,281.5 246.167,281.5 247.5,281.5C 247.183,277.298 247.517,273.298 248.5,269.5C 248.5,273.833 248.5,278.167 248.5,282.5C 246.5,282.5 244.5,282.5 242.5,282.5C 242.5,272.167 242.5,261.833 242.5,251.5C 250.167,251.5 257.833,251.5 265.5,251.5C 265.5,253.5 265.5,255.5 265.5,257.5C 259.833,257.5 254.167,257.5 248.5,257.5 Z"/></g>
<g><path style="opacity:1" fill="#393d93" d="M -0.5,384.5 C 22.607,431.972 56.607,470.306 101.5,499.5C 67.5,499.5 33.5,499.5 -0.5,499.5C -0.5,461.167 -0.5,422.833 -0.5,384.5 Z"/></g>
<g><path style="opacity:1" fill="#393d93" d="M 499.5,384.5 C 499.5,422.833 499.5,461.167 499.5,499.5C 465.5,499.5 431.5,499.5 397.5,499.5C 442.102,470.565 476.102,432.231 499.5,384.5 Z"/></g>
</svg>
