<?xml version="1.0" encoding="UTF-8"?>
<svg width="18px" height="24px" viewBox="0 0 18 24" version="1.1" xmlns="http://www.w3.org/2000/svg" xmlns:xlink="http://www.w3.org/1999/xlink">
    <title>形状</title>
    <g id="页面-1" stroke="none" stroke-width="1" fill="none" fill-rule="evenodd">
        <g id="12-Wallet-Overview-Deposit-Fiat--Select-currency-Enter-amount-02" transform="translate(-960.000000, -204.000000)" fill="#000000" fill-rule="nonzero">
            <g id="lightbulb_FILL0_wght400_GRAD0_opsz48" transform="translate(960.000000, 204.000000)">
                <path d="M8.7804878,24 C8.11707317,24 7.55609756,23.7707317 7.09756098,23.3121951 C6.63902439,22.8536585 6.4097561,22.2926829 6.4097561,21.6292683 L11.1512195,21.6292683 C11.1512195,22.2926829 10.9219512,22.8536585 10.4634146,23.3121951 C10.004878,23.7707317 9.44390244,24 8.7804878,24 Z M4.03902439,19.8146341 L4.03902439,18.0585366 L13.5219512,18.0585366 L13.5219512,19.8146341 L4.03902439,19.8146341 Z M4.18536585,16.2731707 C2.89756098,15.4341463 1.87804878,14.3853659 1.12682927,13.1268293 C0.375609756,11.8682927 0,10.4487805 0,8.86829268 C0,6.48780488 0.868292683,4.42926829 2.60487805,2.69268293 C4.34146341,0.956097561 6.4,0.087804878 8.7804878,0.087804878 C11.1609756,0.087804878 13.2195122,0.956097561 14.9560976,2.69268293 C16.6926829,4.42926829 17.5609756,6.48780488 17.5609756,8.86829268 C17.5609756,10.4487805 17.1902439,11.8682927 16.4487805,13.1268293 C15.7073171,14.3853659 14.6829268,15.4341463 13.3756098,16.2731707 L4.18536585,16.2731707 Z M4.82926829,14.5170732 L12.7609756,14.5170732 C13.697561,13.8926829 14.4390244,13.0829268 14.9853659,12.0878049 C15.5317073,11.0926829 15.804878,10.0195122 15.804878,8.86829268 C15.804878,6.93658537 15.1170732,5.28292683 13.7414634,3.90731707 C12.3658537,2.53170732 10.7121951,1.84390244 8.7804878,1.84390244 C6.84878049,1.84390244 5.19512195,2.53170732 3.8195122,3.90731707 C2.44390244,5.28292683 1.75609756,6.93658537 1.75609756,8.86829268 C1.75609756,10.0195122 2.02926829,11.0926829 2.57560976,12.0878049 C3.12195122,13.0829268 3.87317073,13.8926829 4.82926829,14.5170732 Z" id="形状"></path>
            </g>
        </g>
    </g>
</svg>