<?xml version="1.0" encoding="UTF-8"?>
<svg width="11px" height="12px" viewBox="0 0 11 12" version="1.1" xmlns="http://www.w3.org/2000/svg" xmlns:xlink="http://www.w3.org/1999/xlink">
    <title>形状</title>
    <g id="页面-1" stroke="none" stroke-width="1" fill="none" fill-rule="evenodd">
        <g id="37-User-center-overview" transform="translate(-282.000000, -211.000000)" fill="#99A0B0" fill-rule="nonzero">
            <g id="border_color_FILL0_wght400_GRAD0_opsz48" transform="translate(282.000000, 211.000000)">
                <path d="M0,11.7333333 L0,10.12 L10.6666667,10.12 L10.6666667,11.7333333 L0,11.7333333 Z M1.09333333,8.70666667 L1.09333333,6.93333333 L6.06666667,1.96 L7.84,3.73333333 L2.86666667,8.70666667 L1.09333333,8.70666667 Z M1.89333333,7.90666667 L2.49333333,7.90666667 L6.69333333,3.70666667 L6.09333333,3.10666667 L1.89333333,7.30666667 L1.89333333,7.90666667 Z M8.42666667,3.14666667 L6.65333333,1.37333333 L7.77333333,0.253333333 C7.87111111,0.137777778 7.98222222,0.0777777778 8.10666667,0.0733333333 C8.23111111,0.0688888889 8.35555556,0.128888889 8.48,0.253333333 L9.52,1.29333333 C9.63555556,1.40888889 9.69333333,1.53111111 9.69333333,1.66 C9.69333333,1.78888889 9.64444444,1.91111111 9.54666667,2.02666667 L8.42666667,3.14666667 Z" id="形状"></path>
            </g>
        </g>
    </g>
</svg>