<?xml version="1.0" encoding="UTF-8"?>
<svg width="40px" height="40px" viewBox="0 0 40 40" version="1.1" xmlns="http://www.w3.org/2000/svg" xmlns:xlink="http://www.w3.org/1999/xlink">
    <title>编组 4</title>
    <g id="页面-1" stroke="none" stroke-width="1" fill="none" fill-rule="evenodd">
        <g id="36-Dropdown-user-center-Verifiy-your-account" transform="translate(-1195.000000, -71.000000)">
            <g id="编组-8" transform="translate(1161.000000, 50.000000)">
                <g id="编组-4" transform="translate(34.000000, 21.000000)">
                    <path d="M19.9998605,0 C8.96432901,0 0,8.96432901 0,19.9998605 C0,31.035671 8.96432901,40 19.9998605,40 C31.035671,40 40,31.035671 40,19.9998605 C40,8.96432901 31.035671,0 19.9998605,0 Z" id="Fill-1" fill="#EBEBEB"></path>
                    <path d="M19.982531,21.48175 C22.9673219,21.48175 28.965106,22.9740575 28.965106,25.9870507 L28.9932644,28.2398551 C28.9932644,28.6621431 28.6554076,29 28.2331195,29 L11.7603649,29 C11.3380768,29 11,28.6621431 11,28.2398551 L11,25.9870507 C11,23.0022599 16.9977841,21.48175 19.982531,21.48175 Z M24.4880077,15.5122123 C24.4880077,17.9901519 22.4605146,20.017469 19.982531,20.017469 C17.3920458,20.017469 15.3365263,17.8212014 15.5054767,15.2025138 C15.6462247,12.9496655 17.476565,11.1476596 19.7292374,11.0067356 C22.347925,10.8659876 24.4880077,12.9496655 24.4880077,15.5122123 Z" id="形状结合" fill="#C4C9D0"></path>
                </g>
            </g>
        </g>
    </g>
</svg>