<?xml version="1.0" encoding="UTF-8"?>
<svg width="15px" height="17px" viewBox="0 0 15 17" version="1.1" xmlns="http://www.w3.org/2000/svg" xmlns:xlink="http://www.w3.org/1999/xlink">
    <title>link_FILL0_wght400_GRAD0_opsz48备份 17</title>
    <g id="页面-1" stroke="none" stroke-width="1" fill="none" fill-rule="evenodd">
        <g id="10-Wallet-History-deposit/withdraw-crypto" transform="translate(-1177.000000, -778.000000)" fill="#7B8293" fill-rule="nonzero">
            <g id="link_FILL0_wght400_GRAD0_opsz48备份-17" transform="translate(1184.291455, 786.488907) rotate(121.000000) translate(-1184.291455, -786.488907) translate(1176.791455, 782.488907)">
                <path d="M7.35817921,7.80167765 L4.38317921,7.80167765 C3.41484588,7.80167765 2.58942921,7.46042765 1.90692921,6.77792765 C1.22442921,6.09542765 0.883179211,5.27001099 0.883179211,4.30167765 C0.883179211,3.33334432 1.22442921,2.50792765 1.90692921,1.82542765 C2.58942921,1.14292765 3.41484588,0.801677655 4.38317921,0.801677655 L7.35817921,0.801677655 L7.35817921,1.85167765 L4.38317921,1.85167765 C3.70651254,1.85167765 3.12901254,2.09084432 2.65067921,2.56917765 C2.17234588,3.04751099 1.93317921,3.62501099 1.93317921,4.30167765 C1.93317921,4.97834432 2.17234588,5.55584432 2.65067921,6.03417765 C3.12901254,6.51251099 3.70651254,6.75167765 4.38317921,6.75167765 L7.35817921,6.75167765 L7.35817921,7.80167765 Z M5.17067921,4.82667765 L5.17067921,3.77667765 L10.5956792,3.77667765 L10.5956792,4.82667765 L5.17067921,4.82667765 Z M8.40817921,7.80167765 L8.40817921,6.75167765 L11.3831792,6.75167765 C12.0598459,6.75167765 12.6373459,6.51251099 13.1156792,6.03417765 C13.5940125,5.55584432 13.8331792,4.97834432 13.8331792,4.30167765 C13.8331792,3.62501099 13.5940125,3.04751099 13.1156792,2.56917765 C12.6373459,2.09084432 12.0598459,1.85167765 11.3831792,1.85167765 L8.40817921,1.85167765 L8.40817921,0.801677655 L11.3831792,0.801677655 C12.3515125,0.801677655 13.1769292,1.14292765 13.8594292,1.82542765 C14.5419292,2.50792765 14.8831792,3.33334432 14.8831792,4.30167765 C14.8831792,5.27001099 14.5419292,6.09542765 13.8594292,6.77792765 C13.1769292,7.46042765 12.3515125,7.80167765 11.3831792,7.80167765 L8.40817921,7.80167765 Z" id="形状"></path>
            </g>
        </g>
    </g>
</svg>