<?xml version="1.0" encoding="UTF-8"?>
<svg width="12px" height="14px" viewBox="0 0 12 14" version="1.1" xmlns="http://www.w3.org/2000/svg" xmlns:xlink="http://www.w3.org/1999/xlink">
    <title>content_copy_FILL0_wght400_GRAD0_opsz48备份 19</title>
    <g id="页面-1" stroke="none" stroke-width="1" fill="none" fill-rule="evenodd">
        <g id="10-Wallet-History-deposit/withdraw-crypto" transform="translate(-1199.000000, -833.000000)" fill="#7B8293" fill-rule="nonzero">
            <g id="content_copy_FILL0_wght400_GRAD0_opsz48备份-19" transform="translate(1199.000000, 833.000000)">
                <path d="M1.02439024,13.9829268 C0.751219512,13.9829268 0.512195122,13.8804878 0.307317073,13.6756098 C0.102439024,13.4707317 0,13.2317073 0,12.9585366 L0,2.66341463 L1.02439024,2.66341463 L1.02439024,12.9585366 L9.11707317,12.9585366 L9.11707317,13.9829268 L1.02439024,13.9829268 Z M3.07317073,11.9341463 C2.8,11.9341463 2.56097561,11.8317073 2.35609756,11.6268293 C2.15121951,11.4219512 2.04878049,11.1829268 2.04878049,10.9097561 L2.04878049,1.34878049 C2.04878049,1.07560976 2.15121951,0.836585366 2.35609756,0.631707317 C2.56097561,0.426829268 2.8,0.324390244 3.07317073,0.324390244 L10.5853659,0.324390244 C10.8585366,0.324390244 11.097561,0.426829268 11.302439,0.631707317 C11.5073171,0.836585366 11.6097561,1.07560976 11.6097561,1.34878049 L11.6097561,10.9097561 C11.6097561,11.1829268 11.5073171,11.4219512 11.302439,11.6268293 C11.097561,11.8317073 10.8585366,11.9341463 10.5853659,11.9341463 L3.07317073,11.9341463 Z M3.07317073,10.9097561 L10.5853659,10.9097561 L10.5853659,1.34878049 L3.07317073,1.34878049 L3.07317073,10.9097561 Z M3.07317073,10.9097561 L3.07317073,1.34878049 L3.07317073,10.9097561 Z" id="形状"></path>
            </g>
        </g>
    </g>
</svg>