<?xml version="1.0" encoding="UTF-8"?>
<svg width="18px" height="20px" viewBox="0 0 18 20" version="1.1" xmlns="http://www.w3.org/2000/svg" xmlns:xlink="http://www.w3.org/1999/xlink">
    <title>calendar_month_FILL0_wght400_GRAD0_opsz48</title>
    <g id="页面-1" stroke="none" stroke-width="1" fill="none" fill-rule="evenodd">
        <g id="13-Wallet-History-Make Payment-History" transform="translate(-225.000000, -192.000000)" fill="#9B9B9B" fill-rule="nonzero">
            <g id="编组-8" transform="translate(32.000000, 181.000000)">
                <g id="calendar_month_FILL0_wght400_GRAD0_opsz48" transform="translate(193.000000, 11.000000)">
                    <path d="M1.5,20 C1.1,20 0.75,19.85 0.45,19.55 C0.15,19.25 0,18.9 0,18.5 L0,3 C0,2.6 0.15,2.25 0.45,1.95 C0.75,1.65 1.1,1.5 1.5,1.5 L3.125,1.5 L3.125,0 L4.75,0 L4.75,1.5 L13.25,1.5 L13.25,0 L14.875,0 L14.875,1.5 L16.5,1.5 C16.9,1.5 17.25,1.65 17.55,1.95 C17.85,2.25 18,2.6 18,3 L18,18.5 C18,18.9 17.85,19.25 17.55,19.55 C17.25,19.85 16.9,20 16.5,20 L1.5,20 Z M1.5,18.5 L16.5,18.5 L16.5,7.75 L1.5,7.75 L1.5,18.5 Z M1.5,6.25 L16.5,6.25 L16.5,3 L1.5,3 L1.5,6.25 Z M1.5,6.25 L1.5,3 L1.5,6.25 Z M9,12 C8.71666667,12 8.47916667,11.9041667 8.2875,11.7125 C8.09583333,11.5208333 8,11.2833333 8,11 C8,10.7166667 8.09583333,10.4791667 8.2875,10.2875 C8.47916667,10.0958333 8.71666667,10 9,10 C9.28333333,10 9.52083333,10.0958333 9.7125,10.2875 C9.90416667,10.4791667 10,10.7166667 10,11 C10,11.2833333 9.90416667,11.5208333 9.7125,11.7125 C9.52083333,11.9041667 9.28333333,12 9,12 Z M5,12 C4.71666667,12 4.47916667,11.9041667 4.2875,11.7125 C4.09583333,11.5208333 4,11.2833333 4,11 C4,10.7166667 4.09583333,10.4791667 4.2875,10.2875 C4.47916667,10.0958333 4.71666667,10 5,10 C5.28333333,10 5.52083333,10.0958333 5.7125,10.2875 C5.90416667,10.4791667 6,10.7166667 6,11 C6,11.2833333 5.90416667,11.5208333 5.7125,11.7125 C5.52083333,11.9041667 5.28333333,12 5,12 Z M13,12 C12.7166667,12 12.4791667,11.9041667 12.2875,11.7125 C12.0958333,11.5208333 12,11.2833333 12,11 C12,10.7166667 12.0958333,10.4791667 12.2875,10.2875 C12.4791667,10.0958333 12.7166667,10 13,10 C13.2833333,10 13.5208333,10.0958333 13.7125,10.2875 C13.9041667,10.4791667 14,10.7166667 14,11 C14,11.2833333 13.9041667,11.5208333 13.7125,11.7125 C13.5208333,11.9041667 13.2833333,12 13,12 Z M9,16 C8.71666667,16 8.47916667,15.9041667 8.2875,15.7125 C8.09583333,15.5208333 8,15.2833333 8,15 C8,14.7166667 8.09583333,14.4791667 8.2875,14.2875 C8.47916667,14.0958333 8.71666667,14 9,14 C9.28333333,14 9.52083333,14.0958333 9.7125,14.2875 C9.90416667,14.4791667 10,14.7166667 10,15 C10,15.2833333 9.90416667,15.5208333 9.7125,15.7125 C9.52083333,15.9041667 9.28333333,16 9,16 Z M5,16 C4.71666667,16 4.47916667,15.9041667 4.2875,15.7125 C4.09583333,15.5208333 4,15.2833333 4,15 C4,14.7166667 4.09583333,14.4791667 4.2875,14.2875 C4.47916667,14.0958333 4.71666667,14 5,14 C5.28333333,14 5.52083333,14.0958333 5.7125,14.2875 C5.90416667,14.4791667 6,14.7166667 6,15 C6,15.2833333 5.90416667,15.5208333 5.7125,15.7125 C5.52083333,15.9041667 5.28333333,16 5,16 Z M13,16 C12.7166667,16 12.4791667,15.9041667 12.2875,15.7125 C12.0958333,15.5208333 12,15.2833333 12,15 C12,14.7166667 12.0958333,14.4791667 12.2875,14.2875 C12.4791667,14.0958333 12.7166667,14 13,14 C13.2833333,14 13.5208333,14.0958333 13.7125,14.2875 C13.9041667,14.4791667 14,14.7166667 14,15 C14,15.2833333 13.9041667,15.5208333 13.7125,15.7125 C13.5208333,15.9041667 13.2833333,16 13,16 Z" id="形状"></path>
                </g>
            </g>
        </g>
    </g>
</svg>